{"glyphs":{"0":{"ha":695,"x_min":55,"x_max":675,"o":"m 413 51 q 549 156 483 51 q 621 500 621 270 q 550 836 621 720 q 412 939 486 939 q 263 814 327 939 q 205 499 205 699 q 262 184 205 298 q 413 51 330 51 m 363 -8 q 134 127 217 -8 q 55 500 55 255 q 134 864 55 739 q 366 999 218 999 q 596 863 513 999 q 675 499 675 734 q 596 127 675 255 q 363 -8 513 -8 m 279 64 q 151 499 151 188 q 279 927 151 803 q 113 504 113 851 q 279 64 113 138 z "},"1":{"ha":325,"x_min":18,"x_max":305,"o":"m 83 0 q 64 8 72 0 q 56 27 56 16 q 64 46 56 38 q 83 54 72 54 l 106 54 l 106 862 l 68 802 q 45 789 60 789 q 31 793 39 789 q 18 816 18 801 q 22 830 18 823 l 109 970 q 133 985 117 985 l 229 985 q 248 977 239 985 q 256 958 256 969 l 256 54 l 278 54 q 297 46 290 54 q 305 27 305 38 q 297 8 305 16 q 278 0 290 0 l 83 0 m 201 54 l 201 931 l 160 931 l 160 54 l 201 54 z "},"2":{"ha":537,"x_min":-24,"x_max":526,"o":"m 498 0 l 2 0 q -16 7 -7 0 q -24 28 -24 14 q -18 45 -24 37 q 253 435 154 248 q 345 731 345 606 q 307 877 345 827 q 202 940 259 940 q 73 843 125 940 q 49 829 65 829 q 36 832 43 829 q 22 856 22 840 q 25 869 22 862 q 117 964 60 931 q 245 999 177 999 q 494 731 494 999 q 399 397 494 587 q 178 54 310 218 l 471 54 l 471 108 q 479 127 471 119 q 498 135 487 135 q 517 127 509 135 q 526 108 526 119 l 526 27 q 517 8 526 16 q 498 0 509 0 m 109 54 q 351 421 254 227 q 440 731 440 600 q 336 929 440 888 q 399 731 399 860 q 300 410 399 595 q 60 54 201 224 l 109 54 z "},"3":{"ha":560,"x_min":-4,"x_max":541,"o":"m 250 -14 q 108 27 180 -14 q 0 128 40 66 q -4 142 -4 135 q 9 165 -4 157 q 24 170 16 170 q 46 157 38 170 q 135 74 79 106 q 211 45 186 45 q 354 140 296 45 q 391 273 391 199 q 362 391 391 334 q 191 528 311 492 q 171 554 171 534 q 186 580 171 572 q 321 677 280 629 q 357 777 357 721 q 285 915 357 873 q 205 941 237 941 q 67 869 126 941 q 45 859 59 859 q 28 866 37 859 q 19 886 19 873 q 24 902 19 895 q 119 972 61 948 q 248 999 186 999 q 439 935 368 999 q 511 770 511 868 q 500 696 511 734 q 406 562 476 619 q 528 376 500 484 q 541 281 541 328 q 444 54 541 142 q 250 -14 368 -14 m 363 65 q 409 96 389 77 q 487 281 487 165 q 476 361 487 321 q 345 541 448 469 q 332 563 332 549 q 345 588 332 580 q 448 713 425 635 q 456 770 456 742 q 402 894 456 844 q 361 922 385 910 q 412 777 412 863 q 362 642 412 701 q 261 559 326 600 q 411 416 366 507 q 445 273 445 347 q 399 111 445 184 q 363 65 384 86 z "},"4":{"ha":592,"x_min":24,"x_max":568,"o":"m 541 0 l 347 0 q 327 8 335 0 q 319 27 319 16 q 327 46 319 38 q 347 54 335 54 l 369 54 l 369 303 q 44 304 51 303 q 24 330 24 310 q 168 931 24 334 l 155 931 q 136 939 144 931 q 128 958 128 947 q 136 977 128 969 q 155 985 144 985 l 248 985 q 267 977 259 985 q 275 958 275 969 q 267 939 275 947 q 248 931 259 931 l 223 931 l 85 358 l 369 358 l 369 931 l 347 931 q 327 939 335 931 q 319 958 319 947 q 327 977 319 969 q 347 985 335 985 l 541 985 q 561 977 553 985 q 568 958 568 969 q 561 939 568 947 q 541 931 553 931 l 519 931 l 519 54 l 541 54 q 561 46 553 54 q 568 27 568 38 q 561 8 568 16 q 541 0 553 0 m 465 54 l 465 931 l 424 931 l 424 54 l 465 54 z "},"5":{"ha":578,"x_min":45,"x_max":570,"o":"m 298 -14 q 50 128 135 -14 q 45 142 45 135 q 58 165 45 157 q 73 170 65 170 q 96 157 87 170 q 255 50 172 50 q 372 141 326 50 q 416 364 416 226 q 369 578 416 502 q 249 669 313 669 q 178 644 229 669 q 98 573 127 618 q 73 559 88 559 q 53 567 61 559 q 45 586 45 575 l 45 958 q 53 977 45 969 q 73 985 61 985 l 472 985 q 491 977 483 985 q 499 958 499 969 q 491 939 499 947 q 472 931 483 931 l 195 931 l 195 710 q 298 729 250 729 q 500 629 427 729 q 570 364 570 534 q 499 93 570 192 q 298 -14 424 -14 m 370 54 q 455 123 420 74 q 515 364 515 206 q 456 597 515 517 q 373 662 423 643 q 470 364 470 567 q 370 54 470 154 m 100 658 q 140 686 119 673 l 140 931 l 100 931 l 100 658 z "},"6":{"ha":605,"x_min":50,"x_max":612,"o":"m 342 -8 q 128 103 206 -8 q 50 392 50 214 q 132 747 50 591 q 370 982 210 893 q 382 985 376 985 q 406 970 398 985 q 410 958 410 964 q 402 939 410 947 q 239 681 281 812 q 214 581 223 632 q 335 604 275 604 q 472 570 408 604 q 576 469 536 536 q 612 312 612 405 q 544 82 612 172 q 342 -8 475 -8 m 249 67 q 206 125 224 93 q 146 392 146 234 q 188 699 146 571 q 227 792 203 746 q 104 392 104 631 q 172 134 104 231 q 249 67 203 91 m 389 51 q 542 204 492 51 q 558 312 558 254 q 528 443 558 391 q 447 522 498 496 q 335 549 395 549 q 205 517 270 549 q 200 392 200 457 q 254 153 200 248 q 389 51 311 51 z "},"7":{"ha":521,"x_min":-7,"x_max":557,"o":"m 283 0 l 88 0 q 69 8 77 0 q 61 27 61 16 q 69 46 61 38 q 88 54 77 54 l 104 54 l 353 931 l 47 931 l 47 878 q 39 858 47 866 q 20 850 31 850 q 1 858 9 850 q -7 878 -7 866 l -7 958 q 1 977 -7 969 q 20 985 9 985 l 530 985 q 549 977 541 985 q 557 958 557 969 q 549 939 557 947 q 530 931 541 931 l 511 931 l 262 54 l 283 54 q 302 46 294 54 q 310 27 310 38 q 302 8 310 16 q 283 0 294 0 m 205 54 l 454 931 l 409 931 l 160 54 l 205 54 z "},"8":{"ha":643,"x_min":47,"x_max":623,"o":"m 387 44 q 549 178 487 44 q 569 269 569 220 q 543 386 569 338 q 475 467 516 433 q 388 528 434 501 q 301 465 342 500 q 233 379 260 430 q 207 253 207 329 q 256 116 207 175 q 387 44 317 44 m 229 64 q 214 80 221 72 q 152 253 152 156 q 178 394 152 337 q 247 490 205 450 q 337 559 288 530 q 259 615 294 585 q 203 686 224 646 q 182 783 182 726 q 238 926 182 867 q 139 812 158 892 q 134 770 134 791 q 143 711 134 741 q 243 587 166 634 q 256 563 256 578 q 244 539 256 548 q 113 362 141 469 q 102 282 102 321 q 180 96 102 166 q 229 64 202 77 m 388 592 q 462 644 428 616 q 517 707 496 671 q 538 794 538 743 q 486 901 538 857 q 389 941 438 941 q 277 889 323 941 q 237 783 237 842 q 258 702 237 736 q 314 642 279 669 q 388 592 348 616 m 340 -14 q 144 55 222 -14 q 58 201 79 114 q 47 283 47 241 q 182 562 47 449 q 80 770 80 646 q 152 935 80 869 q 340 999 222 999 q 519 945 450 999 q 593 794 593 886 q 572 692 593 734 q 516 618 551 650 q 439 560 481 587 q 529 493 488 531 q 597 401 571 455 q 623 269 623 347 q 544 63 623 145 q 340 -14 469 -14 z "},"9":{"ha":595,"x_min":19,"x_max":582,"o":"m 250 5 q 225 20 233 5 q 222 33 222 26 q 230 52 222 43 q 393 310 351 178 q 418 410 409 359 q 296 387 357 387 q 160 421 224 387 q 56 522 96 454 q 19 679 19 586 q 38 805 19 745 q 94 909 57 865 q 177 975 128 951 q 290 999 226 999 q 504 887 426 999 q 582 599 582 776 q 499 243 582 401 q 262 9 422 98 q 250 5 256 5 m 405 199 q 527 599 527 359 q 460 856 527 760 q 383 924 429 900 q 426 865 408 898 q 486 599 486 757 q 444 292 486 419 q 405 199 429 245 m 296 442 q 427 473 362 442 q 432 599 432 534 q 379 838 432 743 q 268 940 323 940 q 90 787 138 940 q 74 679 74 736 q 104 548 74 600 q 185 469 134 495 q 296 442 237 442 z "}," ":{"ha":345,"x_min":0,"x_max":0,"o":""},"!":{"ha":317,"x_min":34,"x_max":283,"o":"m 242 237 l 75 237 q 56 244 64 237 q 48 264 48 252 q 56 283 48 275 q 75 291 64 291 l 91 291 l 77 931 l 61 931 q 42 939 50 931 q 34 958 34 947 q 42 977 34 969 q 61 985 50 985 l 256 985 q 275 977 267 985 q 283 958 283 969 q 275 939 283 947 q 256 931 267 931 l 240 931 l 227 291 l 242 291 q 261 283 254 291 q 269 264 269 275 q 261 244 269 252 q 242 237 254 237 m 172 291 l 186 931 l 132 931 l 145 291 l 172 291 m 166 41 q 192 51 181 41 q 203 77 203 62 q 192 103 203 92 q 166 114 181 114 q 140 103 151 114 q 130 77 130 92 q 140 51 130 62 q 166 41 151 41 m 166 -14 q 102 13 128 -14 q 75 77 75 39 q 102 141 75 115 q 166 168 128 168 q 231 141 204 168 q 257 77 257 115 q 231 13 257 39 q 166 -14 204 -14 z "},"\"":{"ha":445,"x_min":34,"x_max":411,"o":"m 113 659 q 88 674 96 659 q 51 776 68 718 q 34 884 34 835 q 79 978 34 956 q 113 985 94 985 q 182 937 164 985 q 191 884 191 913 q 174 775 191 834 q 137 674 157 717 q 113 659 130 659 m 113 760 q 137 884 137 829 q 123 929 137 922 q 113 931 119 931 q 88 884 88 931 q 113 760 88 829 m 332 659 q 308 674 315 659 q 271 776 288 718 q 254 884 254 835 q 299 978 254 956 q 332 985 314 985 q 402 937 384 985 q 411 884 411 913 q 394 775 411 834 q 357 674 377 717 q 332 659 349 659 m 332 760 q 357 884 357 829 q 342 929 357 922 q 332 931 339 931 q 308 884 308 931 q 332 760 308 829 z "},"#":{"ha":757,"x_min":34,"x_max":723,"o":"m 592 0 l 397 0 q 378 8 386 0 q 370 27 370 16 q 378 46 370 38 q 397 54 386 54 l 422 54 l 445 285 l 271 285 l 249 54 l 269 54 q 288 46 279 54 q 296 27 296 38 q 288 8 296 16 q 269 0 279 0 l 74 0 q 54 8 62 0 q 46 27 46 16 q 54 46 46 38 q 74 54 62 54 l 99 54 l 121 285 l 61 285 q 42 293 50 285 q 34 312 34 300 q 42 331 34 323 q 61 339 50 339 l 127 339 l 157 646 l 96 646 q 77 654 85 646 q 69 673 69 662 q 77 692 69 684 q 96 701 85 701 l 162 701 l 184 931 l 165 931 q 145 939 153 931 q 138 958 138 947 q 145 977 138 969 q 165 985 153 985 l 359 985 q 379 977 371 985 q 387 958 387 969 q 379 939 387 947 q 359 931 371 931 l 334 931 l 312 701 l 486 701 l 508 931 l 488 931 q 469 939 477 931 q 461 958 461 947 q 469 977 461 969 q 488 985 477 985 l 683 985 q 702 977 694 985 q 710 958 710 969 q 702 939 710 947 q 683 931 694 931 l 658 931 l 635 701 l 696 701 q 715 692 707 701 q 723 673 723 684 q 715 654 723 662 q 696 646 707 646 l 630 646 l 600 339 l 661 339 q 680 331 672 339 q 688 312 688 323 q 680 293 688 300 q 661 285 672 285 l 595 285 l 572 54 l 592 54 q 611 46 604 54 q 619 27 619 38 q 611 8 619 16 q 592 0 604 0 m 194 54 l 280 931 l 239 931 l 153 54 l 194 54 m 450 339 l 480 646 l 307 646 l 277 339 l 450 339 m 517 54 l 604 931 l 563 931 l 477 54 l 517 54 z "},"$":{"ha":610,"x_min":34,"x_max":576,"o":"m 305 -124 q 286 -116 294 -124 q 278 -97 278 -109 l 278 -14 q 142 24 204 -10 q 38 128 75 59 q 35 141 35 135 q 49 165 35 157 q 61 168 55 168 q 85 154 77 168 q 249 44 158 44 q 278 50 256 44 l 278 447 q 241 472 260 460 q 142 545 189 507 q 64 630 95 583 q 34 744 34 678 q 113 931 34 858 q 278 997 173 987 l 278 1082 q 286 1101 278 1093 q 305 1109 294 1109 q 325 1101 317 1109 q 333 1082 333 1093 l 333 999 q 469 962 407 996 q 573 857 536 926 q 576 844 576 850 q 562 821 576 829 q 551 817 556 817 q 526 831 533 817 q 444 914 496 886 q 354 942 393 942 q 333 937 343 942 l 333 586 q 498 454 442 516 q 576 241 576 363 q 498 54 576 127 q 333 -12 438 -1 l 333 -97 q 325 -116 333 -109 q 305 -124 317 -124 m 413 63 q 462 95 441 75 q 522 241 522 151 q 451 423 522 345 q 380 487 418 458 q 297 545 341 516 q 209 608 248 576 q 150 672 172 637 q 127 753 127 707 q 208 926 127 852 q 149 890 173 913 q 89 744 89 834 q 115 653 89 692 q 183 581 142 614 q 272 517 225 548 q 373 444 326 482 q 451 357 420 406 q 481 241 481 309 q 413 63 481 132 m 333 70 q 381 108 361 85 q 427 241 427 161 q 401 333 427 294 q 333 406 374 373 l 333 70 m 278 623 l 278 912 q 231 873 252 897 q 196 819 209 849 q 182 753 182 788 q 209 684 182 715 q 278 623 236 652 z "},"%":{"ha":720,"x_min":34,"x_max":686,"o":"m 114 0 q 100 3 107 0 q 85 24 85 9 q 91 44 85 33 l 594 974 q 613 986 601 986 q 629 982 621 986 q 646 962 646 975 q 642 947 646 955 l 140 20 q 114 0 130 0 m 490 43 q 455 187 455 93 q 493 340 455 287 q 441 308 459 332 q 414 187 414 269 q 441 72 414 106 q 490 43 458 50 m 570 48 q 631 187 631 70 q 570 334 631 309 q 509 187 509 308 q 570 48 509 71 m 164 646 q 129 789 129 695 q 167 941 129 889 q 115 909 134 935 q 88 789 88 871 q 115 674 88 709 q 164 646 132 652 m 244 650 q 279 674 266 658 q 305 789 305 709 q 244 936 305 911 q 183 789 183 910 q 244 650 183 672 m 523 -14 q 359 187 359 -14 q 523 397 359 397 q 686 187 686 397 q 523 -14 686 -14 m 197 588 q 34 789 34 588 q 72 941 34 888 q 197 999 113 999 q 322 941 281 999 q 360 789 360 888 q 197 588 360 588 z "},"&":{"ha":786,"x_min":34,"x_max":752,"o":"m 366 -14 q 132 64 223 -14 q 34 272 34 148 q 74 439 34 371 q 157 548 109 498 q 104 747 104 648 q 131 873 104 814 q 214 966 158 932 q 341 999 265 999 q 502 943 437 999 q 567 798 567 888 q 540 688 567 734 q 470 606 513 642 q 348 515 422 566 q 399 431 371 473 q 619 153 496 280 q 676 293 676 222 q 684 312 676 304 q 703 320 692 320 q 723 312 715 320 q 731 293 731 304 q 658 115 731 200 q 742 39 701 73 q 752 19 752 31 q 745 1 752 9 q 732 -8 739 -8 q 724 -9 726 -9 q 618 77 707 -9 l 616 75 q 504 11 568 35 q 366 -14 440 -14 m 409 45 q 580 115 512 59 q 304 482 410 292 q 224 394 255 444 q 193 273 193 344 q 251 128 193 188 q 409 45 317 62 m 245 60 q 136 273 136 142 q 177 426 136 365 q 279 532 218 487 q 207 783 207 675 q 247 916 207 853 q 256 927 251 922 q 180 850 204 904 q 159 747 159 803 q 214 557 159 653 q 217 545 217 551 q 210 525 217 532 q 123 414 157 473 q 90 272 90 356 q 166 106 90 173 q 245 60 199 77 m 323 564 q 427 641 398 617 q 489 710 465 672 q 513 798 513 748 q 467 903 513 864 q 364 943 419 943 q 293 885 329 943 q 262 783 262 835 q 323 564 262 692 z "},"'":{"ha":225,"x_min":34,"x_max":191,"o":"m 113 659 q 88 674 96 659 q 51 776 68 718 q 34 884 34 835 q 79 978 34 956 q 113 985 94 985 q 182 937 164 985 q 191 884 191 913 q 174 775 191 834 q 137 674 157 717 q 113 659 130 659 m 113 760 q 137 884 137 829 q 123 929 137 922 q 113 931 119 931 q 88 884 88 931 q 113 760 88 829 z "},"(":{"ha":410,"x_min":34,"x_max":376,"o":"m 223 37 q 130 492 130 233 q 224 951 130 755 q 106 686 137 846 q 88 501 88 595 q 161 135 88 290 q 223 37 187 82 m 349 -124 q 337 -121 343 -124 q 112 112 189 -50 q 34 501 34 277 q 113 878 34 717 q 336 1106 189 1034 q 349 1109 342 1109 q 368 1101 361 1109 q 376 1082 376 1092 q 366 1062 376 1070 q 236 832 286 988 q 185 492 185 677 q 236 151 185 308 q 366 -76 286 -2 q 376 -97 376 -85 q 373 -109 376 -102 q 349 -124 366 -124 z "},")":{"ha":410,"x_min":34,"x_max":376,"o":"m 187 37 q 248 135 223 82 q 321 501 321 290 q 304 686 321 595 q 186 951 273 846 q 281 492 281 755 q 187 37 281 233 m 60 -124 q 37 -109 44 -124 q 34 -97 34 -102 q 43 -76 34 -85 q 174 151 123 -2 q 224 492 224 308 q 174 832 224 677 q 43 1062 123 988 q 34 1082 34 1070 q 41 1101 34 1092 q 61 1109 49 1109 q 74 1106 68 1109 q 297 878 220 1034 q 376 501 376 717 q 298 112 376 277 q 73 -121 221 -50 q 60 -124 66 -124 z "},"*":{"ha":354,"x_min":34,"x_max":320,"o":"m 248 710 q 227 722 236 710 l 177 789 l 127 721 q 106 710 119 710 q 88 717 98 710 q 78 738 78 724 q 83 753 78 745 l 133 821 l 53 848 q 34 873 34 854 q 47 897 34 890 q 60 901 54 901 q 150 873 66 901 l 150 958 q 158 977 150 969 q 177 985 165 985 q 196 977 189 985 q 204 958 204 969 l 204 873 q 294 901 290 901 q 319 882 311 901 q 320 873 320 877 q 301 848 320 854 l 221 821 l 271 753 q 276 738 276 746 q 264 715 276 724 q 248 710 256 710 z "},"+":{"ha":460,"x_min":34,"x_max":426,"o":"m 257 523 l 399 523 q 418 515 410 523 q 426 495 426 507 q 418 476 426 484 q 399 468 410 468 l 257 468 l 257 327 q 249 308 257 315 q 230 300 241 300 q 211 308 218 300 q 203 327 203 315 l 203 468 l 61 468 q 42 476 50 468 q 34 495 34 484 q 42 515 34 507 q 61 523 50 523 l 203 523 l 203 664 q 211 683 203 675 q 230 691 218 691 q 249 683 241 691 q 257 664 257 675 l 257 523 z "},",":{"ha":318,"x_min":68,"x_max":250,"o":"m 123 -130 q 98 -115 106 -130 q 96 -103 96 -109 q 112 -79 96 -86 q 181 -11 167 -54 q 159 -14 170 -14 q 95 13 121 -14 q 68 77 68 39 q 95 141 68 115 q 159 168 121 168 q 223 141 197 168 q 250 77 250 115 q 224 -47 250 4 q 134 -128 197 -100 q 123 -130 128 -130 m 159 41 q 178 46 170 41 q 195 77 195 57 q 185 103 195 92 q 159 114 174 114 q 133 103 144 114 q 123 77 123 92 q 133 51 123 62 q 159 41 144 41 z "},"-":{"ha":338,"x_min":34,"x_max":304,"o":"m 276 300 l 62 300 q 42 309 50 300 q 34 328 34 317 q 42 347 34 339 q 62 355 50 355 l 276 355 q 296 347 288 355 q 304 328 304 339 q 296 309 304 317 q 276 300 288 300 z "},".":{"ha":317,"x_min":68,"x_max":250,"o":"m 159 41 q 184 51 174 41 q 195 77 195 62 q 184 103 195 92 q 159 114 174 114 q 133 103 144 114 q 122 77 122 92 q 133 51 122 62 q 159 41 144 41 m 159 -14 q 95 13 121 -14 q 68 77 68 39 q 95 141 68 115 q 159 168 121 168 q 223 141 197 168 q 250 77 250 115 q 223 13 250 39 q 159 -14 197 -14 z "},"/":{"ha":326,"x_min":34,"x_max":292,"o":"m 58 0 q 34 28 34 0 l 238 959 q 268 985 244 985 q 292 958 292 985 l 87 26 q 58 0 81 0 z "},":":{"ha":317,"x_min":68,"x_max":250,"o":"m 159 41 q 184 51 174 41 q 195 77 195 62 q 184 103 195 92 q 159 114 174 114 q 133 103 144 114 q 122 77 122 92 q 133 51 122 62 q 159 41 144 41 m 159 -14 q 95 13 121 -14 q 68 77 68 39 q 95 141 68 115 q 159 168 121 168 q 223 141 197 168 q 250 77 250 115 q 223 13 250 39 q 159 -14 197 -14 m 159 528 q 184 539 174 528 q 195 565 195 549 q 184 591 195 580 q 159 602 174 602 q 133 591 144 602 q 122 565 122 580 q 133 539 122 549 q 159 528 144 528 m 159 474 q 95 500 121 474 q 68 565 68 527 q 95 629 68 602 q 159 656 121 656 q 223 629 197 656 q 250 565 250 602 q 223 500 250 527 q 159 474 197 474 z "},";":{"ha":318,"x_min":68,"x_max":250,"o":"m 123 -130 q 98 -115 106 -130 q 96 -103 96 -109 q 112 -79 96 -86 q 181 -11 167 -54 q 159 -14 170 -14 q 95 13 121 -14 q 68 77 68 39 q 95 141 68 115 q 159 168 121 168 q 223 141 197 168 q 250 77 250 115 q 224 -47 250 4 q 134 -128 197 -100 q 123 -130 128 -130 m 159 41 q 178 46 170 41 q 195 77 195 57 q 185 103 195 92 q 159 114 174 114 q 133 103 144 114 q 123 77 123 92 q 133 51 123 62 q 159 41 144 41 m 159 528 q 184 539 174 528 q 195 565 195 549 q 184 591 195 580 q 159 602 174 602 q 133 591 144 602 q 122 565 122 580 q 133 539 122 549 q 159 528 144 528 m 159 474 q 95 500 121 474 q 68 565 68 527 q 95 629 68 602 q 159 656 121 656 q 223 629 197 656 q 250 565 250 602 q 223 500 250 527 q 159 474 197 474 z "},"<":{"ha":460,"x_min":34,"x_max":426,"o":"m 399 359 q 53 470 394 359 q 34 496 34 476 q 53 521 34 515 q 390 631 222 576 q 399 632 394 632 q 425 613 417 632 q 426 605 426 610 q 407 580 426 586 l 149 495 l 407 411 q 426 386 426 405 q 425 378 426 381 q 399 359 418 359 z "},"=":{"ha":460,"x_min":34,"x_max":426,"o":"m 399 399 l 61 399 q 42 407 50 399 q 34 427 34 415 q 42 446 34 437 q 61 454 50 454 l 399 454 q 418 446 410 454 q 426 427 426 437 q 418 407 426 415 q 399 399 410 399 m 399 537 l 61 537 q 42 545 50 537 q 34 564 34 553 q 42 584 34 576 q 61 591 50 591 l 399 591 q 418 584 410 591 q 426 564 426 576 q 418 545 426 553 q 399 537 410 537 z "},">":{"ha":460,"x_min":34,"x_max":426,"o":"m 60 359 q 35 378 42 359 q 34 386 34 381 q 53 411 34 405 l 311 495 l 53 580 q 34 605 34 586 q 35 613 34 610 q 60 632 43 632 q 70 631 66 632 q 407 521 238 576 q 426 496 426 515 q 407 470 426 476 q 60 359 66 359 z "},"?":{"ha":537,"x_min":34,"x_max":503,"o":"m 330 237 l 163 237 q 144 244 153 237 q 136 264 136 252 q 144 283 136 275 q 163 291 153 291 l 179 291 q 176 416 176 382 q 200 506 176 465 q 260 589 225 547 q 304 647 283 616 q 340 712 326 677 q 354 787 354 747 q 318 888 354 845 q 235 940 275 940 q 85 843 140 940 q 61 829 77 829 q 48 832 55 829 q 34 855 34 840 q 37 869 34 862 q 128 964 72 931 q 257 999 189 999 q 487 859 434 999 q 503 764 503 814 q 487 667 503 709 q 445 591 470 625 q 394 527 420 557 q 345 464 366 495 q 321 395 323 432 l 315 291 l 330 291 q 350 283 342 291 q 357 264 357 275 q 350 244 357 252 q 330 237 342 237 m 261 291 l 267 397 q 295 487 270 448 q 353 562 319 526 q 398 618 376 589 q 434 683 420 648 q 448 764 448 719 q 397 897 448 848 q 360 922 382 911 q 408 787 408 863 q 392 696 408 737 q 352 621 376 656 q 302 555 328 586 q 251 485 273 519 q 230 415 230 450 q 233 291 230 385 l 261 291 m 254 41 q 280 51 269 41 q 291 77 291 62 q 280 103 291 92 q 254 114 269 114 q 229 103 239 114 q 218 77 218 92 q 229 51 218 62 q 254 41 239 41 m 254 -14 q 190 13 217 -14 q 163 77 163 39 q 190 141 163 115 q 254 168 217 168 q 319 141 292 168 q 345 77 345 115 q 319 13 345 39 q 254 -14 292 -14 z "},"@":{"ha":1099,"x_min":34,"x_max":1065,"o":"m 563 -216 q 163 -87 293 -216 q 34 309 34 41 q 563 859 34 859 q 1065 413 1065 859 q 1004 102 1065 210 q 809 -14 939 -14 q 684 150 715 -14 q 666 282 673 205 q 523 25 602 77 q 440 0 485 0 q 309 96 359 0 q 258 327 258 191 q 341 598 258 504 q 476 656 391 656 q 655 588 570 656 l 655 629 q 663 648 655 640 q 682 656 671 656 l 826 656 q 845 648 837 656 q 853 629 853 640 q 845 610 853 618 q 826 602 837 602 l 805 602 q 828 230 806 372 q 876 54 847 102 q 1010 413 1010 109 q 911 700 1010 604 q 563 804 802 804 q 202 681 315 804 q 89 309 89 558 q 202 -49 89 63 q 563 -161 315 -161 q 714 -148 657 -161 q 779 -134 772 -134 q 806 -153 800 -134 q 807 -162 807 -158 q 787 -187 807 -181 q 563 -216 692 -216 m 821 41 q 750 602 753 181 l 709 602 q 736 161 709 297 q 809 41 760 41 l 821 41 m 492 70 q 547 133 520 88 q 645 458 599 221 l 656 515 q 513 598 581 587 q 458 543 479 581 q 408 335 408 456 q 448 129 408 217 q 492 70 467 90 m 431 55 q 399 105 413 77 q 353 336 353 205 q 412 572 353 471 q 425 593 418 583 q 326 445 352 560 q 313 327 313 388 q 326 209 313 266 q 366 104 339 146 q 431 55 393 62 z "},"A":{"ha":687,"x_min":7,"x_max":681,"o":"m 653 0 l 534 0 q 515 8 524 0 q 507 27 507 16 q 515 46 507 38 q 534 54 524 54 l 567 54 q 526 553 564 347 l 245 553 q 203 54 207 356 l 229 54 q 248 46 240 54 q 256 27 256 38 q 248 8 256 16 q 229 0 240 0 l 34 0 q 15 8 22 0 q 7 27 7 16 q 15 46 7 38 q 34 54 22 54 l 54 54 q 217 916 62 721 q 334 985 272 985 q 547 701 465 985 q 621 54 616 461 l 653 54 q 673 46 665 54 q 681 27 681 38 q 673 8 681 16 q 653 0 665 0 m 149 54 q 201 614 153 401 q 335 931 256 850 q 250 871 292 931 q 109 54 116 678 l 149 54 m 515 608 q 389 907 466 836 q 256 608 313 848 l 515 608 z "},"B":{"ha":662,"x_min":43,"x_max":644,"o":"m 267 0 l 71 0 q 52 8 60 0 q 43 27 43 16 q 52 46 43 38 q 71 54 60 54 l 94 54 l 94 931 l 71 931 q 52 939 60 931 q 43 958 43 947 q 52 977 43 969 q 71 985 60 985 l 265 985 q 500 936 417 985 q 593 782 593 881 q 481 622 593 684 q 418 595 453 606 q 528 542 482 574 q 644 304 644 456 q 538 79 644 164 q 267 0 439 0 m 243 59 q 368 96 311 67 q 459 175 425 124 q 494 304 494 227 q 422 486 494 410 q 243 567 351 561 l 243 59 m 189 54 l 189 930 l 148 931 l 148 54 l 189 54 m 460 94 q 568 203 536 132 q 589 304 589 250 q 459 520 589 453 q 549 304 549 439 q 460 94 549 172 m 446 664 q 538 782 538 709 q 452 900 538 861 q 497 782 497 853 q 446 664 497 713 m 243 622 q 331 645 285 624 q 410 701 377 665 q 443 782 443 736 q 378 889 443 852 q 243 927 325 919 l 243 622 z "},"C":{"ha":591,"x_min":23,"x_max":589,"o":"m 340 -14 q 23 494 23 -14 q 340 999 23 999 q 585 857 507 999 q 589 844 589 850 q 575 821 589 828 q 562 817 568 817 q 538 831 546 817 q 366 940 466 940 q 229 819 283 940 q 173 495 173 705 q 230 165 173 279 q 366 45 292 45 q 538 154 470 45 q 562 168 547 168 q 575 165 569 168 q 589 141 589 157 q 585 127 589 134 q 340 -14 507 -14 m 239 60 q 119 495 119 178 q 239 924 119 806 q 77 492 77 852 q 239 60 77 134 z "},"D":{"ha":688,"x_min":43,"x_max":652,"o":"m 189 54 l 189 931 l 148 931 l 148 54 l 189 54 m 243 62 q 479 311 421 104 q 503 481 503 393 q 480 663 503 577 q 243 923 422 879 l 243 62 m 267 0 l 71 0 q 52 8 60 0 q 43 27 43 16 q 52 46 43 38 q 71 54 60 54 l 94 54 l 94 931 l 71 931 q 52 939 60 931 q 43 958 43 947 q 52 977 43 969 q 71 985 60 985 l 265 985 q 430 948 359 985 q 627 680 575 871 q 652 481 652 585 q 626 294 652 385 q 546 133 600 203 q 267 0 443 0 m 408 86 q 575 311 529 150 q 598 481 598 393 q 575 663 598 577 q 405 899 530 834 q 532 680 494 819 q 557 481 557 585 q 531 294 557 385 q 408 86 494 164 z "},"E":{"ha":592,"x_min":44,"x_max":572,"o":"m 545 0 l 71 0 q 52 8 60 0 q 44 27 44 16 q 52 46 44 38 q 71 54 60 54 l 94 54 l 94 931 l 71 931 q 52 939 60 931 q 44 958 44 947 q 52 977 44 969 q 71 985 60 985 l 545 985 q 564 977 556 985 q 572 958 572 969 l 572 878 q 564 858 572 866 q 545 850 556 850 q 526 858 534 850 q 517 878 517 866 l 517 931 l 243 931 l 243 608 l 451 608 q 459 630 451 622 q 478 637 467 637 q 497 630 490 637 q 505 610 505 622 l 505 551 q 497 532 505 540 q 478 524 490 524 q 459 532 467 524 q 451 553 451 540 l 243 553 l 243 54 l 517 54 l 517 107 q 526 127 517 119 q 545 135 534 135 q 564 127 556 135 q 572 107 572 119 l 572 27 q 564 8 572 16 q 545 0 556 0 m 189 54 l 189 931 l 148 931 l 148 54 l 189 54 z "},"F":{"ha":562,"x_min":43,"x_max":572,"o":"m 265 0 l 71 0 q 52 8 60 0 q 43 27 43 16 q 52 46 43 38 q 71 54 60 54 l 93 54 l 93 931 l 71 931 q 52 939 60 931 q 43 958 43 947 q 52 977 43 969 q 71 985 60 985 l 545 985 q 564 977 555 985 q 572 958 572 969 l 572 878 q 564 858 572 866 q 545 850 555 850 q 525 858 533 850 q 517 878 517 866 l 517 931 l 243 931 l 243 608 l 450 608 q 458 630 450 622 q 477 637 467 637 q 497 630 489 637 q 505 610 505 622 l 505 551 q 497 532 505 540 q 477 524 489 524 q 458 532 467 524 q 450 553 450 540 l 243 553 l 243 54 l 265 54 q 284 46 277 54 q 292 27 292 38 q 284 8 292 16 q 265 0 277 0 m 189 54 l 189 931 l 148 931 l 148 54 l 189 54 z "},"G":{"ha":652,"x_min":24,"x_max":626,"o":"m 340 -14 q 24 490 24 -14 l 24 498 q 340 999 24 999 q 586 858 507 999 q 589 845 589 852 q 575 821 589 829 q 563 817 569 817 q 538 831 546 817 q 376 941 480 941 q 266 873 324 941 q 173 496 173 766 q 261 121 173 231 q 382 45 323 45 q 497 118 448 45 q 571 463 566 219 l 364 463 q 356 441 364 449 q 336 433 348 433 q 317 441 326 433 q 309 460 309 449 l 309 519 q 317 538 309 530 q 336 547 326 547 q 356 538 348 547 q 364 517 364 530 l 599 517 q 618 509 610 517 q 626 490 626 501 q 534 73 626 188 q 406 -7 480 7 q 340 -14 372 -14 m 239 61 q 119 496 119 180 q 239 925 119 807 q 78 498 78 852 q 239 61 78 132 z "},"H":{"ha":721,"x_min":43,"x_max":680,"o":"m 652 0 l 534 0 q 514 8 522 0 q 507 27 507 16 q 514 46 507 38 q 534 54 522 54 l 566 54 l 566 553 l 243 553 l 243 54 l 266 54 q 285 46 277 54 q 293 27 293 38 q 285 8 293 16 q 266 0 277 0 l 71 0 q 52 8 60 0 q 43 27 43 16 q 52 46 43 38 q 71 54 60 54 l 94 54 l 94 931 l 71 931 q 52 939 60 931 q 43 958 43 947 q 52 977 43 969 q 71 985 60 985 l 266 985 q 285 977 277 985 q 293 958 293 969 q 285 939 293 947 q 266 931 277 931 l 243 931 l 243 608 l 566 608 l 566 931 l 534 931 q 514 939 522 931 q 507 958 507 947 q 514 977 507 969 q 534 985 522 985 l 652 985 q 671 977 663 985 q 680 958 680 969 q 671 939 680 947 q 652 931 663 931 l 620 931 l 620 54 l 652 54 q 671 46 663 54 q 680 27 680 38 q 671 8 680 16 q 652 0 663 0 m 189 54 l 189 931 l 148 931 l 148 54 l 189 54 z "},"I":{"ha":338,"x_min":43,"x_max":293,"o":"m 265 0 l 71 0 q 52 8 60 0 q 43 27 43 16 q 52 46 43 38 q 71 54 60 54 l 93 54 l 93 931 l 71 931 q 52 939 60 931 q 43 958 43 947 q 52 977 43 969 q 71 985 60 985 l 265 985 q 285 977 277 985 q 293 958 293 969 q 285 939 293 947 q 265 931 277 931 l 243 931 l 243 54 l 265 54 q 285 46 277 54 q 293 27 293 38 q 285 8 293 16 q 265 0 277 0 m 189 54 l 189 931 l 148 931 l 148 54 l 189 54 z "},"J":{"ha":520,"x_min":-18,"x_max":489,"o":"m 214 -14 q 66 46 133 -14 q -7 158 18 90 q -18 201 -18 189 q -13 216 -18 208 q 10 227 -5 227 q 36 205 31 227 q 103 86 54 131 q 163 50 131 61 q 252 128 216 66 q 290 300 290 195 l 290 931 l 267 931 q 248 939 256 931 q 240 958 240 947 q 248 977 240 969 q 267 985 256 985 l 462 985 q 481 977 473 985 q 489 958 489 969 q 481 939 489 947 q 462 931 473 931 l 439 931 l 439 300 q 424 172 439 227 q 380 77 408 117 q 305 9 349 32 q 214 -14 262 -14 m 260 48 q 336 109 304 64 q 385 300 385 178 l 385 931 l 345 931 l 345 300 q 332 189 345 238 q 260 48 311 100 z "},"K":{"ha":693,"x_min":43,"x_max":685,"o":"m 658 0 l 463 0 q 444 8 452 0 q 435 27 435 16 q 444 46 435 38 q 463 54 452 54 l 481 54 l 481 59 q 435 361 481 231 q 262 553 385 498 l 243 547 l 243 54 l 266 54 q 285 46 277 54 q 293 27 293 38 q 285 8 293 16 q 266 0 277 0 l 71 0 q 52 8 60 0 q 43 27 43 16 q 52 46 43 38 q 71 54 60 54 l 94 54 l 94 931 l 71 931 q 52 939 60 931 q 43 958 43 947 q 52 977 43 969 q 71 985 60 985 l 266 985 q 285 977 277 985 q 293 958 293 969 q 285 939 293 947 q 266 931 277 931 l 243 931 l 243 604 q 447 736 375 653 q 538 931 528 831 l 512 931 q 493 939 501 931 q 485 958 485 947 q 493 977 485 969 q 512 985 501 985 l 631 985 q 650 977 642 985 q 659 958 659 969 q 650 939 659 947 q 631 931 642 931 l 593 931 q 486 700 583 811 q 374 606 441 648 q 572 405 515 543 q 631 54 630 267 l 658 54 q 677 46 669 54 q 685 27 685 38 q 677 8 685 16 q 658 0 669 0 m 577 54 q 522 384 575 259 q 378 543 478 488 q 486 380 450 477 q 536 54 536 237 l 577 54 m 189 54 l 189 931 l 148 931 l 148 54 l 189 54 z "},"L":{"ha":490,"x_min":43,"x_max":491,"o":"m 463 0 l 71 0 q 52 8 60 0 q 43 27 43 16 q 52 46 43 38 q 71 54 60 54 l 94 54 l 94 931 l 71 931 q 52 939 60 931 q 43 958 43 947 q 52 977 43 969 q 71 985 60 985 l 266 985 q 285 977 277 985 q 293 958 293 969 q 285 939 293 947 q 266 931 277 931 l 243 931 l 243 54 l 436 54 l 436 107 q 444 127 436 119 q 463 135 452 135 q 483 127 475 135 q 491 107 491 119 l 491 27 q 483 8 491 16 q 463 0 475 0 m 189 54 l 189 931 l 148 931 l 148 54 l 189 54 z "},"M":{"ha":902,"x_min":43,"x_max":857,"o":"m 829 0 l 710 0 q 691 8 699 0 q 683 27 683 16 q 691 46 683 38 q 710 54 699 54 l 743 54 l 743 869 l 540 582 q 574 555 574 582 q 566 535 574 543 q 547 527 557 527 l 428 527 q 408 535 416 527 q 400 555 400 543 q 408 574 400 566 q 428 582 416 582 l 436 582 l 243 869 l 243 54 l 265 54 q 284 46 277 54 q 292 27 292 38 q 284 8 292 16 q 265 0 277 0 l 71 0 q 52 8 60 0 q 43 27 43 16 q 52 46 43 38 q 71 54 60 54 l 93 54 l 93 931 l 71 931 q 52 939 60 931 q 43 958 43 947 q 52 977 43 969 q 71 985 60 985 l 265 985 q 284 977 277 985 q 292 958 292 969 q 285 940 292 947 q 267 931 278 932 l 488 602 l 720 931 l 710 931 q 691 939 699 931 q 683 958 683 947 q 691 977 683 969 q 710 985 699 985 l 829 985 q 848 977 840 985 q 857 958 857 969 q 848 939 857 947 q 829 931 840 931 l 797 931 l 797 54 l 829 54 q 848 46 840 54 q 857 27 857 38 q 848 8 857 16 q 829 0 840 0 m 189 54 l 189 931 l 148 931 l 148 54 l 189 54 z "},"N":{"ha":721,"x_min":44,"x_max":680,"o":"m 652 0 l 534 0 q 514 8 522 0 q 507 27 507 16 q 514 46 507 38 q 534 54 522 54 l 559 54 q 411 519 499 309 q 243 859 336 697 l 243 54 l 266 54 q 285 46 277 54 q 293 27 293 38 q 285 8 293 16 q 266 0 277 0 l 71 0 q 52 8 60 0 q 44 27 44 16 q 52 46 44 38 q 71 54 60 54 l 94 54 l 94 931 l 71 931 q 52 939 60 931 q 44 958 44 947 q 52 977 44 969 q 71 985 60 985 l 266 985 q 285 977 277 985 q 293 958 293 969 q 285 939 293 947 q 264 931 277 931 q 566 243 460 602 l 566 931 l 534 931 q 514 939 522 931 q 507 958 507 947 q 514 977 507 969 q 534 985 522 985 l 652 985 q 672 977 664 985 q 680 958 680 969 q 672 939 680 947 q 652 931 664 931 l 621 931 l 621 54 l 652 54 q 672 46 664 54 q 680 27 680 38 q 672 8 680 16 q 652 0 664 0 m 189 54 l 189 931 l 148 931 l 148 54 l 189 54 z "},"O":{"ha":703,"x_min":24,"x_max":659,"o":"m 342 -14 q 99 112 177 -14 q 24 481 24 232 q 98 861 24 730 q 342 999 176 999 q 607 817 531 999 q 659 481 659 693 q 585 112 659 232 q 342 -14 506 -14 m 389 58 q 604 481 596 58 q 387 922 598 922 q 231 816 282 922 q 174 481 174 699 q 230 158 174 266 q 389 58 281 58 m 233 62 q 120 481 120 176 q 241 925 120 804 q 79 481 79 852 q 145 140 79 247 q 233 62 179 86 z "},"P":{"ha":564,"x_min":43,"x_max":593,"o":"m 243 623 q 456 669 378 626 q 538 782 538 715 q 473 889 538 850 q 266 931 403 931 l 243 931 l 243 623 m 266 0 l 71 0 q 52 8 60 0 q 43 27 43 16 q 52 46 43 38 q 71 54 60 54 l 94 54 l 94 931 l 71 931 q 52 939 60 931 q 43 958 43 947 q 52 977 43 969 q 71 985 60 985 l 266 985 q 500 936 417 985 q 593 782 593 881 q 482 623 593 684 q 243 568 389 572 l 243 54 l 266 54 q 285 46 277 54 q 293 27 293 38 q 285 8 293 16 q 266 0 277 0 m 189 54 l 189 931 l 148 931 l 148 54 l 189 54 z "},"Q":{"ha":706,"x_min":25,"x_max":659,"o":"m 233 62 q 121 481 121 176 q 242 925 121 804 q 79 481 79 852 q 146 140 79 247 q 233 62 179 86 m 397 47 q 418 50 408 47 q 428 132 420 84 q 439 242 439 205 q 424 287 439 277 q 406 291 417 291 q 336 271 379 291 q 324 269 330 269 q 300 284 308 269 q 298 295 298 290 q 313 319 298 312 q 406 346 367 346 q 452 334 431 346 q 483 299 472 323 q 494 242 494 276 q 482 125 494 205 l 475 75 q 604 481 604 157 q 388 922 598 922 q 231 816 283 922 q 175 481 175 699 q 230 159 175 266 q 397 47 285 52 m 519 -102 q 462 -88 486 -102 q 416 -7 421 -64 q 342 -14 382 -14 q 100 112 178 -14 q 25 481 25 232 q 98 861 25 730 q 342 999 176 999 q 608 817 532 999 q 659 481 659 693 q 585 112 659 232 q 470 10 541 41 l 470 9 q 475 -23 470 -11 q 491 -42 480 -36 q 519 -48 501 -48 q 592 -31 549 -48 q 603 -28 597 -28 q 616 -32 608 -28 q 630 -56 630 -38 q 613 -81 630 -74 q 519 -102 559 -102 z "},"R":{"ha":684,"x_min":43,"x_max":689,"o":"m 243 622 q 456 669 380 629 q 538 782 538 715 q 243 931 538 931 l 243 622 m 662 0 l 543 0 q 524 8 532 0 q 516 27 516 16 q 524 46 516 38 q 543 54 532 54 l 575 54 q 519 383 573 259 q 301 563 457 529 q 254 568 279 568 l 243 568 l 243 54 l 265 54 q 284 46 276 54 q 292 27 292 38 q 284 8 292 16 q 265 0 276 0 l 71 0 q 51 8 59 0 q 43 27 43 16 q 51 46 43 38 q 71 54 59 54 l 93 54 l 93 931 l 71 931 q 51 939 59 931 q 43 958 43 947 q 51 977 43 969 q 71 985 59 985 l 265 985 q 500 936 416 985 q 592 782 592 881 q 481 622 592 684 q 404 591 448 604 q 570 406 519 527 q 629 54 627 270 l 662 54 q 681 46 673 54 q 689 27 689 38 q 681 8 689 16 q 662 0 673 0 m 188 54 l 188 931 l 147 931 l 147 54 l 188 54 z "},"S":{"ha":589,"x_min":20,"x_max":563,"o":"m 279 -14 q 127 24 198 -14 q 24 128 62 59 q 20 140 20 134 q 35 165 20 157 q 47 168 41 168 q 71 154 63 168 q 241 59 123 59 q 367 108 324 59 q 413 241 413 161 q 386 334 413 294 q 317 408 359 374 q 228 472 275 441 q 128 545 175 507 q 51 630 81 583 q 20 744 20 678 q 99 930 20 857 q 304 999 173 999 q 456 961 385 999 q 559 857 522 926 q 563 844 563 850 q 548 821 563 829 q 536 817 542 817 q 512 831 519 817 q 338 928 458 928 q 219 874 270 928 q 168 753 168 819 q 189 692 168 720 q 244 638 210 664 q 318 587 278 612 q 405 526 361 558 q 484 454 448 494 q 541 362 519 414 q 563 241 563 310 q 484 55 563 127 q 279 -14 408 -14 m 399 63 q 448 95 428 75 q 509 241 509 151 q 437 423 509 345 q 288 541 389 476 q 202 602 241 572 q 138 669 163 633 q 114 753 114 705 q 194 926 114 852 q 135 890 159 913 q 75 744 75 834 q 101 653 75 692 q 170 581 128 613 q 258 517 212 548 q 359 444 311 482 q 437 357 406 406 q 468 241 468 309 q 399 63 468 132 z "},"T":{"ha":570,"x_min":12,"x_max":626,"o":"m 416 0 l 221 0 q 202 8 210 0 q 194 27 194 16 q 202 46 194 38 q 221 54 210 54 l 244 54 l 244 931 l 66 931 l 66 878 q 58 858 66 866 q 39 850 50 850 q 19 858 27 850 q 12 878 12 866 l 12 958 q 19 977 12 969 q 39 985 27 985 l 599 985 q 618 977 610 985 q 626 958 626 969 l 626 878 q 618 858 626 866 q 599 850 610 850 q 579 858 587 850 q 572 878 572 866 l 572 931 l 393 931 l 393 54 l 416 54 q 435 46 427 54 q 444 27 444 38 q 435 8 444 16 q 416 0 427 0 m 339 54 l 339 931 l 298 931 l 298 54 l 339 54 z "},"U":{"ha":774,"x_min":30,"x_max":753,"o":"m 387 -14 q 151 113 227 -14 q 79 482 79 232 l 79 931 l 57 931 q 38 939 45 931 q 30 958 30 947 q 38 977 30 969 q 57 985 45 985 l 252 985 q 271 977 263 985 q 279 958 279 969 q 271 939 279 947 q 252 931 263 931 l 229 931 l 229 482 q 283 159 229 267 q 435 60 333 60 q 640 482 640 60 l 640 931 l 608 931 q 588 939 596 931 q 581 958 581 947 q 588 977 581 969 q 608 985 596 985 l 726 985 q 746 977 738 985 q 753 958 753 969 q 746 939 753 947 q 726 931 738 931 l 694 931 l 694 482 q 623 113 694 232 q 387 -14 547 -14 m 287 59 q 174 482 174 173 l 174 931 l 134 931 l 134 482 q 197 140 134 247 q 287 59 232 83 z "},"V":{"ha":683,"x_min":15,"x_max":688,"o":"m 342 -14 q 225 57 280 -14 q 62 931 71 258 l 42 931 q 23 939 31 931 q 15 958 15 947 q 23 977 15 969 q 42 985 31 985 l 237 985 q 256 977 248 985 q 264 958 264 969 q 256 939 264 947 q 237 931 248 931 l 212 931 q 263 383 216 591 q 396 77 319 137 l 403 72 q 503 290 459 132 q 574 931 570 528 l 543 931 q 523 939 531 931 q 515 958 515 947 q 523 977 515 969 q 543 985 531 985 l 661 985 q 681 977 673 985 q 688 958 688 969 q 681 939 688 947 q 661 931 673 931 l 629 931 q 555 275 624 522 q 462 61 517 136 q 342 -14 408 -14 m 342 41 q 355 42 349 41 q 210 372 269 117 q 157 931 161 585 l 117 931 q 258 102 123 302 q 342 41 300 41 z "},"W":{"ha":950,"x_min":18,"x_max":951,"o":"m 292 41 q 309 47 301 41 q 203 375 246 128 q 163 931 167 587 l 123 931 q 233 103 129 319 q 292 41 264 41 m 663 -14 q 477 565 531 -14 q 439 268 460 393 q 292 -14 389 -14 q 199 60 243 -14 q 68 931 75 264 l 45 931 q 26 939 35 931 q 18 958 18 947 q 26 977 18 969 q 45 985 35 985 l 240 985 q 260 977 252 985 q 268 958 268 969 q 260 939 268 947 q 240 931 252 931 l 218 931 q 257 384 221 591 q 340 98 292 176 q 451 931 412 284 l 430 931 q 411 939 419 931 q 403 958 403 947 q 411 977 403 969 q 430 985 419 985 l 625 985 q 644 977 636 985 q 652 958 652 969 q 644 939 652 947 q 625 931 636 931 l 604 931 q 652 368 617 589 q 721 101 681 180 q 781 297 753 168 q 837 931 833 536 l 805 931 q 786 939 793 931 q 778 958 778 947 q 786 977 778 969 q 805 985 793 985 l 924 985 q 943 977 935 985 q 951 958 951 969 q 943 939 951 947 q 924 931 935 931 l 891 931 q 833 286 887 530 q 758 64 802 142 q 663 -14 714 -14 m 663 41 q 687 52 675 41 q 598 360 633 135 q 549 931 563 585 l 508 931 q 572 269 525 511 q 663 41 615 41 z "},"X":{"ha":687,"x_min":1,"x_max":696,"o":"m 669 0 l 475 0 q 455 8 463 0 q 448 27 448 16 q 455 46 448 38 q 475 54 463 54 l 486 54 l 320 400 l 129 54 l 147 54 q 166 46 159 54 q 174 27 174 38 q 166 8 174 16 q 147 0 159 0 l 28 0 q 9 8 17 0 q 1 27 1 16 q 9 46 1 38 q 28 54 17 54 l 66 54 l 292 460 l 67 931 l 48 931 q 29 939 37 931 q 21 958 21 947 q 29 977 21 969 q 48 985 37 985 l 243 985 q 262 977 254 985 q 270 958 270 969 q 262 939 270 947 q 243 931 254 931 l 233 931 l 380 621 l 551 931 l 528 931 q 508 939 516 931 q 500 958 500 947 q 508 977 500 969 q 528 985 516 985 l 646 985 q 665 977 657 985 q 673 958 673 969 q 665 939 673 947 q 646 931 657 931 l 614 931 l 409 560 l 650 54 l 669 54 q 688 46 680 54 q 696 27 696 38 q 688 8 696 16 q 669 0 680 0 m 590 54 l 172 931 l 127 931 l 546 54 l 590 54 z "},"Y":{"ha":650,"x_min":-5,"x_max":692,"o":"m 436 0 l 241 0 q 222 8 230 0 q 214 27 214 16 q 222 46 214 38 q 241 54 230 54 l 264 54 l 264 441 q 117 606 169 478 q 58 931 63 739 l 22 931 q 3 939 11 931 q -5 958 -5 947 q 3 977 -5 969 q 22 985 11 985 l 217 985 q 236 977 228 985 q 244 958 244 969 q 236 939 244 947 q 217 931 228 931 l 208 931 q 252 651 210 746 q 391 556 295 556 q 531 652 487 556 q 578 931 576 749 l 546 931 q 526 939 534 931 q 518 958 518 947 q 526 977 518 969 q 546 985 534 985 l 665 985 q 684 977 675 985 q 692 958 692 969 q 684 939 692 947 q 665 931 675 931 l 632 931 q 580 629 630 737 q 416 492 528 518 l 414 54 l 436 54 q 455 46 447 54 q 463 27 463 38 q 455 8 463 16 q 436 0 447 0 m 359 54 l 362 493 q 203 629 253 520 q 154 931 155 734 l 113 931 q 167 627 117 749 q 297 488 215 509 q 312 478 307 486 q 318 461 318 471 l 318 54 l 359 54 z "},"Z":{"ha":589,"x_min":26,"x_max":576,"o":"m 549 0 l 54 0 q 35 8 43 0 q 26 27 26 16 q 35 46 26 38 q 54 54 43 54 l 71 54 l 371 931 l 81 931 l 81 878 q 73 858 81 866 q 54 850 65 850 q 35 858 43 850 q 26 878 26 866 l 26 958 q 35 977 26 969 q 54 985 43 985 l 549 985 q 569 977 561 985 q 576 958 576 969 q 569 939 576 947 q 549 931 561 931 l 530 931 l 230 54 l 522 54 l 522 107 q 530 126 522 119 q 549 134 538 134 q 569 126 561 134 q 576 107 576 119 l 576 27 q 569 8 576 16 q 549 0 561 0 m 172 54 l 473 931 l 428 931 l 128 54 l 172 54 z "},"[":{"ha":288,"x_min":34,"x_max":254,"o":"m 227 -124 l 61 -124 q 42 -116 50 -124 q 34 -97 34 -109 l 34 1082 q 42 1101 34 1093 q 61 1109 50 1109 l 227 1109 q 246 1101 238 1109 q 254 1082 254 1093 q 246 1063 254 1071 q 227 1055 238 1055 l 183 1055 l 183 -70 l 227 -70 q 246 -78 238 -70 q 254 -97 254 -85 q 246 -116 254 -108 q 227 -124 238 -124 m 129 -70 l 129 1055 l 88 1055 l 88 -70 l 129 -70 z "},"\\":{"ha":326,"x_min":34,"x_max":292,"o":"m 268 0 q 238 26 244 0 l 34 958 q 58 985 34 985 q 87 959 81 985 l 292 28 q 268 0 292 0 z "},"]":{"ha":288,"x_min":34,"x_max":254,"o":"m 61 -124 q 42 -116 50 -124 q 34 -97 34 -108 q 42 -78 34 -85 q 61 -70 50 -70 l 104 -70 l 104 1055 l 61 1055 q 42 1063 50 1055 q 34 1082 34 1071 q 42 1101 34 1093 q 61 1109 50 1109 l 227 1109 q 246 1101 238 1109 q 254 1082 254 1093 l 254 -97 q 246 -116 254 -109 q 227 -124 238 -124 l 61 -124 m 159 -70 l 200 -70 l 200 1055 l 159 1055 l 159 -70 z "},"^":{"ha":264,"x_min":34,"x_max":230,"o":"m 203 708 q 178 727 184 708 l 132 869 l 86 727 q 61 708 80 708 q 38 721 45 708 q 34 734 34 728 q 106 966 34 739 q 132 985 112 985 q 157 966 151 985 q 230 734 230 739 q 211 709 230 717 q 203 708 208 708 z "},"_":{"ha":460,"x_min":34,"x_max":426,"o":"m 399 -122 l 61 -122 q 42 -114 50 -122 q 34 -95 34 -106 q 42 -76 34 -84 q 61 -68 50 -68 l 399 -68 q 418 -76 410 -68 q 426 -95 426 -84 q 418 -114 426 -106 q 399 -122 410 -122 z "},"`":{"ha":216,"x_min":34,"x_max":182,"o":"m 154 712 q 136 720 144 712 l 42 807 q 34 826 34 815 q 41 846 34 838 q 60 854 49 854 q 79 847 72 854 l 174 759 q 182 738 182 751 q 174 720 182 728 q 154 712 167 712 z "},"a":{"ha":684,"x_min":22,"x_max":682,"o":"m 562 -14 q 485 27 514 -14 q 441 155 456 69 q 427 277 433 207 q 286 25 366 77 q 203 0 248 0 q 72 96 123 0 q 22 327 22 191 q 104 598 22 504 q 239 656 155 656 q 418 588 333 656 l 418 629 q 426 648 418 640 q 446 656 434 656 l 589 656 q 608 648 600 656 q 616 629 616 640 q 608 610 616 618 q 589 602 600 602 l 568 602 q 581 235 568 366 q 618 80 593 122 q 631 99 625 89 q 645 111 637 109 q 655 113 652 113 q 669 110 662 113 q 682 86 682 102 q 679 73 682 79 q 627 12 656 34 q 562 -14 593 -14 m 562 41 q 577 45 568 41 q 527 229 541 98 q 513 602 513 365 l 473 602 l 473 585 q 494 165 473 300 q 562 41 514 41 m 255 70 q 310 133 283 88 q 413 455 365 225 q 419 515 419 484 q 277 598 345 587 q 221 543 243 581 q 172 332 172 458 q 212 129 172 216 q 255 70 230 90 m 194 55 q 163 105 176 77 q 117 332 117 203 q 175 572 117 473 q 189 593 181 583 q 89 445 115 560 q 76 327 76 388 q 89 209 76 266 q 130 104 103 146 q 194 55 156 62 z "},"b":{"ha":653,"x_min":21,"x_max":618,"o":"m 406 0 l 400 0 q 220 68 308 0 l 220 27 q 213 8 220 16 q 193 0 205 0 l 48 0 q 29 8 37 0 q 21 27 21 16 q 29 46 21 38 q 48 54 37 54 l 71 54 l 71 931 l 48 931 q 29 939 37 931 q 21 958 21 947 q 29 977 21 969 q 48 985 37 985 l 243 985 q 262 977 254 985 q 271 958 271 969 q 262 939 271 947 q 243 931 254 931 l 220 931 l 220 406 q 354 631 280 583 q 436 656 391 656 q 567 560 517 656 q 618 329 618 465 q 536 58 618 152 q 406 0 487 2 m 166 54 l 166 931 l 125 931 l 125 54 l 166 54 m 363 58 q 418 113 397 75 q 468 324 468 198 q 428 527 468 440 q 385 586 410 566 q 330 523 356 568 q 233 204 275 431 l 220 140 q 363 58 295 69 m 451 63 q 551 211 524 96 q 564 329 564 268 q 551 447 564 390 q 510 552 536 509 q 446 601 484 594 q 477 551 463 579 q 522 323 522 452 q 465 83 522 183 q 451 63 458 73 z "},"c":{"ha":484,"x_min":21,"x_max":475,"o":"m 275 -14 q 21 311 21 -14 q 81 546 21 464 q 275 632 144 632 q 470 542 406 632 q 475 526 475 534 q 464 504 475 513 q 448 498 456 498 q 427 510 435 498 q 331 562 392 562 q 171 309 171 562 q 315 62 171 81 q 335 61 326 61 q 426 108 393 61 q 448 119 434 119 q 464 113 456 119 q 474 101 473 107 q 475 92 475 94 q 470 76 475 84 q 275 -14 406 -14 m 193 54 q 117 311 117 140 q 186 562 117 476 q 75 311 75 513 q 193 54 75 98 z "},"d":{"ha":684,"x_min":22,"x_max":683,"o":"m 562 -14 q 485 28 514 -14 q 428 277 441 91 q 286 25 365 76 q 203 0 248 0 q 72 96 122 0 q 22 330 22 192 q 104 598 22 505 q 239 656 155 656 q 418 588 333 656 l 418 931 l 396 931 q 377 939 385 931 q 369 958 369 947 q 377 977 369 969 q 396 985 385 985 l 591 985 q 610 977 602 985 q 618 958 618 969 q 610 939 618 947 q 591 931 602 931 l 568 931 l 568 629 q 582 235 568 372 q 618 82 593 124 q 634 102 625 91 q 654 113 643 113 q 673 106 663 113 q 683 85 683 100 q 677 70 683 77 q 562 -14 616 -14 m 562 41 q 576 45 568 41 q 528 229 541 99 q 514 629 514 371 l 514 931 l 473 931 l 473 629 q 494 164 473 295 q 562 41 515 41 m 255 70 q 310 133 283 88 q 408 455 365 225 l 419 515 q 277 598 345 587 q 221 543 243 581 q 172 335 172 458 q 212 129 172 217 q 255 70 230 90 m 194 55 q 163 105 176 77 q 117 336 117 205 q 175 572 117 473 q 189 593 181 583 q 89 445 115 560 q 77 333 77 391 q 130 104 77 189 q 194 55 157 62 z "},"e":{"ha":497,"x_min":22,"x_max":475,"o":"m 180 206 q 343 302 286 242 q 415 452 415 376 q 378 544 415 509 q 317 563 357 563 q 223 514 264 563 q 171 311 171 452 q 180 206 171 251 m 275 -14 q 83 71 146 -14 q 22 311 22 153 q 275 632 22 632 q 414 584 363 632 q 469 452 469 532 q 381 263 469 355 q 193 153 315 194 q 324 57 230 57 q 426 107 391 57 q 448 119 435 119 q 466 113 456 119 q 475 93 475 106 q 470 77 475 84 q 275 -14 406 -14 m 186 56 q 117 311 117 140 q 185 561 117 475 q 76 311 76 512 q 186 56 76 105 z "},"f":{"ha":362,"x_min":4,"x_max":406,"o":"m 256 0 l 61 0 q 41 8 50 0 q 33 27 33 16 q 41 46 33 38 q 61 54 50 54 l 83 54 l 83 595 l 31 595 q 12 603 20 595 q 4 622 4 611 q 12 642 4 633 q 31 650 20 650 l 83 650 l 83 756 q 126 930 83 868 q 258 999 175 999 q 353 968 315 999 q 402 897 391 937 q 406 876 406 883 q 403 863 406 869 q 380 850 395 850 q 366 854 372 850 q 353 871 356 860 q 319 924 346 903 q 294 938 308 933 q 254 881 271 922 q 233 756 233 831 l 233 650 l 315 650 q 334 642 326 650 q 342 622 342 633 q 334 603 342 611 q 315 595 326 595 l 233 595 l 233 54 l 256 54 q 275 46 267 54 q 283 27 283 38 q 275 8 283 16 q 256 0 267 0 m 178 54 l 178 756 q 222 939 178 869 q 146 842 167 921 q 138 756 138 806 l 138 54 l 178 54 z "},"g":{"ha":652,"x_min":23,"x_max":610,"o":"m 256 70 q 311 133 285 88 q 408 452 365 224 l 420 515 q 277 598 345 587 q 222 543 244 581 q 172 335 172 458 q 213 129 172 217 q 256 70 231 90 m 304 -271 q 182 -242 236 -271 q 95 -160 124 -211 q 92 -147 92 -154 q 106 -123 92 -132 q 118 -119 112 -119 q 143 -134 135 -119 q 206 -193 163 -170 q 273 -211 239 -211 q 296 -209 284 -211 q 383 -130 347 -201 q 420 46 420 -59 l 420 250 q 288 25 361 74 q 204 0 250 0 q 73 96 123 0 q 23 333 23 192 q 105 598 23 505 q 240 656 156 656 q 420 588 334 656 l 420 629 q 428 648 420 640 q 447 656 436 656 l 583 656 q 602 648 594 656 q 610 629 610 640 q 602 610 610 618 q 583 602 594 602 l 570 602 l 570 46 q 500 -182 570 -100 q 304 -271 426 -271 m 195 55 q 164 105 177 77 q 118 336 118 205 q 176 572 118 473 q 189 593 182 583 q 90 445 117 560 q 77 333 77 391 q 130 104 77 189 q 195 55 157 62 m 411 -190 q 500 -69 474 -153 q 515 46 515 -21 l 515 602 l 474 602 l 474 46 q 411 -190 474 -96 z "},"h":{"ha":684,"x_min":21,"x_max":690,"o":"m 586 -14 q 474 46 517 -14 q 437 189 437 100 q 441 303 437 239 q 444 414 444 361 q 443 479 444 447 q 409 596 440 561 q 220 182 304 519 l 220 54 l 243 54 q 262 46 254 54 q 270 27 270 38 q 262 8 270 16 q 243 0 254 0 l 48 0 q 29 8 37 0 q 21 27 21 16 q 29 46 21 38 q 48 54 37 54 l 71 54 l 71 931 l 48 931 q 29 939 37 931 q 21 958 21 947 q 29 977 21 969 q 48 985 37 985 l 243 985 q 262 977 254 985 q 270 958 270 969 q 262 939 270 947 q 243 931 254 931 l 220 931 l 220 376 q 463 670 322 670 q 547 638 518 670 q 586 554 576 607 q 597 437 597 502 q 591 303 597 374 q 587 181 587 239 q 600 89 587 124 q 625 49 610 60 q 644 63 635 54 q 663 72 652 71 q 682 64 673 72 q 690 50 690 56 l 690 43 q 684 26 690 34 q 586 -14 646 -14 m 165 54 l 165 931 l 125 931 l 125 54 l 165 54 m 559 45 q 532 181 532 98 q 537 306 532 238 q 543 437 543 373 q 536 527 543 486 q 513 591 530 567 q 463 615 496 615 q 496 505 494 562 q 498 416 498 447 q 495 301 498 359 q 491 189 491 243 q 519 77 491 115 q 559 45 536 53 z "},"i":{"ha":331,"x_min":35,"x_max":284,"o":"m 257 0 l 62 0 q 43 8 51 0 q 35 27 35 16 q 43 46 35 38 q 62 54 51 54 l 85 54 l 85 602 l 62 602 q 43 610 51 602 q 35 629 35 618 q 43 648 35 640 q 62 656 51 656 l 257 656 q 276 648 269 656 q 284 629 284 640 q 276 610 284 618 q 257 602 269 602 l 235 602 l 235 54 l 257 54 q 276 46 269 54 q 284 27 284 38 q 276 8 284 16 q 257 0 269 0 m 180 54 l 180 602 l 139 602 l 139 54 l 180 54 m 159 779 q 185 790 175 779 q 196 816 196 801 q 185 842 196 831 q 159 852 175 852 q 134 842 144 852 q 123 816 123 831 q 134 790 123 801 q 159 779 144 779 m 159 725 q 95 752 122 725 q 68 816 68 779 q 95 880 68 854 q 159 907 122 907 q 224 880 197 907 q 251 816 251 854 q 224 752 251 779 q 159 725 197 725 z "},"j":{"ha":321,"x_min":-92,"x_max":285,"o":"m 62 -271 q -44 -232 3 -271 q -92 -138 -92 -193 q -84 -118 -92 -126 q -64 -111 -76 -111 q -45 -118 -54 -111 q -37 -138 -37 -126 q -10 -191 -37 -169 q 18 -208 2 -201 q 85 -43 85 -176 l 85 602 l 63 602 q 44 610 52 602 q 36 629 36 618 q 44 648 36 640 q 63 656 52 656 l 258 656 q 277 648 269 656 q 285 629 285 640 q 277 610 285 618 q 258 602 269 602 l 235 602 l 235 -43 q 191 -205 235 -146 q 62 -271 142 -271 m 94 -212 q 172 -120 151 -195 q 180 -43 180 -88 l 180 602 l 140 602 l 140 -43 q 94 -212 140 -152 m 160 779 q 186 790 176 779 q 197 816 197 801 q 186 842 197 831 q 160 852 176 852 q 134 842 145 852 q 123 816 123 831 q 134 790 123 801 q 160 779 145 779 m 160 725 q 96 752 123 725 q 69 816 69 779 q 96 880 69 854 q 160 907 123 907 q 224 880 198 907 q 251 816 251 854 q 224 752 251 779 q 160 725 198 725 z "},"k":{"ha":600,"x_min":22,"x_max":600,"o":"m 97 -1 l 49 0 q 30 8 37 0 q 22 27 22 16 q 30 46 22 38 q 49 54 37 54 l 71 54 l 71 931 l 49 931 q 30 939 37 931 q 22 958 22 947 q 30 977 22 969 q 49 985 37 985 l 243 985 q 263 977 255 985 q 271 958 271 969 q 263 939 271 947 q 243 931 255 931 l 221 931 l 221 412 q 378 496 321 444 q 449 602 436 548 l 437 602 q 418 610 426 602 q 410 629 410 618 q 418 648 410 640 q 437 656 426 656 l 530 656 q 549 648 541 656 q 557 629 557 640 q 549 610 557 618 q 530 602 541 602 l 505 602 q 415 456 492 525 q 340 404 383 427 q 492 279 443 361 q 550 54 548 182 l 573 54 q 592 46 584 54 q 600 27 600 38 q 592 8 600 16 q 573 0 584 0 l 378 0 q 359 8 367 0 q 351 27 351 16 q 359 46 351 38 q 378 54 367 54 l 400 54 q 221 354 394 284 l 221 54 l 243 54 q 263 46 255 54 q 271 27 271 38 q 263 8 271 16 q 243 0 255 0 l 97 -1 m 167 54 l 167 931 l 125 931 l 125 54 l 167 54 m 496 54 q 342 342 491 268 q 405 261 381 307 q 454 54 452 170 l 496 54 z "},"l":{"ha":311,"x_min":-4,"x_max":310,"o":"m 189 41 q 204 45 196 41 q 155 229 168 98 q 141 629 141 371 l 141 931 l 100 931 l 100 629 q 121 164 100 295 q 189 41 142 41 m 189 -14 q 113 27 142 -14 q 68 155 83 69 q 46 629 46 288 l 46 931 l 23 931 q 4 939 12 931 q -4 958 -4 947 q 4 977 -4 969 q 23 985 12 985 l 218 985 q 237 977 229 985 q 245 958 245 969 q 237 939 245 947 q 218 931 229 931 l 195 931 l 195 629 q 209 235 195 372 q 246 80 220 122 q 258 96 252 87 q 283 113 268 113 q 296 109 290 113 q 310 85 310 101 q 307 73 310 78 q 255 12 283 34 q 189 -14 220 -14 z "},"m":{"ha":909,"x_min":33,"x_max":917,"o":"m 808 -13 q 695 51 738 -13 q 659 200 659 105 q 662 310 659 250 q 665 434 665 374 q 646 566 665 519 q 543 180 580 460 l 527 54 l 549 54 q 568 46 560 54 q 576 27 576 38 q 568 8 576 16 q 549 0 560 0 l 355 0 q 335 8 343 0 q 327 27 327 16 q 335 46 327 38 q 355 54 343 54 l 377 54 l 377 181 q 365 485 377 404 q 349 562 357 535 q 248 180 283 449 l 232 54 l 254 54 q 273 46 265 54 q 281 27 281 38 q 273 8 281 16 q 254 0 265 0 l 60 0 q 40 8 48 0 q 33 27 33 16 q 40 46 33 38 q 60 54 48 54 l 82 54 l 82 602 l 60 602 q 40 610 48 602 q 33 629 33 618 q 40 648 33 640 q 60 656 48 656 l 254 656 q 273 648 265 656 q 281 629 281 640 q 273 610 281 618 q 254 602 265 602 l 232 602 l 232 418 q 414 670 308 670 q 474 641 450 670 q 509 546 497 612 q 522 404 518 492 q 708 670 600 670 q 777 638 753 670 q 809 554 801 607 q 818 437 818 502 q 814 303 817 371 q 810 181 810 240 q 821 87 810 123 q 839 47 829 58 q 869 68 855 52 q 890 78 878 78 q 908 71 899 78 q 917 52 917 64 q 911 35 917 43 q 808 -13 873 -13 m 177 54 l 177 602 l 136 602 l 136 54 l 177 54 m 472 54 l 472 181 q 455 536 472 438 q 414 615 441 615 q 389 608 401 615 q 418 492 406 576 q 431 181 431 406 l 431 54 l 472 54 m 776 49 q 755 181 755 103 q 760 306 755 237 q 764 437 764 375 q 759 527 764 486 q 743 591 755 567 q 708 615 731 615 q 686 608 697 615 q 717 500 715 556 q 720 413 720 445 q 716 307 720 361 q 713 200 713 253 q 741 81 713 121 q 776 49 756 58 z "},"n":{"ha":696,"x_min":33,"x_max":703,"o":"m 571 45 q 544 181 544 97 q 549 309 544 245 q 554 448 554 378 q 547 533 554 495 q 524 593 541 570 q 475 615 507 615 q 508 505 506 562 q 511 416 511 447 q 507 301 511 359 q 503 189 503 243 q 530 77 503 117 q 571 45 548 53 m 597 -14 q 486 46 529 -14 q 448 189 448 100 q 452 303 448 239 q 456 418 456 363 q 455 479 456 450 q 421 596 452 561 q 254 178 315 519 l 232 54 l 254 54 q 274 46 266 54 q 281 27 281 38 q 274 8 281 16 q 254 0 266 0 l 60 0 q 41 8 49 0 q 33 27 33 16 q 41 46 33 38 q 60 54 49 54 l 82 54 l 82 602 l 60 602 q 41 610 49 602 q 33 629 33 618 q 41 648 33 640 q 60 656 49 656 l 254 656 q 274 648 266 656 q 281 629 281 640 q 274 610 281 618 q 254 602 266 602 l 232 602 l 232 376 q 475 670 334 670 q 557 640 528 670 q 597 559 587 610 q 608 447 608 509 q 603 314 608 380 q 598 181 598 248 q 611 89 598 124 q 637 49 622 60 q 656 63 648 54 q 675 72 664 71 q 694 64 685 72 q 703 44 703 56 q 695 26 703 34 q 597 -14 659 -14 m 178 54 l 178 602 l 137 602 l 137 54 l 178 54 z "},"o":{"ha":597,"x_min":24,"x_max":559,"o":"m 292 -14 q 88 71 155 -14 q 24 321 24 153 q 292 670 24 670 q 559 321 559 670 q 495 71 559 153 q 292 -14 429 -14 m 341 55 q 505 321 505 55 q 452 545 505 471 q 331 612 411 602 l 330 612 q 214 527 251 595 q 174 322 174 453 q 216 119 174 186 q 341 55 256 55 m 196 56 q 120 322 120 138 q 198 598 120 511 q 79 321 79 547 q 131 104 79 171 q 196 56 157 72 z "},"p":{"ha":663,"x_min":31,"x_max":627,"o":"m 253 -271 l 58 -271 q 39 -263 47 -271 q 31 -244 31 -255 q 39 -225 31 -233 q 58 -217 47 -217 l 81 -217 l 81 602 l 58 602 q 39 610 47 602 q 31 629 31 618 q 39 648 31 640 q 58 656 47 656 l 253 656 q 272 648 264 656 q 280 629 280 640 q 272 610 280 618 q 253 602 264 602 l 231 602 l 231 406 q 363 631 289 582 q 446 656 401 656 q 577 560 528 656 q 627 323 627 464 q 545 58 627 151 q 410 0 494 0 q 231 68 316 0 l 231 -217 l 253 -217 q 272 -225 264 -217 q 280 -244 280 -233 q 272 -263 280 -255 q 253 -271 264 -271 m 176 -217 l 176 602 l 135 602 l 135 -217 l 176 -217 m 373 58 q 428 113 406 75 q 478 321 478 198 q 437 527 478 439 q 394 586 419 566 q 339 523 366 568 q 242 204 285 431 l 231 140 q 373 58 305 68 m 460 63 q 523 119 498 80 q 561 212 548 158 q 573 323 573 265 q 560 447 573 390 q 520 552 547 509 q 456 601 493 594 q 486 550 473 579 q 532 320 532 451 q 475 83 532 183 q 460 63 469 73 z "},"q":{"ha":651,"x_min":22,"x_max":618,"o":"m 514 -217 l 514 602 l 473 602 l 473 -217 l 514 -217 m 591 -271 l 397 -271 q 377 -263 385 -271 q 369 -244 369 -255 q 377 -225 369 -233 q 397 -217 385 -217 l 419 -217 l 419 250 q 286 25 359 73 q 203 0 248 0 q 72 96 123 0 q 22 327 22 191 q 104 598 22 504 q 239 656 155 656 q 419 588 332 656 l 419 629 q 427 648 419 640 q 446 656 435 656 l 591 656 q 610 648 602 656 q 618 629 618 640 q 610 610 618 618 q 591 602 602 602 l 568 602 l 568 -217 l 591 -217 q 610 -225 602 -217 q 618 -244 618 -233 q 610 -263 618 -255 q 591 -271 602 -271 m 255 70 q 310 133 283 88 q 407 452 364 224 l 419 515 q 277 598 345 587 q 221 543 243 581 q 172 335 172 458 q 212 129 172 217 q 255 70 230 90 m 194 55 q 163 105 176 77 q 117 332 117 203 q 175 572 117 473 q 189 593 181 583 q 89 445 115 560 q 76 327 76 388 q 89 209 76 266 q 130 104 103 146 q 194 55 156 62 z "},"r":{"ha":523,"x_min":33,"x_max":517,"o":"m 255 0 l 60 0 q 41 8 49 0 q 33 27 33 16 q 41 46 33 38 q 60 54 49 54 l 83 54 l 83 602 l 60 602 q 41 610 49 602 q 33 629 33 618 q 41 648 33 640 q 60 656 49 656 l 255 656 q 274 648 266 656 q 282 629 282 640 q 274 610 282 618 q 255 602 266 602 l 232 602 l 232 455 l 241 486 q 378 670 297 670 q 444 645 424 670 q 469 581 464 620 q 476 498 475 543 q 481 425 477 458 q 503 381 486 392 q 517 357 517 372 q 503 332 517 340 q 426 309 462 309 q 358 355 385 309 q 334 427 340 385 q 325 511 328 469 q 321 549 323 531 q 245 182 272 438 l 232 54 l 255 54 q 274 46 266 54 q 282 27 282 38 q 274 8 282 16 q 255 0 266 0 m 178 54 l 178 602 l 137 602 l 137 54 l 178 54 m 432 365 q 444 366 437 365 q 422 496 424 406 q 407 598 420 570 q 378 615 398 615 q 366 611 370 615 q 380 515 376 573 q 404 380 387 406 q 432 365 415 365 z "},"s":{"ha":516,"x_min":29,"x_max":494,"o":"m 252 -14 q 126 9 184 -14 q 35 76 68 32 q 29 92 29 83 q 41 114 29 106 q 56 119 48 119 q 79 108 71 119 q 220 52 118 52 q 315 79 280 52 q 351 139 351 106 q 332 186 351 165 q 283 223 313 206 q 220 255 254 239 q 130 303 173 277 q 58 367 86 329 q 29 464 29 406 q 100 590 29 541 q 272 632 161 632 q 398 609 340 632 q 489 542 456 587 q 494 526 494 534 q 483 504 494 512 q 467 498 475 498 q 445 510 453 498 q 307 570 403 570 q 211 538 252 570 q 173 475 173 507 q 232 412 173 445 q 290 382 258 397 q 428 298 382 337 q 494 154 494 239 q 424 28 494 77 q 252 -14 363 -14 m 377 64 q 439 154 439 94 q 413 233 439 200 q 347 289 387 265 q 267 333 307 313 q 193 372 227 352 q 139 416 160 391 q 119 475 119 441 q 153 557 119 519 q 130 545 140 551 q 84 464 84 513 q 108 394 84 422 q 168 343 132 365 q 243 304 203 322 q 322 263 286 285 q 382 212 359 241 q 405 139 405 182 q 377 64 405 98 z "},"t":{"ha":404,"x_min":-1,"x_max":405,"o":"m 254 -14 q 121 55 170 -14 q 79 229 79 117 l 79 595 l 26 595 q 7 603 15 595 q -1 622 -1 611 q 7 642 -1 633 q 26 650 15 650 l 79 650 l 79 930 l 56 930 q 37 939 45 930 q 28 958 28 947 q 37 977 28 969 q 56 985 45 985 l 250 985 q 270 977 262 985 q 278 958 278 969 q 270 939 278 947 q 250 930 262 930 l 228 930 l 228 650 l 310 650 q 329 642 321 650 q 337 622 337 633 q 329 603 337 611 q 310 595 321 595 l 228 595 l 228 229 q 249 104 228 154 q 289 47 266 63 q 322 67 309 54 q 351 134 351 97 q 359 153 351 144 q 378 161 367 161 q 397 153 389 161 q 405 134 405 144 q 359 28 405 75 q 254 -14 317 -14 m 218 46 q 174 229 174 116 l 174 930 l 133 930 l 133 229 q 166 85 133 134 q 218 46 188 56 z "},"u":{"ha":682,"x_min":11,"x_max":640,"o":"m 211 -14 q 125 21 156 -14 q 80 125 94 56 q 64 272 67 185 q 60 602 60 359 l 38 602 q 19 610 26 602 q 11 629 11 618 q 19 648 11 640 q 38 656 26 656 l 233 656 q 252 648 244 656 q 260 629 260 640 q 252 610 260 618 q 233 602 244 602 l 210 602 q 213 298 210 372 q 264 60 220 105 q 418 478 357 134 l 440 602 l 418 602 q 398 610 406 602 q 391 629 391 618 q 398 648 391 640 q 418 656 406 656 l 612 656 q 632 648 624 656 q 640 629 640 640 q 632 610 640 618 q 612 602 624 602 l 590 602 l 590 54 l 612 54 q 632 46 624 54 q 640 27 640 38 q 632 8 640 16 q 612 0 624 0 l 418 0 q 398 8 406 0 q 391 27 391 16 q 398 46 391 38 q 418 54 406 54 l 440 54 l 440 275 q 372 111 407 175 q 211 -14 302 -14 m 210 41 q 170 163 181 83 q 156 467 156 258 l 156 602 l 115 602 q 118 277 115 361 q 132 136 121 193 q 210 41 151 41 m 536 54 l 536 602 l 494 602 l 494 54 l 536 54 z "},"v":{"ha":589,"x_min":-5,"x_max":572,"o":"m 277 41 q 140 602 146 163 l 99 602 q 155 192 104 335 q 277 41 207 50 m 286 -14 q 184 33 231 -14 q 45 602 52 165 l 22 602 q 3 610 11 602 q -5 629 -5 618 q 3 648 -5 640 q 22 656 11 656 l 217 656 q 236 648 228 656 q 244 629 244 640 q 236 610 244 618 q 217 602 228 602 l 195 602 q 233 245 197 377 q 336 64 273 99 l 338 62 q 414 193 382 100 q 471 602 467 345 l 452 602 q 433 610 441 602 q 425 629 425 618 q 433 648 425 640 q 452 656 441 656 l 544 656 q 564 648 555 656 q 572 629 572 640 q 564 610 572 618 q 544 602 555 602 l 525 602 q 465 175 521 336 q 388 35 433 84 q 286 -14 342 -14 z "},"w":{"ha":824,"x_min":0,"x_max":803,"o":"m 576 -14 q 441 155 490 -14 q 402 353 418 233 q 363 155 385 233 q 228 -14 315 -14 q 90 172 136 -14 q 47 602 50 332 l 27 602 q 8 610 16 602 q 0 629 0 618 q 8 648 0 640 q 27 656 16 656 l 222 656 q 241 648 233 656 q 249 629 249 640 q 241 610 249 618 q 222 602 233 602 l 197 602 q 224 248 199 391 q 276 80 244 135 q 373 602 342 196 l 349 602 q 330 610 338 602 q 322 629 322 618 q 330 648 322 640 q 349 656 338 656 l 544 656 q 563 648 555 656 q 571 629 571 640 q 563 610 571 618 q 544 602 555 602 l 527 602 q 624 80 557 193 q 662 184 645 117 q 702 602 700 338 l 684 602 q 664 610 672 602 q 656 629 656 618 q 664 648 656 640 q 684 656 672 656 l 760 656 l 776 656 q 795 648 787 656 q 803 629 803 640 q 795 610 803 618 q 776 602 787 602 l 757 602 q 658 35 753 166 q 576 -14 623 -14 m 585 41 q 472 602 505 161 l 431 602 q 493 170 453 311 q 576 41 530 41 l 585 41 m 236 41 q 143 602 146 180 l 102 602 q 142 184 104 338 q 227 41 178 41 l 236 41 z "},"x":{"ha":640,"x_min":12,"x_max":650,"o":"m 538 54 l 169 602 l 125 602 l 496 54 l 538 54 m 623 0 l 429 0 q 409 8 417 0 q 401 27 401 16 q 409 46 401 38 q 430 54 417 54 l 290 260 l 128 54 q 151 46 142 54 q 159 27 159 38 q 151 8 159 16 q 132 0 142 0 l 39 0 q 20 8 28 0 q 12 27 12 16 q 20 46 12 38 q 39 54 28 54 l 60 54 l 258 308 l 60 602 l 41 602 q 22 610 30 602 q 14 629 14 618 q 22 648 14 640 q 41 656 30 656 l 236 656 q 255 648 248 656 q 263 629 263 640 q 255 610 263 618 q 235 602 248 602 l 353 427 l 489 602 q 455 629 455 602 q 463 648 455 640 q 482 656 471 656 l 574 656 q 594 648 586 656 q 602 629 602 640 q 594 610 602 618 q 574 602 586 602 l 557 602 l 385 380 l 604 54 l 623 54 q 642 46 634 54 q 650 27 650 38 q 642 8 650 16 q 623 0 634 0 z "},"y":{"ha":671,"x_min":12,"x_max":631,"o":"m 326 -271 q 203 -242 257 -271 q 117 -160 145 -211 q 113 -146 113 -153 q 127 -123 113 -132 q 140 -119 133 -119 q 163 -134 155 -119 q 228 -193 185 -170 q 295 -211 260 -211 q 317 -209 306 -211 q 405 -130 368 -201 q 441 46 441 -59 l 441 275 q 373 111 408 175 q 212 -14 303 -14 q 126 21 157 -14 q 81 125 95 56 q 65 272 68 185 q 62 602 62 359 l 39 602 q 20 610 28 602 q 12 629 12 618 q 20 648 12 640 q 39 656 28 656 l 234 656 q 253 648 245 656 q 261 629 261 640 q 253 610 261 618 q 234 602 245 602 l 212 602 q 214 298 212 372 q 224 172 217 224 q 265 60 237 90 q 415 478 359 133 l 439 629 q 449 648 441 640 q 469 656 457 656 l 604 656 q 624 648 616 656 q 631 629 631 640 q 624 610 631 618 q 604 602 616 602 l 591 602 l 591 46 q 522 -183 591 -101 q 326 -271 448 -271 m 433 -190 q 522 -69 496 -153 q 536 46 536 -21 l 536 602 l 496 602 l 496 46 q 433 -190 496 -96 m 212 41 q 171 163 182 83 q 157 467 157 258 l 157 602 l 116 602 q 119 277 116 361 q 134 136 123 193 q 212 41 152 41 z "},"z":{"ha":532,"x_min":21,"x_max":515,"o":"m 161 54 l 406 602 l 370 602 l 125 54 l 161 54 m 487 0 l 48 0 q 29 8 37 0 q 21 27 21 16 q 29 46 21 38 q 48 54 37 54 l 66 54 l 310 602 l 76 602 l 76 577 q 68 557 76 566 q 48 549 60 549 q 29 557 37 549 q 21 577 21 566 l 21 629 q 29 648 21 640 q 48 656 37 656 l 487 656 q 507 648 498 656 q 515 629 515 640 q 507 610 515 618 q 487 602 498 602 l 465 602 l 221 54 l 460 54 l 460 79 q 468 98 460 90 q 487 106 476 106 q 506 98 498 106 q 514 79 514 90 l 514 27 q 506 8 514 16 q 487 0 498 0 z "},"{":{"ha":375,"x_min":34,"x_max":341,"o":"m 314 -131 q 188 -112 233 -131 q 124 -60 142 -94 q 106 16 106 -27 q 138 171 106 70 q 170 325 170 273 q 153 395 170 363 q 54 463 131 441 q 34 489 34 468 q 54 515 34 510 q 148 576 129 537 q 168 653 168 614 q 137 804 168 705 q 105 960 105 907 q 123 1038 105 1004 q 187 1090 142 1072 q 314 1109 233 1109 q 333 1101 326 1109 q 341 1082 341 1093 q 333 1063 341 1071 q 314 1055 326 1055 q 283 1054 298 1055 q 258 989 258 1031 q 287 837 258 938 q 323 640 323 709 q 321 599 323 619 q 277 496 315 543 q 321 423 315 460 q 326 362 326 385 q 293 169 326 296 q 263 -3 263 54 q 283 -75 263 -47 q 314 -77 298 -77 q 333 -84 326 -77 q 341 -104 341 -92 q 333 -123 341 -115 q 314 -131 326 -131 m 217 -63 q 210 -1 210 -35 q 240 180 210 60 q 271 360 271 301 q 268 402 271 382 q 222 470 260 447 q 209 494 209 478 q 218 515 209 507 q 263 585 258 549 q 268 642 268 620 q 235 823 268 705 q 203 987 203 933 q 210 1038 203 1015 q 159 960 159 1017 q 189 819 159 917 q 224 644 224 703 q 214 577 224 609 q 136 490 199 525 q 213 411 200 454 q 227 335 227 369 q 191 157 227 272 q 161 16 161 60 q 217 -63 161 -41 z "},"|":{"ha":665,"x_min":305,"x_max":359,"o":"m 332 -124 q 313 -116 321 -124 q 305 -97 305 -109 l 305 1082 q 313 1101 305 1093 q 332 1109 321 1109 q 352 1101 344 1109 q 359 1082 359 1093 l 359 -97 q 352 -116 359 -109 q 332 -124 344 -124 z "},"}":{"ha":375,"x_min":34,"x_max":341,"o":"m 61 -131 q 42 -123 50 -131 q 34 -104 34 -115 q 42 -84 34 -92 q 61 -77 50 -77 q 92 -75 77 -77 q 111 -3 111 -47 q 81 169 111 54 q 49 362 49 296 q 54 423 49 385 q 98 496 60 460 q 54 599 60 543 q 52 640 52 619 q 88 837 52 709 q 117 989 117 938 q 92 1054 117 1031 q 61 1055 77 1055 q 42 1063 50 1055 q 34 1082 34 1071 q 42 1101 34 1093 q 61 1109 50 1109 q 188 1090 142 1109 q 252 1038 233 1072 q 270 960 270 1004 q 238 804 270 907 q 208 653 208 705 q 227 576 208 614 q 321 515 246 537 q 341 489 341 510 q 321 463 341 468 q 222 395 244 441 q 205 325 205 363 q 237 171 205 273 q 269 16 269 70 q 251 -60 269 -27 q 188 -112 233 -94 q 61 -131 142 -131 m 158 -63 q 214 16 214 -41 q 184 157 214 60 q 149 335 149 272 q 162 411 149 369 q 239 490 175 454 q 161 577 176 525 q 151 644 151 609 q 186 819 151 703 q 216 960 216 917 q 165 1038 216 1017 q 172 987 172 1015 q 140 823 172 933 q 106 642 106 705 q 112 585 106 620 q 157 515 117 549 q 166 494 166 507 q 153 470 166 478 q 107 402 115 447 q 103 360 103 382 q 134 180 103 301 q 165 -1 165 60 q 158 -63 165 -35 z "},"~":{"ha":459,"x_min":34,"x_max":425,"o":"m 297 427 q 244 443 263 427 q 210 477 225 458 q 189 499 200 490 q 162 509 178 509 q 83 441 123 509 q 60 427 75 427 q 47 431 54 427 q 34 454 34 439 q 37 468 34 461 q 162 564 92 564 q 216 548 197 564 q 252 512 236 532 q 297 481 275 481 q 375 550 335 481 q 398 564 383 564 q 412 559 405 564 q 425 535 425 552 q 422 523 425 528 q 297 427 366 427 z "},"":{"ha":317,"x_min":34,"x_max":283,"o":"m 75 406 l 242 406 q 261 398 254 406 q 269 378 269 390 q 261 359 269 367 q 242 351 254 351 l 227 351 l 240 -289 l 256 -289 q 275 -297 267 -289 q 283 -316 283 -305 q 275 -335 283 -328 q 256 -343 267 -343 l 61 -343 q 42 -335 50 -343 q 34 -316 34 -328 q 42 -297 34 -305 q 61 -289 50 -289 l 77 -289 l 91 351 l 75 351 q 56 359 64 351 q 48 378 48 367 q 56 398 48 390 q 75 406 64 406 m 145 351 l 132 -289 l 186 -289 l 172 351 l 145 351 m 151 602 q 125 591 136 602 q 115 565 115 580 q 125 539 115 550 q 151 528 136 528 q 177 539 166 528 q 188 565 188 550 q 177 591 188 580 q 151 602 166 602 m 151 656 q 216 629 189 656 q 242 565 242 602 q 216 500 242 527 q 151 474 189 474 q 87 500 113 474 q 60 565 60 527 q 87 629 60 602 q 151 656 113 656 z "},"":{"ha":522,"x_min":34,"x_max":488,"o":"m 206 54 q 130 311 130 140 q 199 562 130 476 q 88 311 88 513 q 206 54 88 98 m 200 -164 q 176 -136 176 -164 l 205 -4 q 34 311 34 44 q 94 546 34 464 q 288 632 157 632 q 344 627 317 632 l 380 795 q 410 821 387 821 q 434 793 434 821 q 395 612 434 791 q 483 542 448 590 q 488 526 488 534 q 477 504 488 513 q 461 498 469 498 q 439 510 448 498 q 382 556 416 545 l 277 77 q 348 61 309 61 q 439 108 406 61 q 461 119 447 119 q 477 113 469 119 q 487 101 486 107 q 488 92 488 94 q 483 76 488 84 q 288 -14 419 -14 q 257 -13 272 -14 l 230 -138 q 200 -164 224 -164 m 231 116 l 329 562 q 184 309 184 551 q 231 116 184 178 z "},"":{"ha":671,"x_min":34,"x_max":637,"o":"m 610 0 l 115 0 q 95 8 103 0 q 87 27 87 16 q 90 39 87 33 q 163 319 163 209 q 152 435 163 380 l 61 435 q 42 443 50 435 q 34 462 34 451 q 42 481 34 473 q 61 489 50 489 l 142 489 q 118 731 118 616 q 184 925 118 856 q 370 999 254 999 q 530 967 467 999 q 634 869 602 930 q 637 856 637 862 q 623 832 637 840 q 610 829 616 829 q 587 844 595 829 q 506 918 562 890 q 435 933 475 933 q 307 873 353 933 q 268 731 268 821 q 276 596 268 654 q 293 489 283 538 l 469 489 q 488 481 479 489 q 496 462 496 473 q 488 443 496 451 q 469 435 479 435 l 302 435 q 313 319 313 380 q 250 54 313 209 l 583 54 l 583 108 q 591 127 583 119 q 610 135 599 135 q 629 127 621 135 q 637 108 637 119 l 637 27 q 629 8 637 16 q 610 0 621 0 m 192 54 q 258 319 258 212 q 239 478 258 380 q 222 590 230 529 q 214 731 214 651 q 281 928 214 857 q 224 889 249 915 q 186 825 200 864 q 172 731 172 786 q 180 595 172 654 q 197 488 189 536 q 217 319 217 383 q 155 54 217 208 l 192 54 z "},"":{"ha":405,"x_min":34,"x_max":371,"o":"m 203 412 q 261 437 237 412 q 286 495 286 461 q 261 554 286 530 q 203 578 237 578 q 144 554 168 578 q 119 495 119 530 q 144 437 119 461 q 203 412 168 412 m 344 327 q 325 335 333 327 l 279 380 q 203 358 245 358 q 126 381 160 358 l 80 335 q 61 327 72 327 q 42 335 51 327 q 34 354 34 344 q 42 373 34 365 l 87 419 q 65 495 65 452 q 87 572 65 538 l 42 618 q 34 637 34 626 q 42 655 34 647 q 61 664 51 664 q 80 656 72 664 l 126 610 q 203 633 160 633 q 279 610 245 633 l 325 656 q 344 664 333 664 q 363 655 355 664 q 371 637 371 647 q 363 618 371 626 l 317 572 q 340 495 340 538 q 317 419 340 452 l 363 373 q 371 354 371 365 q 363 335 371 344 q 344 327 355 327 z "},"":{"ha":764,"x_min":34,"x_max":730,"o":"m 475 0 l 280 0 q 261 8 269 0 q 253 27 253 16 q 261 46 253 38 q 280 54 269 54 l 302 54 l 303 233 l 198 233 q 179 241 186 233 q 171 260 171 249 q 179 279 171 271 q 198 288 186 288 l 303 288 l 303 370 l 198 370 q 179 378 186 370 q 171 397 171 386 q 179 416 171 408 q 198 425 186 425 l 303 425 l 303 441 q 156 606 208 478 q 98 931 102 739 l 61 931 q 42 939 50 931 q 34 958 34 947 q 42 977 34 969 q 61 985 50 985 l 256 985 q 275 977 267 985 q 283 958 283 969 q 275 939 283 947 q 256 931 267 931 l 248 931 q 291 650 249 746 q 430 555 334 555 q 570 652 526 555 q 616 931 614 749 l 585 931 q 566 939 574 931 q 557 958 557 947 q 566 977 557 969 q 585 985 574 985 l 703 985 q 723 977 715 985 q 730 958 730 969 q 723 939 730 947 q 703 931 715 931 l 671 931 q 619 629 669 737 q 456 492 567 518 l 455 425 l 561 425 q 580 416 572 425 q 588 397 588 408 q 580 378 588 386 q 561 370 572 370 l 455 370 l 454 288 l 561 288 q 580 279 572 288 q 588 260 588 271 q 580 241 588 249 q 561 233 572 233 l 454 233 l 452 54 l 475 54 q 494 46 486 54 q 502 27 502 38 q 494 8 502 16 q 475 0 486 0 m 398 54 l 401 493 q 242 629 292 520 q 193 931 195 734 l 152 931 q 206 627 156 749 q 336 488 254 509 q 351 478 345 486 q 357 461 357 471 l 357 54 l 398 54 z "},"":{"ha":572,"x_min":34,"x_max":538,"o":"m 256 -106 q 131 -83 189 -106 q 39 -14 73 -59 q 34 2 34 -6 q 45 24 34 16 q 61 30 53 30 q 83 18 75 30 q 225 -41 126 -41 q 320 -12 284 -41 q 355 51 355 17 q 336 107 355 81 q 286 157 317 133 q 220 207 256 182 q 132 274 174 239 q 62 354 90 310 q 34 458 34 399 q 97 583 34 533 q 194 623 134 611 q 134 679 161 649 q 90 745 106 709 q 73 826 73 781 q 143 956 73 905 q 316 999 204 999 q 442 975 384 999 q 533 906 500 951 q 538 890 538 899 q 527 868 538 877 q 511 863 519 863 q 489 875 498 863 q 345 934 446 934 q 254 902 292 934 q 217 838 217 871 q 278 754 217 804 q 338 709 305 732 q 473 593 429 644 q 538 435 538 519 q 477 312 538 361 q 387 271 442 284 q 444 213 418 244 q 484 146 469 182 q 499 66 499 110 q 429 -63 499 -13 q 256 -106 368 -106 m 419 339 q 484 435 484 371 q 456 525 484 484 q 389 600 429 566 q 306 665 349 634 q 235 719 267 692 q 183 775 203 746 q 163 838 163 804 q 199 924 163 884 q 174 911 185 918 q 128 826 128 878 q 152 745 128 781 q 214 678 176 709 q 292 618 251 647 q 368 561 332 590 q 427 497 404 531 q 449 419 449 463 q 419 339 449 376 m 313 330 q 372 368 350 345 q 395 419 395 392 q 377 472 395 447 q 332 520 360 496 q 271 566 304 543 q 204 524 231 551 q 178 470 178 497 q 239 386 178 435 q 313 330 258 370 m 380 -28 q 444 66 444 3 q 417 157 444 116 q 349 232 390 197 q 267 296 309 267 q 196 351 228 324 q 143 407 163 378 q 123 470 123 436 q 160 556 123 516 q 89 458 89 526 q 113 377 89 413 q 174 310 137 340 q 252 251 212 279 q 329 193 293 222 q 387 129 365 163 q 410 51 410 94 q 380 -28 410 8 z "},"":{"ha":350,"x_min":34,"x_max":316,"o":"m 87 712 q 50 728 66 712 q 34 766 34 743 q 50 804 34 788 q 87 819 66 819 q 126 804 110 819 q 142 766 142 788 q 126 728 142 743 q 87 712 110 712 m 262 712 q 224 728 240 712 q 208 766 208 743 q 224 804 208 788 q 262 819 240 819 q 300 804 284 819 q 316 766 316 788 q 300 728 316 743 q 262 712 284 712 z "},"":{"ha":937,"x_min":26,"x_max":895,"o":"m 460 -65 q 130 71 237 -65 q 26 483 26 205 q 130 907 26 761 q 460 1056 235 1056 q 791 907 686 1056 q 895 483 895 761 q 790 71 895 205 q 460 -65 684 -65 m 460 -11 q 747 104 657 -11 q 840 483 840 223 q 747 874 840 743 q 460 1002 657 1002 q 174 874 263 1002 q 81 483 81 743 q 173 104 81 223 q 460 -11 263 -11 m 493 179 q 325 267 388 179 q 268 501 268 347 q 327 726 268 645 q 493 812 388 812 q 650 721 600 812 q 654 707 654 715 q 640 685 654 692 q 627 681 633 681 q 604 694 611 681 q 529 741 577 741 q 403 499 403 741 q 522 246 403 246 q 604 296 575 246 q 627 310 611 310 q 640 306 633 310 q 654 283 654 298 q 650 270 654 277 q 493 179 600 179 m 391 271 q 349 499 349 342 q 391 720 349 641 q 321 497 321 654 q 391 271 321 337 z "},"":{"ha":383,"x_min":34,"x_max":349,"o":"m 174 140 q 152 152 160 140 l 39 313 q 34 328 34 321 q 39 344 34 336 l 152 504 q 174 516 161 516 q 192 509 182 516 q 201 490 201 503 q 196 473 201 481 l 94 328 l 197 183 q 201 167 201 176 q 190 145 201 153 q 174 140 183 140 m 321 140 q 300 152 308 140 l 186 313 q 182 328 182 321 q 187 344 182 336 l 300 504 q 322 516 309 516 q 340 509 330 516 q 349 490 349 503 q 344 473 349 481 l 242 328 l 345 183 q 349 167 349 176 q 338 145 349 153 q 321 140 330 140 z "},"":{"ha":460,"x_min":34,"x_max":426,"o":"m 426 327 q 418 308 426 315 q 399 300 410 300 q 379 308 387 300 q 372 327 372 315 l 372 468 l 61 468 q 42 476 50 468 q 34 495 34 484 q 42 515 34 507 q 61 523 50 523 l 399 523 q 418 515 410 523 q 426 495 426 507 l 426 327 z "},"":{"ha":936,"x_min":34,"x_max":902,"o":"m 430 585 l 450 587 q 543 612 509 593 q 587 670 587 636 q 553 726 587 704 q 430 749 515 749 l 430 585 m 672 187 l 600 187 q 581 195 589 187 q 573 214 573 203 q 581 234 573 226 q 600 241 589 241 l 609 241 q 576 426 608 348 q 453 525 545 505 l 430 530 l 430 241 q 452 234 444 241 q 460 214 460 226 q 452 195 460 203 q 433 187 444 187 l 291 187 q 272 195 279 187 q 264 214 264 203 q 272 234 264 226 q 294 241 279 241 l 294 749 q 272 757 279 749 q 264 777 264 765 q 272 796 264 788 q 291 804 279 804 l 433 804 q 626 728 583 804 q 641 670 641 702 q 568 564 641 604 q 542 552 556 557 q 663 241 662 468 l 672 241 q 691 234 684 241 q 699 214 699 226 q 691 195 699 203 q 672 187 684 187 m 376 241 l 376 749 l 349 749 l 349 241 l 376 241 m 468 -65 q 138 71 245 -65 q 34 483 34 205 q 137 907 34 761 q 468 1056 243 1056 q 799 907 693 1056 q 902 483 902 761 q 798 71 902 205 q 468 -65 691 -65 m 468 -11 q 755 104 665 -11 q 848 483 848 223 q 755 874 848 743 q 468 1002 665 1002 q 181 874 271 1002 q 88 483 88 743 q 181 104 88 223 q 468 -11 271 -11 z "},"":{"ha":338,"x_min":34,"x_max":304,"o":"m 276 774 l 62 774 q 42 782 50 774 q 34 801 34 790 q 42 821 34 812 q 62 829 50 829 l 276 829 q 296 821 288 829 q 304 801 304 812 q 296 782 304 790 q 276 774 288 774 z "},"":{"ha":303,"x_min":34,"x_max":269,"o":"m 152 819 q 196 837 178 819 q 214 882 214 855 q 196 926 214 907 q 152 945 178 945 q 107 926 125 945 q 89 882 89 907 q 107 837 89 855 q 152 819 125 819 m 152 764 q 68 799 103 764 q 34 882 34 833 q 68 965 34 930 q 152 999 103 999 q 235 965 200 999 q 269 882 269 930 q 235 799 269 833 q 152 764 200 764 z "},"":{"ha":460,"x_min":34,"x_max":426,"o":"m 257 523 l 399 523 q 418 515 410 523 q 426 495 426 507 q 418 476 426 484 q 399 468 410 468 l 257 468 l 257 327 q 249 308 257 315 q 230 300 241 300 q 211 308 218 300 q 203 327 203 315 l 203 468 l 61 468 q 42 476 50 468 q 34 495 34 484 q 42 515 34 507 q 61 523 50 523 l 203 523 l 203 664 q 211 683 203 675 q 230 691 218 691 q 249 683 241 691 q 257 664 257 675 l 257 523 m 399 55 q 418 47 410 55 q 426 27 426 39 q 418 8 426 16 q 399 0 410 0 l 61 0 q 42 8 50 0 q 34 27 34 16 q 42 47 34 39 q 61 55 50 55 l 399 55 z "},"":{"ha":216,"x_min":34,"x_max":182,"o":"m 62 712 q 41 720 49 712 q 34 738 34 728 q 42 759 34 751 l 136 847 q 156 854 144 854 q 174 846 167 854 q 182 826 182 838 q 174 807 182 815 l 79 720 q 62 712 71 712 z "},"":{"ha":696,"x_min":34,"x_max":663,"o":"m 233 41 q 193 163 204 83 q 179 467 179 258 l 179 602 l 138 602 q 141 277 138 361 q 155 136 144 193 q 233 41 174 41 m 559 54 l 559 602 l 517 602 l 517 54 l 559 54 m 112 -124 q 93 -116 101 -124 q 85 -97 85 -109 l 83 602 l 61 602 q 42 610 50 602 q 34 629 34 618 q 42 648 34 640 q 61 656 50 656 l 256 656 q 275 648 267 656 q 283 629 283 640 q 275 610 283 618 q 256 602 267 602 l 233 602 q 236 298 233 372 q 287 60 243 105 q 441 478 380 134 l 463 602 l 441 602 q 421 610 429 602 q 414 629 414 618 q 421 648 414 640 q 441 656 429 656 l 635 656 q 655 648 647 656 q 663 629 663 640 q 655 610 663 618 q 635 602 647 602 l 613 602 l 613 54 l 635 54 q 655 46 647 54 q 663 27 663 38 q 655 8 663 16 q 635 0 647 0 l 441 0 q 421 8 429 0 q 414 27 414 16 q 421 46 414 38 q 441 54 429 54 l 463 54 l 463 275 q 395 111 430 175 q 234 -14 325 -14 q 139 33 172 -14 l 139 -97 q 131 -116 139 -109 q 112 -124 123 -124 z "},"":{"ha":632,"x_min":34,"x_max":598,"o":"m 534 -119 l 442 -119 q 423 -112 431 -119 q 415 -92 415 -104 q 423 -73 415 -81 q 442 -65 431 -65 l 461 -65 l 461 931 l 387 931 l 387 -92 q 378 -112 387 -104 q 359 -119 370 -119 l 214 -119 q 195 -112 203 -119 q 187 -92 187 -104 q 195 -73 187 -81 q 214 -65 203 -65 l 237 -65 l 237 478 q 34 725 34 494 q 84 916 34 852 q 208 985 138 985 l 571 985 q 590 977 582 985 q 598 958 598 969 q 590 939 598 947 q 571 931 582 931 l 515 931 l 515 -65 l 534 -65 q 554 -73 546 -65 q 562 -92 562 -81 q 554 -112 562 -104 q 534 -119 546 -119 m 332 -65 l 332 931 l 291 931 l 291 -65 l 332 -65 m 237 533 l 237 931 q 176 922 203 931 q 127 884 149 913 q 88 726 88 833 q 129 579 88 627 q 237 533 163 539 z "},"":{"ha":345,"x_min":68,"x_max":222,"o":"m 145 462 q 167 471 158 462 q 176 492 176 480 q 167 514 176 505 q 145 524 158 524 q 123 514 132 524 q 114 492 114 505 q 123 471 114 480 q 145 462 132 462 m 145 415 q 91 438 113 415 q 68 492 68 460 q 91 548 68 525 q 145 570 113 570 q 200 548 177 570 q 222 492 222 525 q 200 438 222 460 q 145 415 177 415 z "},"":{"ha":214,"x_min":34,"x_max":180,"o":"m 57 -220 q 34 -191 34 -220 q 53 -168 34 -173 q 106 -139 88 -157 q 125 -105 125 -120 q 99 -86 125 -86 q 77 -88 90 -86 q 61 -90 64 -90 q 43 -81 50 -90 q 39 -69 39 -75 q 52 18 39 -64 q 77 41 55 41 q 99 31 92 41 q 103 19 103 24 q 98 -31 103 12 q 149 -45 130 -31 q 180 -105 180 -67 q 144 -178 180 -142 q 92 -210 125 -197 q 57 -220 64 -220 z "},"":{"ha":383,"x_min":34,"x_max":349,"o":"m 62 140 q 45 145 53 140 q 34 167 34 153 q 39 183 34 176 l 141 328 l 39 473 q 34 490 34 481 q 43 509 34 503 q 61 516 53 516 q 83 504 75 516 l 196 344 q 201 328 201 336 q 197 313 201 321 l 83 152 q 62 140 75 140 m 210 140 q 193 145 200 140 q 182 167 182 153 q 186 183 182 176 l 289 328 l 187 473 q 182 490 182 481 q 191 509 182 503 q 209 516 201 516 q 231 504 222 516 l 344 344 q 349 328 349 336 q 344 313 349 321 l 231 152 q 210 140 223 140 z "},"":{"ha":823,"x_min":68,"x_max":755,"o":"m 239 472 l 114 472 q 95 480 102 472 q 87 499 87 488 q 94 518 87 510 q 112 526 101 526 l 112 872 q 96 867 104 867 q 81 871 88 867 q 68 894 68 879 q 72 908 68 901 l 114 978 q 139 992 123 992 l 214 992 q 233 984 225 992 q 241 965 241 976 l 241 526 q 259 518 252 526 q 266 499 266 510 q 258 480 266 488 q 239 472 250 472 m 186 526 l 186 938 l 166 938 l 166 526 l 186 526 m 124 0 q 111 3 117 0 q 95 24 95 9 q 101 44 95 33 l 604 974 q 623 986 611 986 q 640 982 631 986 q 656 962 656 975 q 652 947 656 955 l 151 20 q 124 0 140 0 m 728 0 l 604 0 q 585 8 593 0 q 576 27 576 16 q 584 46 576 38 q 602 54 591 54 l 602 152 l 456 155 q 429 179 429 156 q 485 467 429 182 q 467 493 467 475 q 475 512 467 504 q 495 520 484 520 l 541 520 q 560 512 552 520 q 568 493 568 504 q 560 474 568 481 q 541 466 552 466 l 489 206 l 602 206 l 602 466 q 584 475 591 467 q 576 493 576 482 q 585 512 576 504 q 604 520 593 520 l 728 520 q 748 512 740 520 q 755 493 755 504 q 749 475 755 482 q 731 466 742 467 l 731 54 q 749 46 742 54 q 755 27 755 38 q 748 8 755 16 q 728 0 740 0 m 676 54 l 676 466 l 656 466 l 656 54 l 676 54 z "},"":{"ha":815,"x_min":68,"x_max":747,"o":"m 239 472 l 114 472 q 95 480 102 472 q 87 499 87 488 q 94 518 87 510 q 112 526 101 526 l 112 872 q 96 867 104 867 q 81 871 88 867 q 68 894 68 879 q 72 908 68 901 l 114 978 q 139 992 123 992 l 214 992 q 233 984 225 992 q 241 965 241 976 l 241 526 q 259 518 252 526 q 266 499 266 510 q 258 480 266 488 q 239 472 250 472 m 186 526 l 186 938 l 166 938 l 166 526 l 186 526 m 124 0 q 111 3 117 0 q 95 24 95 9 q 101 44 95 33 l 604 974 q 623 986 611 986 q 640 982 631 986 q 656 962 656 975 q 652 947 656 955 l 151 20 q 124 0 140 0 m 534 54 q 650 230 604 138 q 693 379 693 314 q 669 452 693 434 q 650 463 661 459 q 668 379 668 427 q 617 212 668 308 q 513 54 574 131 l 534 54 m 718 0 l 456 0 q 437 8 445 0 q 429 27 429 16 q 435 47 429 39 q 568 238 514 137 q 614 379 614 322 q 562 469 614 454 q 503 429 520 458 q 479 414 494 414 q 467 418 473 414 q 452 442 452 426 q 455 454 452 448 q 511 507 475 489 q 593 527 551 527 q 747 379 747 527 q 699 206 747 305 q 604 54 660 128 l 690 54 l 690 68 q 698 87 690 79 q 718 95 706 95 q 736 87 728 95 q 745 68 745 79 l 745 27 q 736 8 745 16 q 718 0 728 0 z "},"":{"ha":952,"x_min":68,"x_max":884,"o":"m 235 465 q 140 486 183 465 q 73 543 95 507 q 68 557 68 550 q 81 580 68 572 q 95 584 87 584 q 118 571 110 584 q 163 535 132 549 q 184 530 173 530 q 250 565 230 530 q 266 623 266 593 q 250 682 266 652 q 175 737 228 720 q 156 752 157 743 q 155 763 155 762 q 171 787 155 778 q 233 833 215 811 q 249 874 249 851 q 236 920 249 899 q 210 943 227 935 q 123 908 157 935 q 107 902 116 902 q 86 911 94 902 q 79 929 79 920 q 90 949 79 941 q 235 999 155 999 q 340 964 302 999 q 380 871 380 926 q 334 767 380 812 q 395 628 395 705 q 335 497 395 544 q 235 465 294 465 m 296 536 q 334 583 327 557 q 340 626 340 609 q 275 745 340 700 q 263 768 263 753 q 278 792 263 783 q 326 872 326 822 q 292 931 326 908 q 303 874 303 903 q 240 766 303 812 q 319 618 319 713 q 296 536 319 574 m 253 0 q 239 3 246 0 q 224 24 224 9 q 230 44 224 33 l 733 974 q 752 986 740 986 q 768 982 760 986 q 785 962 785 975 q 781 947 785 955 l 279 20 q 253 0 269 0 m 857 0 l 733 0 q 713 8 722 0 q 705 27 705 16 q 712 46 705 38 q 730 54 720 54 l 730 152 l 585 155 q 557 179 557 156 q 614 467 557 182 q 596 493 596 475 q 604 512 596 504 q 624 520 612 520 l 670 520 q 689 512 681 520 q 697 493 697 504 q 689 474 697 481 q 669 466 681 466 l 618 206 l 730 206 l 730 466 q 712 475 720 467 q 705 493 705 482 q 713 512 705 504 q 733 520 722 520 l 857 520 q 877 512 869 520 q 884 493 884 504 q 878 475 884 482 q 860 466 871 467 l 860 54 q 878 46 871 54 q 884 27 884 38 q 877 8 884 16 q 857 0 869 0 m 805 54 l 805 466 l 785 466 l 785 54 l 805 54 z "},"":{"ha":537,"x_min":34,"x_max":503,"o":"m 207 406 l 374 406 q 393 398 385 406 q 401 378 401 390 q 393 359 401 368 q 374 351 385 351 l 358 351 q 361 226 361 260 q 337 136 361 177 q 277 53 312 95 q 233 -5 254 26 q 197 -70 211 -35 q 183 -145 183 -104 q 219 -246 183 -203 q 302 -298 262 -298 q 452 -201 398 -298 q 476 -186 460 -186 q 489 -190 482 -186 q 503 -213 503 -198 q 500 -227 503 -220 q 409 -322 465 -289 q 280 -357 349 -357 q 50 -217 103 -357 q 34 -122 34 -172 q 51 -24 34 -66 q 92 52 67 18 q 143 115 117 85 q 193 179 172 147 q 216 248 214 210 l 222 351 l 207 351 q 188 359 195 351 q 180 378 180 368 q 188 398 180 390 q 207 406 195 406 m 276 351 l 270 244 q 242 155 267 194 q 184 79 218 117 q 139 24 161 54 q 103 -41 117 -5 q 89 -123 89 -77 q 140 -254 89 -205 q 177 -281 155 -270 q 129 -145 129 -221 q 145 -54 129 -95 q 185 21 161 -14 q 235 87 209 56 q 286 157 264 123 q 307 227 307 191 q 304 351 307 257 l 276 351 m 283 602 q 257 591 268 602 q 246 565 246 580 q 257 539 246 550 q 283 528 268 528 q 309 539 298 528 q 319 565 319 550 q 309 591 319 580 q 283 602 298 602 m 283 656 q 347 629 320 656 q 374 565 374 602 q 347 500 374 527 q 283 474 320 474 q 218 500 245 474 q 192 565 192 527 q 218 629 192 602 q 283 656 245 656 z "},"":{"ha":684,"x_min":7,"x_max":681,"o":"m 653 0 l 534 0 q 515 8 524 0 q 507 27 507 16 q 515 46 507 38 q 534 54 524 54 l 567 54 q 526 553 564 347 l 245 553 q 203 54 207 356 l 229 54 q 248 46 240 54 q 256 27 256 38 q 248 8 256 16 q 229 0 240 0 l 34 0 q 15 8 22 0 q 7 27 7 16 q 15 46 7 38 q 34 54 22 54 l 54 54 q 217 916 62 721 q 334 985 272 985 q 547 701 465 985 q 621 54 616 461 l 653 54 q 673 46 665 54 q 681 27 681 38 q 673 8 681 16 q 653 0 665 0 m 149 54 q 201 614 153 401 q 335 931 256 850 q 250 871 292 931 q 109 54 116 678 l 149 54 m 515 608 q 389 907 466 836 q 256 608 313 848 l 515 608 m 357 1042 q 339 1049 347 1042 l 245 1137 q 237 1156 237 1145 q 244 1175 237 1167 q 262 1183 252 1183 q 282 1177 275 1183 l 376 1088 q 385 1067 385 1080 q 377 1050 385 1058 q 357 1042 370 1042 z "},"":{"ha":684,"x_min":7,"x_max":681,"o":"m 653 0 l 534 0 q 515 8 524 0 q 507 27 507 16 q 515 46 507 38 q 534 54 524 54 l 567 54 q 526 553 564 347 l 245 553 q 203 54 207 356 l 229 54 q 248 46 240 54 q 256 27 256 38 q 248 8 256 16 q 229 0 240 0 l 34 0 q 15 8 22 0 q 7 27 7 16 q 15 46 7 38 q 34 54 22 54 l 54 54 q 217 916 62 721 q 334 985 272 985 q 547 701 465 985 q 621 54 616 461 l 653 54 q 673 46 665 54 q 681 27 681 38 q 673 8 681 16 q 653 0 665 0 m 149 54 q 201 614 153 401 q 335 931 256 850 q 250 871 292 931 q 109 54 116 678 l 149 54 m 515 608 q 389 907 466 836 q 256 608 313 848 l 515 608 m 313 1042 q 293 1050 300 1042 q 286 1067 286 1058 q 294 1088 286 1080 l 388 1177 q 408 1183 395 1183 q 426 1175 418 1183 q 433 1156 433 1167 q 425 1137 433 1145 l 330 1049 q 313 1042 323 1042 z "},"":{"ha":684,"x_min":7,"x_max":681,"o":"m 653 0 l 534 0 q 515 8 524 0 q 507 27 507 16 q 515 46 507 38 q 534 54 524 54 l 567 54 q 526 553 564 347 l 245 553 q 203 54 207 356 l 229 54 q 248 46 240 54 q 256 27 256 38 q 248 8 256 16 q 229 0 240 0 l 34 0 q 15 8 22 0 q 7 27 7 16 q 15 46 7 38 q 34 54 22 54 l 54 54 q 217 916 62 721 q 334 985 272 985 q 547 701 465 985 q 621 54 616 461 l 653 54 q 673 46 665 54 q 681 27 681 38 q 673 8 681 16 q 653 0 665 0 m 149 54 q 201 614 153 401 q 335 931 256 850 q 250 871 292 931 q 109 54 116 678 l 149 54 m 515 608 q 389 907 466 836 q 256 608 313 848 l 515 608 m 435 1042 q 412 1049 419 1042 l 335 1119 l 259 1048 q 240 1042 252 1042 q 222 1050 229 1042 q 214 1067 214 1058 q 222 1088 214 1080 l 317 1176 q 335 1183 325 1183 q 353 1176 345 1183 l 448 1088 q 456 1074 456 1080 q 449 1050 456 1058 q 435 1042 441 1042 z "},"":{"ha":684,"x_min":7,"x_max":681,"o":"m 653 0 l 534 0 q 515 8 524 0 q 507 27 507 16 q 515 46 507 38 q 534 54 524 54 l 567 54 q 526 553 564 347 l 245 553 q 203 54 207 356 l 229 54 q 248 46 240 54 q 256 27 256 38 q 248 8 256 16 q 229 0 240 0 l 34 0 q 15 8 22 0 q 7 27 7 16 q 15 46 7 38 q 34 54 22 54 l 54 54 q 217 916 62 721 q 334 985 272 985 q 547 701 465 985 q 621 54 616 461 l 653 54 q 673 46 665 54 q 681 27 681 38 q 673 8 681 16 q 653 0 665 0 m 149 54 q 201 614 153 401 q 335 931 256 850 q 250 871 292 931 q 109 54 116 678 l 149 54 m 515 608 q 389 907 466 836 q 256 608 313 848 l 515 608 m 378 1042 q 341 1054 355 1042 q 314 1081 326 1065 q 292 1102 296 1102 q 285 1097 290 1102 q 266 1059 275 1086 q 240 1042 259 1042 q 217 1055 223 1042 q 214 1068 214 1063 q 215 1078 214 1074 q 292 1156 243 1156 q 329 1144 314 1156 q 355 1116 343 1132 q 378 1096 372 1096 q 404 1138 389 1096 q 428 1156 410 1156 q 438 1154 433 1156 q 456 1129 456 1147 q 454 1120 456 1124 q 378 1042 425 1042 z "},"":{"ha":684,"x_min":7,"x_max":681,"o":"m 653 0 l 534 0 q 515 8 524 0 q 507 27 507 16 q 515 46 507 38 q 534 54 524 54 l 567 54 q 526 553 564 347 l 245 553 q 203 54 207 356 l 229 54 q 248 46 240 54 q 256 27 256 38 q 248 8 256 16 q 229 0 240 0 l 34 0 q 15 8 22 0 q 7 27 7 16 q 15 46 7 38 q 34 54 22 54 l 54 54 q 217 916 62 721 q 334 985 272 985 q 547 701 465 985 q 621 54 616 461 l 653 54 q 673 46 665 54 q 681 27 681 38 q 673 8 681 16 q 653 0 665 0 m 149 54 q 201 614 153 401 q 335 931 256 850 q 250 871 292 931 q 109 54 116 678 l 149 54 m 515 608 q 389 907 466 836 q 256 608 313 848 l 515 608 m 248 1042 q 210 1057 226 1042 q 194 1095 194 1073 q 210 1133 194 1118 q 248 1149 226 1149 q 286 1133 270 1149 q 302 1095 302 1118 q 286 1057 302 1073 q 248 1042 270 1042 m 422 1042 q 384 1057 400 1042 q 368 1095 368 1073 q 384 1133 368 1118 q 422 1149 400 1149 q 460 1133 444 1149 q 476 1095 476 1118 q 460 1057 476 1073 q 422 1042 444 1042 z "},"":{"ha":684,"x_min":7,"x_max":681,"o":"m 653 0 l 534 0 q 515 8 524 0 q 507 27 507 16 q 515 46 507 38 q 534 54 524 54 l 567 54 q 526 553 564 347 l 245 553 q 203 54 207 356 l 229 54 q 248 46 240 54 q 256 27 256 38 q 248 8 256 16 q 229 0 240 0 l 34 0 q 15 8 22 0 q 7 27 7 16 q 15 46 7 38 q 34 54 22 54 l 54 54 q 217 916 62 721 q 334 985 272 985 q 547 701 465 985 q 621 54 616 461 l 653 54 q 673 46 665 54 q 681 27 681 38 q 673 8 681 16 q 653 0 665 0 m 149 54 q 201 614 153 401 q 335 931 256 850 q 250 871 292 931 q 109 54 116 678 l 149 54 m 515 608 q 389 907 466 836 q 256 608 313 848 l 515 608 m 335 993 q 267 1021 295 993 q 239 1088 239 1049 q 267 1156 239 1128 q 335 1183 295 1183 q 402 1156 374 1183 q 430 1088 430 1128 q 402 1021 430 1049 q 335 993 374 993 m 335 1048 q 364 1060 352 1048 q 376 1088 376 1072 q 364 1117 376 1105 q 335 1129 352 1129 q 306 1117 318 1129 q 294 1088 294 1105 q 306 1060 294 1072 q 335 1048 318 1048 z "},"":{"ha":823,"x_min":7,"x_max":805,"o":"m 149 54 q 201 614 153 401 q 335 931 256 850 q 250 871 292 931 q 109 54 116 678 l 149 54 m 488 54 l 488 931 l 448 931 l 448 54 l 488 54 m 393 608 l 393 911 l 389 907 q 256 608 313 848 l 393 608 m 778 0 l 371 0 q 352 8 359 0 q 344 27 344 16 q 352 46 344 38 q 371 54 359 54 l 393 54 l 393 553 l 245 553 q 203 54 207 356 l 229 54 q 248 46 240 54 q 256 27 256 38 q 248 8 256 16 q 229 0 240 0 l 34 0 q 15 8 22 0 q 7 27 7 16 q 15 46 7 38 q 34 54 22 54 l 54 54 q 217 916 62 721 q 334 985 272 985 l 778 985 q 797 977 789 985 q 805 958 805 969 l 805 878 q 797 858 805 866 q 778 850 789 850 q 759 858 767 850 q 751 878 751 866 l 751 931 l 543 931 l 543 608 l 684 608 q 692 630 684 622 q 711 637 700 637 q 731 630 723 637 q 739 610 739 622 l 739 551 q 731 532 739 540 q 711 524 723 524 q 692 532 700 524 q 684 553 684 540 l 543 553 l 543 54 l 751 54 l 751 107 q 759 127 751 119 q 778 135 767 135 q 797 127 789 135 q 805 107 805 119 l 805 27 q 797 8 805 16 q 778 0 789 0 z "},"":{"ha":589,"x_min":23,"x_max":589,"o":"m 239 60 q 119 495 119 178 q 239 924 119 806 q 77 492 77 852 q 239 60 77 134 m 321 -220 q 298 -191 298 -220 q 317 -168 298 -173 q 371 -139 353 -157 q 389 -105 389 -120 q 363 -86 389 -86 q 342 -88 355 -86 q 326 -90 329 -90 q 308 -81 314 -90 q 304 -69 304 -75 q 311 -13 304 -65 q 23 494 23 9 q 340 999 23 999 q 585 857 507 999 q 589 844 589 850 q 575 821 589 828 q 562 817 568 817 q 538 831 546 817 q 366 940 466 940 q 229 819 283 940 q 173 495 173 705 q 230 165 173 279 q 366 45 292 45 q 538 154 470 45 q 562 168 547 168 q 575 165 569 168 q 589 141 589 157 q 585 127 589 134 q 364 -14 513 -3 l 362 -31 q 414 -45 395 -31 q 444 -105 444 -67 q 408 -178 444 -142 q 356 -210 389 -197 q 321 -220 329 -220 z "},"":{"ha":590,"x_min":44,"x_max":572,"o":"m 545 0 l 71 0 q 52 8 60 0 q 44 27 44 16 q 52 46 44 38 q 71 54 60 54 l 94 54 l 94 931 l 71 931 q 52 939 60 931 q 44 958 44 947 q 52 977 44 969 q 71 985 60 985 l 545 985 q 564 977 556 985 q 572 958 572 969 l 572 878 q 564 858 572 866 q 545 850 556 850 q 526 858 534 850 q 517 878 517 866 l 517 931 l 243 931 l 243 608 l 451 608 q 459 630 451 622 q 478 637 467 637 q 497 630 490 637 q 505 610 505 622 l 505 551 q 497 532 505 540 q 478 524 490 524 q 459 532 467 524 q 451 553 451 540 l 243 553 l 243 54 l 517 54 l 517 107 q 526 127 517 119 q 545 135 534 135 q 564 127 556 135 q 572 107 572 119 l 572 27 q 564 8 572 16 q 545 0 556 0 m 189 54 l 189 931 l 148 931 l 148 54 l 189 54 m 330 1042 q 312 1049 320 1042 l 218 1137 q 210 1156 210 1145 q 217 1175 210 1167 q 235 1183 224 1183 q 255 1177 248 1183 l 349 1088 q 357 1067 357 1080 q 350 1050 357 1058 q 330 1042 342 1042 z "},"":{"ha":590,"x_min":44,"x_max":572,"o":"m 545 0 l 71 0 q 52 8 60 0 q 44 27 44 16 q 52 46 44 38 q 71 54 60 54 l 94 54 l 94 931 l 71 931 q 52 939 60 931 q 44 958 44 947 q 52 977 44 969 q 71 985 60 985 l 545 985 q 564 977 556 985 q 572 958 572 969 l 572 878 q 564 858 572 866 q 545 850 556 850 q 526 858 534 850 q 517 878 517 866 l 517 931 l 243 931 l 243 608 l 451 608 q 459 630 451 622 q 478 637 467 637 q 497 630 490 637 q 505 610 505 622 l 505 551 q 497 532 505 540 q 478 524 490 524 q 459 532 467 524 q 451 553 451 540 l 243 553 l 243 54 l 517 54 l 517 107 q 526 127 517 119 q 545 135 534 135 q 564 127 556 135 q 572 107 572 119 l 572 27 q 564 8 572 16 q 545 0 556 0 m 189 54 l 189 931 l 148 931 l 148 54 l 189 54 m 286 1042 q 266 1050 273 1042 q 258 1067 258 1058 q 267 1088 258 1080 l 361 1177 q 380 1183 368 1183 q 399 1175 391 1183 q 406 1156 406 1167 q 398 1137 406 1145 l 303 1049 q 286 1042 296 1042 z "},"":{"ha":590,"x_min":44,"x_max":572,"o":"m 545 0 l 71 0 q 52 8 60 0 q 44 27 44 16 q 52 46 44 38 q 71 54 60 54 l 94 54 l 94 931 l 71 931 q 52 939 60 931 q 44 958 44 947 q 52 977 44 969 q 71 985 60 985 l 545 985 q 564 977 556 985 q 572 958 572 969 l 572 878 q 564 858 572 866 q 545 850 556 850 q 526 858 534 850 q 517 878 517 866 l 517 931 l 243 931 l 243 608 l 451 608 q 459 630 451 622 q 478 637 467 637 q 497 630 490 637 q 505 610 505 622 l 505 551 q 497 532 505 540 q 478 524 490 524 q 459 532 467 524 q 451 553 451 540 l 243 553 l 243 54 l 517 54 l 517 107 q 526 127 517 119 q 545 135 534 135 q 564 127 556 135 q 572 107 572 119 l 572 27 q 564 8 572 16 q 545 0 556 0 m 189 54 l 189 931 l 148 931 l 148 54 l 189 54 m 408 1042 q 385 1049 392 1042 l 308 1119 l 232 1048 q 213 1042 224 1042 q 195 1050 202 1042 q 187 1067 187 1058 q 195 1088 187 1080 l 290 1176 q 308 1183 298 1183 q 326 1176 318 1183 l 420 1088 q 429 1074 429 1080 q 422 1050 429 1058 q 408 1042 414 1042 z "},"":{"ha":590,"x_min":44,"x_max":572,"o":"m 545 0 l 71 0 q 52 8 60 0 q 44 27 44 16 q 52 46 44 38 q 71 54 60 54 l 94 54 l 94 931 l 71 931 q 52 939 60 931 q 44 958 44 947 q 52 977 44 969 q 71 985 60 985 l 545 985 q 564 977 556 985 q 572 958 572 969 l 572 878 q 564 858 572 866 q 545 850 556 850 q 526 858 534 850 q 517 878 517 866 l 517 931 l 243 931 l 243 608 l 451 608 q 459 630 451 622 q 478 637 467 637 q 497 630 490 637 q 505 610 505 622 l 505 551 q 497 532 505 540 q 478 524 490 524 q 459 532 467 524 q 451 553 451 540 l 243 553 l 243 54 l 517 54 l 517 107 q 526 127 517 119 q 545 135 534 135 q 564 127 556 135 q 572 107 572 119 l 572 27 q 564 8 572 16 q 545 0 556 0 m 189 54 l 189 931 l 148 931 l 148 54 l 189 54 m 220 1042 q 183 1057 199 1042 q 167 1095 167 1073 q 183 1133 167 1118 q 220 1149 199 1149 q 259 1133 243 1149 q 275 1095 275 1118 q 259 1057 275 1073 q 220 1042 243 1042 m 395 1042 q 357 1057 373 1042 q 341 1095 341 1073 q 357 1133 341 1118 q 395 1149 373 1149 q 433 1133 417 1149 q 449 1095 449 1118 q 433 1057 449 1073 q 395 1042 417 1042 z "},"":{"ha":338,"x_min":44,"x_max":294,"o":"m 266 0 l 71 0 q 52 8 60 0 q 44 27 44 16 q 52 46 44 38 q 71 54 60 54 l 94 54 l 94 931 l 71 931 q 52 939 60 931 q 44 958 44 947 q 52 977 44 969 q 71 985 60 985 l 266 985 q 286 977 277 985 q 294 958 294 969 q 286 939 294 947 q 266 931 277 931 l 243 931 l 243 54 l 266 54 q 286 46 277 54 q 294 27 294 38 q 286 8 294 16 q 266 0 277 0 m 189 54 l 189 931 l 149 931 l 149 54 l 189 54 m 191 1042 q 173 1049 181 1042 l 79 1137 q 71 1156 71 1145 q 78 1175 71 1167 q 96 1183 85 1183 q 116 1177 109 1183 l 210 1088 q 218 1067 218 1080 q 211 1050 218 1058 q 191 1042 203 1042 z "},"":{"ha":338,"x_min":44,"x_max":294,"o":"m 266 0 l 71 0 q 52 8 60 0 q 44 27 44 16 q 52 46 44 38 q 71 54 60 54 l 94 54 l 94 931 l 71 931 q 52 939 60 931 q 44 958 44 947 q 52 977 44 969 q 71 985 60 985 l 266 985 q 286 977 277 985 q 294 958 294 969 q 286 939 294 947 q 266 931 277 931 l 243 931 l 243 54 l 266 54 q 286 46 277 54 q 294 27 294 38 q 286 8 294 16 q 266 0 277 0 m 189 54 l 189 931 l 149 931 l 149 54 l 189 54 m 147 1042 q 127 1050 134 1042 q 119 1067 119 1058 q 127 1088 119 1080 l 222 1177 q 241 1183 229 1183 q 260 1175 252 1183 q 267 1156 267 1167 q 259 1137 267 1145 l 164 1049 q 147 1042 157 1042 z "},"":{"ha":338,"x_min":44,"x_max":294,"o":"m 266 0 l 71 0 q 52 8 60 0 q 44 27 44 16 q 52 46 44 38 q 71 54 60 54 l 94 54 l 94 931 l 71 931 q 52 939 60 931 q 44 958 44 947 q 52 977 44 969 q 71 985 60 985 l 266 985 q 286 977 277 985 q 294 958 294 969 q 286 939 294 947 q 266 931 277 931 l 243 931 l 243 54 l 266 54 q 286 46 277 54 q 294 27 294 38 q 286 8 294 16 q 266 0 277 0 m 189 54 l 189 931 l 149 931 l 149 54 l 189 54 m 269 1042 q 245 1049 253 1042 l 169 1119 l 93 1048 q 74 1042 85 1042 q 56 1050 63 1042 q 48 1067 48 1058 q 56 1088 48 1080 l 151 1176 q 169 1183 159 1183 q 186 1176 179 1183 l 281 1088 q 290 1074 290 1080 q 283 1050 290 1058 q 269 1042 275 1042 z "},"":{"ha":370,"x_min":44,"x_max":326,"o":"m 282 0 l 87 0 q 68 8 77 0 q 60 27 60 16 q 68 46 60 38 q 87 54 77 54 l 110 54 l 110 931 l 87 931 q 68 939 77 931 q 60 958 60 947 q 68 977 60 969 q 87 985 77 985 l 282 985 q 302 977 294 985 q 310 958 310 969 q 302 939 310 947 q 282 931 294 931 l 260 931 l 260 54 l 282 54 q 302 46 294 54 q 310 27 310 38 q 302 8 310 16 q 282 0 294 0 m 205 54 l 205 931 l 165 931 l 165 54 l 205 54 m 98 1042 q 60 1057 76 1042 q 44 1095 44 1073 q 60 1133 44 1118 q 98 1149 76 1149 q 136 1133 120 1149 q 152 1095 152 1118 q 136 1057 152 1073 q 98 1042 120 1042 m 272 1042 q 234 1057 250 1042 q 218 1095 218 1073 q 234 1133 218 1118 q 272 1149 250 1149 q 310 1133 294 1149 q 326 1095 326 1118 q 310 1057 326 1073 q 272 1042 294 1042 z "},"":{"ha":711,"x_min":44,"x_max":678,"o":"m 433 86 q 601 311 555 150 q 624 481 624 393 q 601 663 624 577 q 431 899 555 834 q 557 680 520 819 q 583 481 583 585 q 557 294 583 385 q 433 86 519 164 m 293 0 l 96 0 q 77 8 85 0 q 69 27 69 16 q 77 46 69 38 q 96 54 85 54 l 119 54 l 119 465 l 71 465 q 52 473 60 465 q 44 492 44 481 q 52 512 44 504 q 71 519 60 519 l 119 519 l 119 931 l 96 931 q 77 939 85 931 q 69 958 69 947 q 77 977 69 969 q 96 985 85 985 l 291 985 q 456 948 385 985 q 652 680 601 871 q 678 481 678 585 q 652 294 678 385 q 572 133 626 203 q 293 0 469 0 m 269 62 q 505 311 447 104 q 528 481 528 393 q 506 663 528 577 q 269 923 448 879 l 269 519 l 382 519 q 401 512 393 519 q 409 492 409 504 q 401 473 409 481 q 382 465 393 465 l 269 465 l 269 62 m 214 54 l 214 931 l 174 931 l 174 54 l 214 54 z "},"":{"ha":724,"x_min":44,"x_max":680,"o":"m 652 0 l 534 0 q 514 8 522 0 q 507 27 507 16 q 514 46 507 38 q 534 54 522 54 l 559 54 q 411 519 499 309 q 243 859 336 697 l 243 54 l 266 54 q 285 46 277 54 q 293 27 293 38 q 285 8 293 16 q 266 0 277 0 l 71 0 q 52 8 60 0 q 44 27 44 16 q 52 46 44 38 q 71 54 60 54 l 94 54 l 94 931 l 71 931 q 52 939 60 931 q 44 958 44 947 q 52 977 44 969 q 71 985 60 985 l 266 985 q 285 977 277 985 q 293 958 293 969 q 285 939 293 947 q 264 931 277 931 q 566 243 460 602 l 566 931 l 534 931 q 514 939 522 931 q 507 958 507 947 q 514 977 507 969 q 534 985 522 985 l 652 985 q 672 977 664 985 q 680 958 680 969 q 672 939 680 947 q 652 931 664 931 l 621 931 l 621 54 l 652 54 q 672 46 664 54 q 680 27 680 38 q 672 8 680 16 q 652 0 664 0 m 189 54 l 189 931 l 148 931 l 148 54 l 189 54 m 404 1042 q 367 1054 382 1042 q 340 1081 353 1065 q 318 1102 323 1102 q 311 1097 316 1102 q 292 1059 302 1086 q 267 1042 286 1042 q 243 1055 250 1042 q 240 1068 240 1063 q 241 1078 240 1074 q 318 1156 269 1156 q 355 1144 340 1156 q 382 1116 370 1132 q 404 1096 399 1096 q 430 1138 415 1096 q 454 1156 437 1156 q 465 1154 460 1156 q 482 1129 482 1147 q 481 1120 482 1124 q 404 1042 452 1042 z "},"":{"ha":699,"x_min":23,"x_max":657,"o":"m 340 -14 q 98 112 176 -14 q 23 481 23 232 q 97 861 23 730 q 340 999 174 999 q 606 817 530 999 q 657 481 657 693 q 583 112 657 232 q 340 -14 505 -14 m 387 58 q 603 481 595 58 q 386 922 597 922 q 229 816 281 922 q 173 481 173 699 q 229 158 173 266 q 387 58 280 58 m 231 62 q 119 481 119 176 q 240 925 119 804 q 78 481 78 852 q 144 140 78 247 q 231 62 178 86 m 361 1042 q 344 1049 352 1042 l 250 1137 q 241 1156 241 1145 q 249 1175 241 1167 q 267 1183 256 1183 q 287 1177 279 1183 l 381 1088 q 389 1067 389 1080 q 382 1050 389 1058 q 361 1042 374 1042 z "},"":{"ha":699,"x_min":23,"x_max":657,"o":"m 340 -14 q 98 112 176 -14 q 23 481 23 232 q 97 861 23 730 q 340 999 174 999 q 606 817 530 999 q 657 481 657 693 q 583 112 657 232 q 340 -14 505 -14 m 387 58 q 603 481 595 58 q 386 922 597 922 q 229 816 281 922 q 173 481 173 699 q 229 158 173 266 q 387 58 280 58 m 231 62 q 119 481 119 176 q 240 925 119 804 q 78 481 78 852 q 144 140 78 247 q 231 62 178 86 m 318 1042 q 298 1050 305 1042 q 290 1067 290 1058 q 298 1088 290 1080 l 393 1177 q 412 1183 400 1183 q 431 1175 423 1183 q 438 1156 438 1167 q 430 1137 438 1145 l 335 1049 q 318 1042 328 1042 z "},"":{"ha":699,"x_min":23,"x_max":657,"o":"m 340 -14 q 98 112 176 -14 q 23 481 23 232 q 97 861 23 730 q 340 999 174 999 q 606 817 530 999 q 657 481 657 693 q 583 112 657 232 q 340 -14 505 -14 m 387 58 q 603 481 595 58 q 386 922 597 922 q 229 816 281 922 q 173 481 173 699 q 229 158 173 266 q 387 58 280 58 m 231 62 q 119 481 119 176 q 240 925 119 804 q 78 481 78 852 q 144 140 78 247 q 231 62 178 86 m 440 1042 q 416 1049 424 1042 l 340 1119 l 264 1048 q 245 1042 256 1042 q 227 1050 234 1042 q 219 1067 219 1058 q 227 1088 219 1080 l 322 1176 q 340 1183 330 1183 q 357 1176 350 1183 l 452 1088 q 461 1074 461 1080 q 454 1050 461 1058 q 440 1042 446 1042 z "},"":{"ha":699,"x_min":23,"x_max":657,"o":"m 340 -14 q 98 112 176 -14 q 23 481 23 232 q 97 861 23 730 q 340 999 174 999 q 606 817 530 999 q 657 481 657 693 q 583 112 657 232 q 340 -14 505 -14 m 387 58 q 603 481 595 58 q 386 922 597 922 q 229 816 281 922 q 173 481 173 699 q 229 158 173 266 q 387 58 280 58 m 231 62 q 119 481 119 176 q 240 925 119 804 q 78 481 78 852 q 144 140 78 247 q 231 62 178 86 m 382 1042 q 346 1054 360 1042 q 319 1081 331 1065 q 296 1102 301 1102 q 290 1097 294 1102 q 271 1059 280 1086 q 245 1042 264 1042 q 222 1055 228 1042 q 218 1068 218 1063 q 220 1078 218 1074 q 296 1156 248 1156 q 333 1144 319 1156 q 360 1116 348 1132 q 382 1096 377 1096 q 408 1138 393 1096 q 433 1156 415 1156 q 443 1154 438 1156 q 460 1129 460 1147 q 459 1120 460 1124 q 382 1042 430 1042 z "},"":{"ha":699,"x_min":23,"x_max":657,"o":"m 340 -14 q 98 112 176 -14 q 23 481 23 232 q 97 861 23 730 q 340 999 174 999 q 606 817 530 999 q 657 481 657 693 q 583 112 657 232 q 340 -14 505 -14 m 387 58 q 603 481 595 58 q 386 922 597 922 q 229 816 281 922 q 173 481 173 699 q 229 158 173 266 q 387 58 280 58 m 231 62 q 119 481 119 176 q 240 925 119 804 q 78 481 78 852 q 144 140 78 247 q 231 62 178 86 m 252 1042 q 215 1057 231 1042 q 199 1095 199 1073 q 215 1133 199 1118 q 252 1149 231 1149 q 291 1133 275 1149 q 307 1095 307 1118 q 291 1057 307 1073 q 252 1042 275 1042 m 427 1042 q 389 1057 405 1042 q 373 1095 373 1073 q 389 1133 373 1118 q 427 1149 405 1149 q 465 1133 449 1149 q 481 1095 481 1118 q 465 1057 481 1073 q 427 1042 449 1042 z "},"":{"ha":405,"x_min":34,"x_max":371,"o":"m 344 327 q 324 335 332 327 l 202 457 l 80 335 q 61 327 72 327 q 42 335 50 327 q 34 354 34 344 q 42 372 34 364 l 164 496 l 42 618 q 34 637 34 627 q 42 655 34 647 q 61 664 50 664 q 80 656 72 664 l 202 534 l 324 656 q 344 664 332 664 q 362 655 354 664 q 371 637 371 647 q 363 618 371 626 l 241 496 l 363 373 q 371 354 371 365 q 362 335 371 344 q 344 327 354 327 z "},"":{"ha":699,"x_min":23,"x_max":657,"o":"m 231 62 q 119 481 119 176 q 240 925 119 804 q 78 481 78 852 q 144 140 78 247 q 231 62 178 86 m 260 112 l 433 916 q 386 922 411 922 q 229 816 281 922 q 173 481 173 699 q 260 112 173 208 m 387 58 q 603 481 595 58 q 482 892 598 807 l 307 76 q 387 58 342 58 m 237 -133 q 214 -105 214 -133 l 236 1 q 98 112 149 30 q 23 481 23 232 q 340 999 23 999 q 447 981 399 999 l 471 1092 q 500 1118 477 1118 q 524 1090 524 1118 l 496 957 q 657 481 657 852 q 583 112 657 232 q 340 -14 505 -14 q 288 -11 313 -14 l 267 -106 q 237 -133 261 -133 z "},"":{"ha":771,"x_min":30,"x_max":753,"o":"m 387 -14 q 151 113 227 -14 q 79 482 79 232 l 79 931 l 57 931 q 38 939 45 931 q 30 958 30 947 q 38 977 30 969 q 57 985 45 985 l 252 985 q 271 977 263 985 q 279 958 279 969 q 271 939 279 947 q 252 931 263 931 l 229 931 l 229 482 q 283 159 229 267 q 435 60 333 60 q 640 482 640 60 l 640 931 l 608 931 q 588 939 596 931 q 581 958 581 947 q 588 977 581 969 q 608 985 596 985 l 726 985 q 746 977 738 985 q 753 958 753 969 q 746 939 753 947 q 726 931 738 931 l 694 931 l 694 482 q 623 113 694 232 q 387 -14 547 -14 m 287 59 q 174 482 174 173 l 174 931 l 134 931 l 134 482 q 197 140 134 247 q 287 59 232 83 m 414 1042 q 396 1049 404 1042 l 302 1137 q 294 1156 294 1145 q 301 1175 294 1167 q 319 1183 309 1183 q 339 1177 332 1183 l 433 1088 q 441 1067 441 1080 q 434 1050 441 1058 q 414 1042 427 1042 z "},"":{"ha":771,"x_min":30,"x_max":753,"o":"m 387 -14 q 151 113 227 -14 q 79 482 79 232 l 79 931 l 57 931 q 38 939 45 931 q 30 958 30 947 q 38 977 30 969 q 57 985 45 985 l 252 985 q 271 977 263 985 q 279 958 279 969 q 271 939 279 947 q 252 931 263 931 l 229 931 l 229 482 q 283 159 229 267 q 435 60 333 60 q 640 482 640 60 l 640 931 l 608 931 q 588 939 596 931 q 581 958 581 947 q 588 977 581 969 q 608 985 596 985 l 726 985 q 746 977 738 985 q 753 958 753 969 q 746 939 753 947 q 726 931 738 931 l 694 931 l 694 482 q 623 113 694 232 q 387 -14 547 -14 m 287 59 q 174 482 174 173 l 174 931 l 134 931 l 134 482 q 197 140 134 247 q 287 59 232 83 m 370 1042 q 350 1050 357 1042 q 342 1067 342 1058 q 351 1088 342 1080 l 445 1177 q 465 1183 452 1183 q 483 1175 475 1183 q 490 1156 490 1167 q 482 1137 490 1145 l 387 1049 q 370 1042 380 1042 z "},"":{"ha":771,"x_min":30,"x_max":753,"o":"m 387 -14 q 151 113 227 -14 q 79 482 79 232 l 79 931 l 57 931 q 38 939 45 931 q 30 958 30 947 q 38 977 30 969 q 57 985 45 985 l 252 985 q 271 977 263 985 q 279 958 279 969 q 271 939 279 947 q 252 931 263 931 l 229 931 l 229 482 q 283 159 229 267 q 435 60 333 60 q 640 482 640 60 l 640 931 l 608 931 q 588 939 596 931 q 581 958 581 947 q 588 977 581 969 q 608 985 596 985 l 726 985 q 746 977 738 985 q 753 958 753 969 q 746 939 753 947 q 726 931 738 931 l 694 931 l 694 482 q 623 113 694 232 q 387 -14 547 -14 m 287 59 q 174 482 174 173 l 174 931 l 134 931 l 134 482 q 197 140 134 247 q 287 59 232 83 m 492 1042 q 469 1049 476 1042 l 392 1119 l 316 1048 q 297 1042 309 1042 q 279 1050 286 1042 q 271 1067 271 1058 q 279 1088 271 1080 l 374 1176 q 392 1183 382 1183 q 410 1176 402 1183 l 505 1088 q 513 1074 513 1080 q 506 1050 513 1058 q 492 1042 498 1042 z "},"":{"ha":771,"x_min":30,"x_max":753,"o":"m 387 -14 q 151 113 227 -14 q 79 482 79 232 l 79 931 l 57 931 q 38 939 45 931 q 30 958 30 947 q 38 977 30 969 q 57 985 45 985 l 252 985 q 271 977 263 985 q 279 958 279 969 q 271 939 279 947 q 252 931 263 931 l 229 931 l 229 482 q 283 159 229 267 q 435 60 333 60 q 640 482 640 60 l 640 931 l 608 931 q 588 939 596 931 q 581 958 581 947 q 588 977 581 969 q 608 985 596 985 l 726 985 q 746 977 738 985 q 753 958 753 969 q 746 939 753 947 q 726 931 738 931 l 694 931 l 694 482 q 623 113 694 232 q 387 -14 547 -14 m 287 59 q 174 482 174 173 l 174 931 l 134 931 l 134 482 q 197 140 134 247 q 287 59 232 83 m 304 1042 q 267 1057 283 1042 q 251 1095 251 1073 q 267 1133 251 1118 q 304 1149 283 1149 q 343 1133 327 1149 q 359 1095 359 1118 q 343 1057 359 1073 q 304 1042 327 1042 m 479 1042 q 441 1057 457 1042 q 425 1095 425 1073 q 441 1133 425 1118 q 479 1149 457 1149 q 517 1133 501 1149 q 533 1095 533 1118 q 517 1057 533 1073 q 479 1042 501 1042 z "},"":{"ha":648,"x_min":-5,"x_max":692,"o":"m 436 0 l 241 0 q 222 8 230 0 q 214 27 214 16 q 222 46 214 38 q 241 54 230 54 l 264 54 l 264 441 q 117 606 169 478 q 58 931 63 739 l 22 931 q 3 939 11 931 q -5 958 -5 947 q 3 977 -5 969 q 22 985 11 985 l 217 985 q 236 977 228 985 q 244 958 244 969 q 236 939 244 947 q 217 931 228 931 l 208 931 q 252 651 210 746 q 391 556 295 556 q 531 652 487 556 q 578 931 576 749 l 546 931 q 526 939 534 931 q 518 958 518 947 q 526 977 518 969 q 546 985 534 985 l 665 985 q 684 977 675 985 q 692 958 692 969 q 684 939 692 947 q 665 931 675 931 l 632 931 q 580 629 630 737 q 416 492 528 518 l 414 54 l 436 54 q 455 46 447 54 q 463 27 463 38 q 455 8 463 16 q 436 0 447 0 m 359 54 l 362 493 q 203 629 253 520 q 154 931 155 734 l 113 931 q 167 627 117 749 q 297 488 215 509 q 312 478 307 486 q 318 461 318 471 l 318 54 l 359 54 m 322 1042 q 302 1050 309 1042 q 294 1067 294 1058 q 302 1088 294 1080 l 397 1177 q 416 1183 404 1183 q 435 1175 427 1183 q 442 1156 442 1167 q 434 1137 442 1145 l 339 1049 q 322 1042 332 1042 z "},"":{"ha":590,"x_min":44,"x_max":593,"o":"m 243 487 q 457 534 378 490 q 539 646 539 579 q 474 753 539 715 q 267 795 404 795 l 243 795 l 243 487 m 267 -136 l 72 -136 q 52 -128 60 -136 q 44 -109 44 -120 q 52 -90 44 -98 q 72 -81 60 -81 l 94 -81 l 94 931 l 71 931 q 52 939 60 931 q 44 958 44 947 q 52 977 44 969 q 71 985 60 985 l 266 985 q 286 977 277 985 q 294 958 294 969 q 286 939 294 947 q 266 931 277 931 l 243 931 l 243 850 l 267 850 q 501 800 418 850 q 593 646 593 745 q 483 487 593 548 q 243 432 390 436 l 243 -81 l 267 -81 q 286 -90 277 -81 q 294 -109 294 -98 q 286 -128 294 -120 q 267 -136 277 -136 m 189 -81 l 189 931 l 149 931 l 149 -81 l 189 -81 z "},"":{"ha":769,"x_min":22,"x_max":760,"o":"m 518 -14 q 392 9 450 -14 q 301 76 334 32 q 296 92 296 83 q 307 114 296 106 q 323 119 315 119 q 345 108 336 119 q 470 45 384 57 q 610 194 610 71 q 576 312 610 254 q 496 389 547 361 q 417 440 454 413 q 358 507 380 468 q 336 603 336 545 q 353 710 336 644 q 372 823 372 781 q 349 909 372 879 q 286 941 329 932 q 242 881 260 926 q 221 756 221 831 l 221 54 l 243 54 q 263 46 255 54 q 271 27 271 38 q 263 8 271 16 q 243 0 255 0 l 49 0 q 30 8 37 0 q 22 27 22 16 q 30 46 22 38 q 49 54 37 54 l 71 54 l 71 756 q 115 930 71 869 q 246 999 163 999 q 389 943 343 999 q 427 823 427 897 q 407 696 427 770 q 390 603 390 633 q 450 485 390 532 q 557 422 486 457 q 631 383 595 404 q 743 271 712 336 q 760 180 760 233 q 690 37 760 93 q 518 -14 625 -14 m 166 54 l 166 756 q 210 939 166 869 q 134 842 155 921 q 125 756 125 807 l 125 54 l 166 54 m 612 56 q 694 126 671 79 q 706 180 706 152 q 637 313 706 261 q 665 194 665 254 q 612 56 665 111 z "},"":{"ha":679,"x_min":16,"x_max":677,"o":"m 556 -14 q 479 27 509 -14 q 436 155 450 69 q 422 277 427 207 q 281 25 360 77 q 198 0 243 0 q 67 96 117 0 q 16 327 16 191 q 99 598 16 504 q 234 656 149 656 q 413 588 328 656 l 413 629 q 421 648 413 640 q 440 656 429 656 l 584 656 q 603 648 595 656 q 611 629 611 640 q 603 610 611 618 q 584 602 595 602 l 563 602 q 576 235 563 366 q 613 80 587 122 q 626 99 620 89 q 639 111 632 109 q 650 113 646 113 q 663 110 656 113 q 677 86 677 102 q 673 73 677 79 q 622 12 650 34 q 556 -14 587 -14 m 556 41 q 572 45 563 41 q 522 229 535 98 q 508 602 508 365 l 467 602 l 467 585 q 489 165 467 300 q 556 41 509 41 m 250 70 q 304 133 278 88 q 408 455 359 225 q 414 515 414 484 q 271 598 339 587 q 216 543 237 581 q 166 332 166 458 q 206 129 166 216 q 250 70 224 90 m 189 55 q 157 105 171 77 q 112 332 112 203 q 170 572 112 473 q 183 593 176 583 q 83 445 110 560 q 71 327 71 388 q 83 209 71 266 q 124 104 98 146 q 189 55 151 62 m 351 712 q 333 720 341 712 l 239 807 q 231 826 231 815 q 238 846 231 838 q 256 854 245 854 q 276 847 269 854 l 370 759 q 378 738 378 751 q 371 720 378 728 q 351 712 363 712 z "},"":{"ha":679,"x_min":16,"x_max":677,"o":"m 556 -14 q 479 27 509 -14 q 436 155 450 69 q 422 277 427 207 q 281 25 360 77 q 198 0 243 0 q 67 96 117 0 q 16 327 16 191 q 99 598 16 504 q 234 656 149 656 q 413 588 328 656 l 413 629 q 421 648 413 640 q 440 656 429 656 l 584 656 q 603 648 595 656 q 611 629 611 640 q 603 610 611 618 q 584 602 595 602 l 563 602 q 576 235 563 366 q 613 80 587 122 q 626 99 620 89 q 639 111 632 109 q 650 113 646 113 q 663 110 656 113 q 677 86 677 102 q 673 73 677 79 q 622 12 650 34 q 556 -14 587 -14 m 556 41 q 572 45 563 41 q 522 229 535 98 q 508 602 508 365 l 467 602 l 467 585 q 489 165 467 300 q 556 41 509 41 m 250 70 q 304 133 278 88 q 408 455 359 225 q 414 515 414 484 q 271 598 339 587 q 216 543 237 581 q 166 332 166 458 q 206 129 166 216 q 250 70 224 90 m 189 55 q 157 105 171 77 q 112 332 112 203 q 170 572 112 473 q 183 593 176 583 q 83 445 110 560 q 71 327 71 388 q 83 209 71 266 q 124 104 98 146 q 189 55 151 62 m 258 712 q 237 720 245 712 q 230 738 230 728 q 238 759 230 751 l 332 847 q 352 854 340 854 q 370 846 363 854 q 378 826 378 838 q 370 807 378 815 l 275 720 q 258 712 267 712 z "},"":{"ha":679,"x_min":16,"x_max":677,"o":"m 556 -14 q 479 27 509 -14 q 436 155 450 69 q 422 277 427 207 q 281 25 360 77 q 198 0 243 0 q 67 96 117 0 q 16 327 16 191 q 99 598 16 504 q 234 656 149 656 q 413 588 328 656 l 413 629 q 421 648 413 640 q 440 656 429 656 l 584 656 q 603 648 595 656 q 611 629 611 640 q 603 610 611 618 q 584 602 595 602 l 563 602 q 576 235 563 366 q 613 80 587 122 q 626 99 620 89 q 639 111 632 109 q 650 113 646 113 q 663 110 656 113 q 677 86 677 102 q 673 73 677 79 q 622 12 650 34 q 556 -14 587 -14 m 556 41 q 572 45 563 41 q 522 229 535 98 q 508 602 508 365 l 467 602 l 467 585 q 489 165 467 300 q 556 41 509 41 m 250 70 q 304 133 278 88 q 408 455 359 225 q 414 515 414 484 q 271 598 339 587 q 216 543 237 581 q 166 332 166 458 q 206 129 166 216 q 250 70 224 90 m 189 55 q 157 105 171 77 q 112 332 112 203 q 170 572 112 473 q 183 593 176 583 q 83 445 110 560 q 71 327 71 388 q 83 209 71 266 q 124 104 98 146 q 189 55 151 62 m 429 712 q 406 720 413 712 l 329 789 l 253 719 q 234 712 245 712 q 216 720 223 712 q 208 738 208 728 q 216 759 208 751 l 311 846 q 329 854 319 854 q 347 846 339 854 l 441 759 q 450 745 450 751 q 443 720 450 728 q 429 712 435 712 z "},"":{"ha":679,"x_min":16,"x_max":677,"o":"m 556 -14 q 479 27 509 -14 q 436 155 450 69 q 422 277 427 207 q 281 25 360 77 q 198 0 243 0 q 67 96 117 0 q 16 327 16 191 q 99 598 16 504 q 234 656 149 656 q 413 588 328 656 l 413 629 q 421 648 413 640 q 440 656 429 656 l 584 656 q 603 648 595 656 q 611 629 611 640 q 603 610 611 618 q 584 602 595 602 l 563 602 q 576 235 563 366 q 613 80 587 122 q 626 99 620 89 q 639 111 632 109 q 650 113 646 113 q 663 110 656 113 q 677 86 677 102 q 673 73 677 79 q 622 12 650 34 q 556 -14 587 -14 m 556 41 q 572 45 563 41 q 522 229 535 98 q 508 602 508 365 l 467 602 l 467 585 q 489 165 467 300 q 556 41 509 41 m 250 70 q 304 133 278 88 q 408 455 359 225 q 414 515 414 484 q 271 598 339 587 q 216 543 237 581 q 166 332 166 458 q 206 129 166 216 q 250 70 224 90 m 189 55 q 157 105 171 77 q 112 332 112 203 q 170 572 112 473 q 183 593 176 583 q 83 445 110 560 q 71 327 71 388 q 83 209 71 266 q 124 104 98 146 q 189 55 151 62 m 377 712 q 340 724 355 712 q 313 751 326 736 q 291 772 296 772 q 284 767 289 772 q 265 730 275 756 q 239 712 258 712 q 216 725 222 712 q 213 739 213 733 q 214 748 213 744 q 291 827 242 827 q 328 814 313 827 q 355 787 342 802 q 377 766 372 766 q 403 808 388 766 q 427 827 410 827 q 437 825 433 827 q 455 800 455 818 q 454 790 455 794 q 377 712 425 712 z "},"":{"ha":679,"x_min":16,"x_max":677,"o":"m 556 -14 q 479 27 509 -14 q 436 155 450 69 q 422 277 427 207 q 281 25 360 77 q 198 0 243 0 q 67 96 117 0 q 16 327 16 191 q 99 598 16 504 q 234 656 149 656 q 413 588 328 656 l 413 629 q 421 648 413 640 q 440 656 429 656 l 584 656 q 603 648 595 656 q 611 629 611 640 q 603 610 611 618 q 584 602 595 602 l 563 602 q 576 235 563 366 q 613 80 587 122 q 626 99 620 89 q 639 111 632 109 q 650 113 646 113 q 663 110 656 113 q 677 86 677 102 q 673 73 677 79 q 622 12 650 34 q 556 -14 587 -14 m 556 41 q 572 45 563 41 q 522 229 535 98 q 508 602 508 365 l 467 602 l 467 585 q 489 165 467 300 q 556 41 509 41 m 250 70 q 304 133 278 88 q 408 455 359 225 q 414 515 414 484 q 271 598 339 587 q 216 543 237 581 q 166 332 166 458 q 206 129 166 216 q 250 70 224 90 m 189 55 q 157 105 171 77 q 112 332 112 203 q 170 572 112 473 q 183 593 176 583 q 83 445 110 560 q 71 327 71 388 q 83 209 71 266 q 124 104 98 146 q 189 55 151 62 m 245 712 q 208 728 224 712 q 192 766 192 743 q 208 804 192 788 q 245 819 224 819 q 284 804 268 819 q 300 766 300 788 q 284 728 300 743 q 245 712 268 712 m 420 712 q 382 728 398 712 q 366 766 366 743 q 382 804 366 788 q 420 819 398 819 q 458 804 442 819 q 474 766 474 788 q 458 728 474 743 q 420 712 442 712 z "},"":{"ha":679,"x_min":16,"x_max":677,"o":"m 556 -14 q 479 27 509 -14 q 436 155 450 69 q 422 277 427 207 q 281 25 360 77 q 198 0 243 0 q 67 96 117 0 q 16 327 16 191 q 99 598 16 504 q 234 656 149 656 q 413 588 328 656 l 413 629 q 421 648 413 640 q 440 656 429 656 l 584 656 q 603 648 595 656 q 611 629 611 640 q 603 610 611 618 q 584 602 595 602 l 563 602 q 576 235 563 366 q 613 80 587 122 q 626 99 620 89 q 639 111 632 109 q 650 113 646 113 q 663 110 656 113 q 677 86 677 102 q 673 73 677 79 q 622 12 650 34 q 556 -14 587 -14 m 556 41 q 572 45 563 41 q 522 229 535 98 q 508 602 508 365 l 467 602 l 467 585 q 489 165 467 300 q 556 41 509 41 m 250 70 q 304 133 278 88 q 408 455 359 225 q 414 515 414 484 q 271 598 339 587 q 216 543 237 581 q 166 332 166 458 q 206 129 166 216 q 250 70 224 90 m 189 55 q 157 105 171 77 q 112 332 112 203 q 170 572 112 473 q 183 593 176 583 q 83 445 110 560 q 71 327 71 388 q 83 209 71 266 q 124 104 98 146 q 189 55 151 62 m 338 663 q 271 691 298 663 q 243 759 243 720 q 271 826 243 798 q 338 854 298 854 q 406 826 378 854 q 433 759 433 798 q 406 691 433 720 q 338 663 378 663 m 338 718 q 367 730 355 718 q 379 759 379 742 q 367 788 379 776 q 338 800 355 800 q 309 788 321 800 q 297 759 297 776 q 309 730 297 742 q 338 718 321 718 z "},"":{"ha":890,"x_min":14,"x_max":868,"o":"m 572 206 q 736 302 679 242 q 808 452 808 376 q 770 544 808 509 q 709 563 750 563 q 616 514 657 563 q 564 311 564 452 q 572 206 564 251 m 303 562 q 373 307 373 478 q 304 57 373 142 q 414 307 414 106 q 303 562 414 513 m 310 412 q 146 316 203 376 q 75 165 75 242 q 112 74 75 109 q 173 55 132 55 q 267 104 225 55 q 319 307 319 166 q 310 412 319 367 m 579 56 q 509 311 509 140 q 578 561 509 475 q 469 311 469 512 q 579 56 469 105 m 441 484 q 667 632 496 632 q 806 584 755 632 q 862 452 862 532 q 774 263 862 355 q 586 153 708 194 q 717 57 623 57 q 819 107 783 57 q 841 119 827 119 q 859 113 849 119 q 868 93 868 106 q 863 77 868 84 q 667 -14 799 -14 q 475 71 538 -14 q 441 134 455 98 q 215 -14 387 -14 q 76 34 127 -14 q 20 165 20 85 q 109 355 20 263 q 296 465 174 424 q 165 561 260 561 q 64 511 99 561 q 41 498 55 498 q 24 505 33 498 q 14 525 14 512 q 20 541 14 534 q 215 632 83 632 q 407 547 344 632 q 441 484 427 519 z "},"":{"ha":480,"x_min":16,"x_max":471,"o":"m 189 54 q 112 311 112 140 q 181 562 112 476 q 71 311 71 513 q 189 54 71 98 m 251 -220 q 228 -191 228 -220 q 247 -168 228 -173 q 300 -139 282 -157 q 319 -105 319 -120 q 293 -86 319 -86 q 271 -88 284 -86 q 255 -90 258 -90 q 237 -81 243 -90 q 233 -69 233 -75 q 241 -13 233 -65 q 16 311 16 5 q 77 546 16 464 q 270 632 140 632 q 465 542 401 632 q 471 526 471 534 q 459 504 471 513 q 444 498 451 498 q 422 510 430 498 q 326 562 387 562 q 166 309 166 562 q 310 62 166 81 q 330 61 321 61 q 421 108 388 61 q 444 119 429 119 q 459 113 451 119 q 469 101 468 107 q 471 92 471 94 q 465 76 471 84 q 294 -14 408 -6 l 292 -31 q 343 -45 324 -31 q 374 -105 374 -67 q 338 -178 374 -142 q 286 -210 319 -197 q 251 -220 258 -220 z "},"":{"ha":492,"x_min":16,"x_max":470,"o":"m 174 206 q 338 302 281 242 q 410 452 410 376 q 372 544 410 509 q 311 563 352 563 q 218 514 259 563 q 165 311 165 452 q 174 206 165 251 m 269 -14 q 77 71 140 -14 q 16 311 16 153 q 269 632 16 632 q 408 584 357 632 q 464 452 464 532 q 376 263 464 355 q 188 153 310 194 q 319 57 224 57 q 420 107 385 57 q 443 119 429 119 q 460 113 451 119 q 470 93 470 106 q 465 77 470 84 q 269 -14 401 -14 m 181 56 q 111 311 111 140 q 180 561 111 475 q 71 311 71 512 q 181 56 71 105 m 286 712 q 269 720 277 712 l 174 807 q 166 826 166 815 q 174 846 166 838 q 192 854 181 854 q 212 847 204 854 l 306 759 q 314 738 314 751 q 307 720 314 728 q 286 712 299 712 z "},"":{"ha":492,"x_min":16,"x_max":470,"o":"m 174 206 q 338 302 281 242 q 410 452 410 376 q 372 544 410 509 q 311 563 352 563 q 218 514 259 563 q 165 311 165 452 q 174 206 165 251 m 269 -14 q 77 71 140 -14 q 16 311 16 153 q 269 632 16 632 q 408 584 357 632 q 464 452 464 532 q 376 263 464 355 q 188 153 310 194 q 319 57 224 57 q 420 107 385 57 q 443 119 429 119 q 460 113 451 119 q 470 93 470 106 q 465 77 470 84 q 269 -14 401 -14 m 181 56 q 111 311 111 140 q 180 561 111 475 q 71 311 71 512 q 181 56 71 105 m 243 712 q 222 720 230 712 q 215 738 215 728 q 223 759 215 751 l 317 847 q 337 854 325 854 q 355 846 348 854 q 363 826 363 838 q 355 807 363 815 l 260 720 q 243 712 252 712 z "},"":{"ha":495,"x_min":20,"x_max":473,"o":"m 178 206 q 341 302 284 242 q 413 452 413 376 q 376 544 413 509 q 315 563 355 563 q 221 514 262 563 q 169 311 169 452 q 178 206 169 251 m 273 -14 q 81 71 144 -14 q 20 311 20 153 q 273 632 20 632 q 412 584 361 632 q 467 452 467 532 q 379 263 467 355 q 191 153 313 194 q 322 57 228 57 q 424 107 389 57 q 446 119 433 119 q 464 113 454 119 q 473 93 473 106 q 468 77 473 84 q 273 -14 404 -14 m 184 56 q 115 311 115 140 q 183 561 115 475 q 74 311 74 512 q 184 56 74 105 m 361 712 q 338 720 345 712 l 261 789 l 185 719 q 166 712 178 712 q 148 720 155 712 q 140 738 140 728 q 149 759 140 751 l 243 846 q 261 854 251 854 q 279 846 271 854 l 374 759 q 382 745 382 751 q 375 720 382 728 q 361 712 368 712 z "},"":{"ha":495,"x_min":20,"x_max":473,"o":"m 178 206 q 341 302 284 242 q 413 452 413 376 q 376 544 413 509 q 315 563 355 563 q 221 514 262 563 q 169 311 169 452 q 178 206 169 251 m 273 -14 q 81 71 144 -14 q 20 311 20 153 q 273 632 20 632 q 412 584 361 632 q 467 452 467 532 q 379 263 467 355 q 191 153 313 194 q 322 57 228 57 q 424 107 389 57 q 446 119 433 119 q 464 113 454 119 q 473 93 473 106 q 468 77 473 84 q 273 -14 404 -14 m 184 56 q 115 311 115 140 q 183 561 115 475 q 74 311 74 512 q 184 56 74 105 m 174 712 q 136 728 152 712 q 120 766 120 743 q 136 804 120 788 q 174 819 152 819 q 212 804 196 819 q 228 766 228 788 q 212 728 228 743 q 174 712 196 712 m 348 712 q 310 728 326 712 q 294 766 294 743 q 310 804 294 788 q 348 819 326 819 q 386 804 370 819 q 402 766 402 788 q 386 728 402 743 q 348 712 370 712 z "},"":{"ha":321,"x_min":31,"x_max":279,"o":"m 252 0 l 58 0 q 38 8 46 0 q 31 27 31 16 q 38 46 31 38 q 58 54 46 54 l 80 54 l 80 602 l 58 602 q 38 610 46 602 q 31 629 31 618 q 38 648 31 640 q 58 656 46 656 l 252 656 q 272 648 264 656 q 279 629 279 640 q 272 610 279 618 q 252 602 264 602 l 230 602 l 230 54 l 252 54 q 272 46 264 54 q 279 27 279 38 q 272 8 279 16 q 252 0 264 0 m 175 54 l 175 602 l 134 602 l 134 54 l 175 54 m 176 712 q 159 720 167 712 l 64 807 q 56 826 56 815 q 64 846 56 838 q 82 854 71 854 q 102 847 94 854 l 196 759 q 204 738 204 751 q 197 720 204 728 q 176 712 189 712 z "},"":{"ha":319,"x_min":28,"x_max":277,"o":"m 250 0 l 55 0 q 36 8 43 0 q 28 27 28 16 q 36 46 28 38 q 55 54 43 54 l 77 54 l 77 602 l 55 602 q 36 610 43 602 q 28 629 28 618 q 36 648 28 640 q 55 656 43 656 l 250 656 q 269 648 261 656 q 277 629 277 640 q 269 610 277 618 q 250 602 261 602 l 227 602 l 227 54 l 250 54 q 269 46 261 54 q 277 27 277 38 q 269 8 277 16 q 250 0 261 0 m 172 54 l 172 602 l 132 602 l 132 54 l 172 54 m 130 712 q 110 720 117 712 q 102 738 102 728 q 111 759 102 751 l 205 847 q 224 854 212 854 q 243 846 235 854 q 250 826 250 838 q 242 807 250 815 l 147 720 q 130 712 140 712 z "},"":{"ha":323,"x_min":33,"x_max":281,"o":"m 254 0 l 60 0 q 40 8 48 0 q 33 27 33 16 q 40 46 33 38 q 60 54 48 54 l 82 54 l 82 602 l 60 602 q 40 610 48 602 q 33 629 33 618 q 40 648 33 640 q 60 656 48 656 l 254 656 q 274 648 266 656 q 281 629 281 640 q 274 610 281 618 q 254 602 266 602 l 232 602 l 232 54 l 254 54 q 274 46 266 54 q 281 27 281 38 q 274 8 281 16 q 254 0 266 0 m 177 54 l 177 602 l 136 602 l 136 54 l 177 54 m 257 712 q 233 720 241 712 l 157 789 l 81 719 q 62 712 73 712 q 43 720 51 712 q 36 738 36 728 q 44 759 36 751 l 139 846 q 157 854 146 854 q 174 846 167 854 l 269 759 q 278 745 278 751 q 271 720 278 728 q 257 712 263 712 z "},"":{"ha":345,"x_min":20,"x_max":302,"o":"m 259 0 l 64 0 q 45 8 53 0 q 37 27 37 16 q 45 46 37 38 q 64 54 53 54 l 87 54 l 87 602 l 64 602 q 45 610 53 602 q 37 629 37 618 q 45 648 37 640 q 64 656 53 656 l 259 656 q 278 648 271 656 q 286 629 286 640 q 278 610 286 618 q 259 602 271 602 l 237 602 l 237 54 l 259 54 q 278 46 271 54 q 286 27 286 38 q 278 8 286 16 q 259 0 271 0 m 182 54 l 182 602 l 141 602 l 141 54 l 182 54 m 74 712 q 36 728 52 712 q 20 766 20 743 q 36 804 20 788 q 74 819 52 819 q 112 804 96 819 q 128 766 128 788 q 112 728 128 743 q 74 712 96 712 m 248 712 q 211 728 227 712 q 195 766 195 743 q 211 804 195 788 q 248 819 227 819 q 287 804 271 819 q 302 766 302 788 q 287 728 302 743 q 248 712 271 712 z "},"":{"ha":679,"x_min":16,"x_max":677,"o":"m 249 70 q 304 133 277 88 q 401 455 359 225 l 413 515 q 271 598 338 587 q 215 543 237 581 q 165 335 165 458 q 206 129 165 217 q 249 70 224 90 m 188 55 q 157 105 170 77 q 111 336 111 205 q 169 572 111 473 q 182 593 175 583 q 83 445 109 560 q 71 333 71 391 q 123 104 71 189 q 188 55 151 62 m 555 41 q 570 45 562 41 q 522 229 534 99 q 508 629 508 371 l 508 931 l 467 931 l 467 629 q 488 164 467 295 q 555 41 509 41 m 555 -14 q 479 28 508 -14 q 422 277 435 91 q 280 25 359 76 q 197 0 242 0 q 66 96 116 0 q 16 330 16 192 q 98 598 16 505 q 233 656 149 656 q 412 588 327 656 l 412 765 l 290 765 q 271 773 279 765 q 262 793 262 781 q 271 812 262 804 q 290 820 279 820 l 412 820 l 412 931 l 390 931 q 371 939 378 931 q 363 958 363 947 q 371 977 363 969 q 390 985 378 985 l 585 985 q 604 977 596 985 q 612 958 612 969 q 604 939 612 947 q 585 931 596 931 l 562 931 l 562 820 l 607 820 q 627 812 618 820 q 635 793 635 804 q 627 773 635 781 q 607 765 618 765 l 562 765 l 562 629 q 576 235 562 372 q 612 82 587 124 q 628 102 619 91 q 648 113 637 113 q 667 106 657 113 q 677 85 677 100 q 671 70 677 77 q 555 -14 610 -14 z "},"":{"ha":690,"x_min":28,"x_max":698,"o":"m 566 45 q 539 181 539 97 q 544 309 539 245 q 549 448 549 378 q 543 533 549 495 q 519 593 536 570 q 470 615 502 615 q 504 505 501 562 q 506 416 506 447 q 502 301 506 359 q 498 189 498 243 q 526 77 498 117 q 566 45 543 53 m 593 -14 q 481 46 524 -14 q 444 189 444 100 q 448 303 444 239 q 452 418 452 363 q 450 479 452 450 q 416 596 447 561 q 250 178 310 519 l 227 54 l 250 54 q 269 46 261 54 q 277 27 277 38 q 269 8 277 16 q 250 0 261 0 l 55 0 q 36 8 44 0 q 28 27 28 16 q 36 46 28 38 q 55 54 44 54 l 77 54 l 77 602 l 55 602 q 36 610 44 602 q 28 629 28 618 q 36 648 28 640 q 55 656 44 656 l 250 656 q 269 648 261 656 q 277 629 277 640 q 269 610 277 618 q 250 602 261 602 l 227 602 l 227 376 q 470 670 330 670 q 553 640 524 670 q 593 559 582 610 q 604 447 604 509 q 598 314 604 380 q 593 181 593 248 q 606 89 593 124 q 632 49 617 60 q 651 63 643 54 q 670 72 659 71 q 689 64 680 72 q 698 44 698 56 q 690 26 698 34 q 593 -14 654 -14 m 173 54 l 173 602 l 132 602 l 132 54 l 173 54 m 406 712 q 369 724 383 712 q 342 751 354 736 q 319 772 324 772 q 313 767 317 772 q 294 730 303 756 q 268 712 287 712 q 245 725 251 712 q 241 739 241 733 q 243 748 241 744 q 319 827 271 827 q 356 814 342 827 q 383 787 371 802 q 406 766 400 766 q 431 808 416 766 q 456 827 438 827 q 466 825 461 827 q 484 800 484 818 q 482 790 484 794 q 406 712 453 712 z "},"":{"ha":572,"x_min":16,"x_max":551,"o":"m 283 -14 q 80 71 146 -14 q 16 321 16 153 q 283 670 16 670 q 551 321 551 670 q 487 71 551 153 q 283 -14 420 -14 m 333 55 q 496 321 496 55 q 444 545 496 471 q 323 612 403 602 l 322 612 q 206 527 243 595 q 166 322 166 453 q 208 119 166 186 q 333 55 248 55 m 188 56 q 112 322 112 138 q 190 598 112 511 q 71 321 71 547 q 123 104 71 171 q 188 56 149 72 m 305 712 q 288 720 296 712 l 193 807 q 185 826 185 815 q 193 846 185 838 q 211 854 200 854 q 231 847 223 854 l 325 759 q 333 738 333 751 q 326 720 333 728 q 305 712 318 712 z "},"":{"ha":572,"x_min":16,"x_max":551,"o":"m 283 -14 q 80 71 146 -14 q 16 321 16 153 q 283 670 16 670 q 551 321 551 670 q 487 71 551 153 q 283 -14 420 -14 m 333 55 q 496 321 496 55 q 444 545 496 471 q 323 612 403 602 l 322 612 q 206 527 243 595 q 166 322 166 453 q 208 119 166 186 q 333 55 248 55 m 188 56 q 112 322 112 138 q 190 598 112 511 q 71 321 71 547 q 123 104 71 171 q 188 56 149 72 m 262 712 q 241 720 249 712 q 234 738 234 728 q 242 759 234 751 l 336 847 q 356 854 344 854 q 374 846 367 854 q 382 826 382 838 q 374 807 382 815 l 279 720 q 262 712 271 712 z "},"":{"ha":572,"x_min":16,"x_max":551,"o":"m 283 -14 q 80 71 146 -14 q 16 321 16 153 q 283 670 16 670 q 551 321 551 670 q 487 71 551 153 q 283 -14 420 -14 m 333 55 q 496 321 496 55 q 444 545 496 471 q 323 612 403 602 l 322 612 q 206 527 243 595 q 166 322 166 453 q 208 119 166 186 q 333 55 248 55 m 188 56 q 112 322 112 138 q 190 598 112 511 q 71 321 71 547 q 123 104 71 171 q 188 56 149 72 m 391 712 q 367 720 374 712 l 290 789 l 214 719 q 195 712 207 712 q 177 720 184 712 q 170 738 170 728 q 178 759 170 751 l 273 846 q 290 854 280 854 q 308 846 300 854 l 403 759 q 412 745 412 751 q 404 720 412 728 q 391 712 397 712 z "},"":{"ha":576,"x_min":20,"x_max":554,"o":"m 287 -14 q 83 71 150 -14 q 20 321 20 153 q 287 670 20 670 q 554 321 554 670 q 490 71 554 153 q 287 -14 424 -14 m 336 55 q 500 321 500 55 q 447 545 500 471 q 326 612 406 602 l 326 612 q 210 527 246 595 q 170 322 170 453 q 212 119 170 186 q 336 55 252 55 m 191 56 q 115 322 115 138 q 193 598 115 511 q 74 321 74 547 q 126 104 74 171 q 191 56 152 72 m 336 712 q 299 724 314 712 q 273 751 285 736 q 250 772 255 772 q 243 767 248 772 q 224 730 234 756 q 199 712 218 712 q 176 725 182 712 q 172 739 172 733 q 174 748 172 744 q 250 827 201 827 q 287 814 273 827 q 314 787 302 802 q 336 766 331 766 q 362 808 347 766 q 387 827 369 827 q 397 825 392 827 q 414 800 414 818 q 413 790 414 794 q 336 712 384 712 z "},"":{"ha":576,"x_min":20,"x_max":554,"o":"m 287 -14 q 83 71 150 -14 q 20 321 20 153 q 287 670 20 670 q 554 321 554 670 q 490 71 554 153 q 287 -14 424 -14 m 336 55 q 500 321 500 55 q 447 545 500 471 q 326 612 406 602 l 326 612 q 210 527 246 595 q 170 322 170 453 q 212 119 170 186 q 336 55 252 55 m 191 56 q 115 322 115 138 q 193 598 115 511 q 74 321 74 547 q 126 104 74 171 q 191 56 152 72 m 206 712 q 169 728 184 712 q 153 766 153 743 q 169 804 153 788 q 206 819 184 819 q 244 804 229 819 q 260 766 260 788 q 244 728 260 743 q 206 712 229 712 m 380 712 q 343 728 359 712 q 327 766 327 743 q 343 804 327 788 q 380 819 359 819 q 419 804 403 819 q 435 766 435 788 q 419 728 435 743 q 380 712 403 712 z "},"":{"ha":460,"x_min":34,"x_max":426,"o":"m 399 523 q 418 515 410 523 q 426 495 426 507 q 418 476 426 484 q 399 468 410 468 l 61 468 q 42 476 50 468 q 34 495 34 484 q 42 515 34 507 q 61 523 50 523 l 399 523 m 230 215 q 256 226 245 215 q 267 252 267 237 q 256 277 267 267 q 230 288 245 288 q 204 277 215 288 q 193 252 193 267 q 204 226 193 237 q 230 215 215 215 m 230 161 q 165 187 192 161 q 139 252 139 214 q 165 316 139 290 q 230 342 192 342 q 294 316 268 342 q 321 252 321 290 q 294 187 321 214 q 230 161 268 161 m 230 703 q 256 713 245 703 q 267 739 267 724 q 256 765 267 754 q 230 776 245 776 q 204 765 215 776 q 193 739 193 754 q 204 713 193 724 q 230 703 215 703 m 230 648 q 165 675 192 648 q 139 739 139 701 q 165 804 139 777 q 230 830 192 830 q 294 804 268 830 q 321 739 321 777 q 294 675 321 701 q 230 648 268 648 z "},"":{"ha":572,"x_min":16,"x_max":551,"o":"m 188 56 q 112 322 112 138 q 190 598 112 511 q 71 321 71 547 q 123 104 71 171 q 188 56 149 72 m 212 -164 q 188 -136 188 -164 l 216 -8 q 80 71 129 8 q 16 321 16 153 q 283 670 16 670 q 363 661 326 670 l 392 795 q 422 821 398 821 q 446 793 446 821 l 413 642 q 551 321 551 572 q 487 71 551 153 q 283 -14 420 -14 l 269 -14 l 241 -138 q 212 -164 235 -164 m 236 86 l 351 607 q 323 612 337 610 l 322 612 q 206 527 243 595 q 166 322 166 453 q 236 86 166 144 m 333 55 q 496 321 496 55 q 400 586 496 526 q 285 61 361 404 q 333 55 307 55 z "},"":{"ha":669,"x_min":-1,"x_max":627,"o":"m 199 -14 q 113 21 144 -14 q 68 125 82 56 q 52 272 55 185 q 48 602 48 359 l 26 602 q 6 610 14 602 q -1 629 -1 618 q 6 648 -1 640 q 26 656 14 656 l 220 656 q 240 648 232 656 q 248 629 248 640 q 240 610 248 618 q 220 602 232 602 l 198 602 q 201 298 198 372 q 252 60 208 105 q 406 478 345 134 l 428 602 l 406 602 q 386 610 394 602 q 378 629 378 618 q 386 648 378 640 q 406 656 394 656 l 600 656 q 620 648 612 656 q 627 629 627 640 q 620 610 627 618 q 600 602 612 602 l 578 602 l 578 54 l 600 54 q 620 46 612 54 q 627 27 627 38 q 620 8 627 16 q 600 0 612 0 l 406 0 q 386 8 394 0 q 378 27 378 16 q 386 46 378 38 q 406 54 394 54 l 428 54 l 428 275 q 359 111 395 175 q 199 -14 290 -14 m 198 41 q 157 163 169 83 q 144 467 144 258 l 144 602 l 102 602 q 106 277 102 361 q 120 136 109 193 q 198 41 139 41 m 524 54 l 524 602 l 482 602 l 482 54 l 524 54 m 335 712 q 317 720 326 712 l 223 807 q 215 826 215 815 q 222 846 215 838 q 241 854 230 854 q 260 847 253 854 l 355 759 q 363 738 363 751 q 355 720 363 728 q 335 712 348 712 z "},"":{"ha":669,"x_min":-1,"x_max":627,"o":"m 199 -14 q 113 21 144 -14 q 68 125 82 56 q 52 272 55 185 q 48 602 48 359 l 26 602 q 6 610 14 602 q -1 629 -1 618 q 6 648 -1 640 q 26 656 14 656 l 220 656 q 240 648 232 656 q 248 629 248 640 q 240 610 248 618 q 220 602 232 602 l 198 602 q 201 298 198 372 q 252 60 208 105 q 406 478 345 134 l 428 602 l 406 602 q 386 610 394 602 q 378 629 378 618 q 386 648 378 640 q 406 656 394 656 l 600 656 q 620 648 612 656 q 627 629 627 640 q 620 610 627 618 q 600 602 612 602 l 578 602 l 578 54 l 600 54 q 620 46 612 54 q 627 27 627 38 q 620 8 627 16 q 600 0 612 0 l 406 0 q 386 8 394 0 q 378 27 378 16 q 386 46 378 38 q 406 54 394 54 l 428 54 l 428 275 q 359 111 395 175 q 199 -14 290 -14 m 198 41 q 157 163 169 83 q 144 467 144 258 l 144 602 l 102 602 q 106 277 102 361 q 120 136 109 193 q 198 41 139 41 m 524 54 l 524 602 l 482 602 l 482 54 l 524 54 m 292 712 q 271 720 279 712 q 264 738 264 728 q 272 759 264 751 l 366 847 q 386 854 374 854 q 404 846 397 854 q 412 826 412 838 q 404 807 412 815 l 309 720 q 292 712 301 712 z "},"":{"ha":669,"x_min":-1,"x_max":627,"o":"m 199 -14 q 113 21 144 -14 q 68 125 82 56 q 52 272 55 185 q 48 602 48 359 l 26 602 q 6 610 14 602 q -1 629 -1 618 q 6 648 -1 640 q 26 656 14 656 l 220 656 q 240 648 232 656 q 248 629 248 640 q 240 610 248 618 q 220 602 232 602 l 198 602 q 201 298 198 372 q 252 60 208 105 q 406 478 345 134 l 428 602 l 406 602 q 386 610 394 602 q 378 629 378 618 q 386 648 378 640 q 406 656 394 656 l 600 656 q 620 648 612 656 q 627 629 627 640 q 620 610 627 618 q 600 602 612 602 l 578 602 l 578 54 l 600 54 q 620 46 612 54 q 627 27 627 38 q 620 8 627 16 q 600 0 612 0 l 406 0 q 386 8 394 0 q 378 27 378 16 q 386 46 378 38 q 406 54 394 54 l 428 54 l 428 275 q 359 111 395 175 q 199 -14 290 -14 m 198 41 q 157 163 169 83 q 144 467 144 258 l 144 602 l 102 602 q 106 277 102 361 q 120 136 109 193 q 198 41 139 41 m 524 54 l 524 602 l 482 602 l 482 54 l 524 54 m 414 712 q 390 720 397 712 l 313 789 l 237 719 q 218 712 230 712 q 200 720 208 712 q 193 738 193 728 q 201 759 193 751 l 296 846 q 313 854 303 854 q 331 846 323 854 l 426 759 q 435 745 435 751 q 427 720 435 728 q 414 712 420 712 z "},"":{"ha":669,"x_min":-1,"x_max":627,"o":"m 199 -14 q 113 21 144 -14 q 68 125 82 56 q 52 272 55 185 q 48 602 48 359 l 26 602 q 6 610 14 602 q -1 629 -1 618 q 6 648 -1 640 q 26 656 14 656 l 220 656 q 240 648 232 656 q 248 629 248 640 q 240 610 248 618 q 220 602 232 602 l 198 602 q 201 298 198 372 q 252 60 208 105 q 406 478 345 134 l 428 602 l 406 602 q 386 610 394 602 q 378 629 378 618 q 386 648 378 640 q 406 656 394 656 l 600 656 q 620 648 612 656 q 627 629 627 640 q 620 610 627 618 q 600 602 612 602 l 578 602 l 578 54 l 600 54 q 620 46 612 54 q 627 27 627 38 q 620 8 627 16 q 600 0 612 0 l 406 0 q 386 8 394 0 q 378 27 378 16 q 386 46 378 38 q 406 54 394 54 l 428 54 l 428 275 q 359 111 395 175 q 199 -14 290 -14 m 198 41 q 157 163 169 83 q 144 467 144 258 l 144 602 l 102 602 q 106 277 102 361 q 120 136 109 193 q 198 41 139 41 m 524 54 l 524 602 l 482 602 l 482 54 l 524 54 m 233 712 q 195 728 211 712 q 179 766 179 743 q 195 804 179 788 q 233 819 211 819 q 271 804 255 819 q 287 766 287 788 q 271 728 287 743 q 233 712 255 712 m 407 712 q 369 728 385 712 q 353 766 353 743 q 369 804 353 788 q 407 819 385 819 q 445 804 429 819 q 461 766 461 788 q 445 728 461 743 q 407 712 429 712 z "},"":{"ha":661,"x_min":-1,"x_max":618,"o":"m 313 -271 q 191 -242 244 -271 q 104 -160 132 -211 q 100 -146 100 -153 q 114 -123 100 -132 q 127 -119 120 -119 q 151 -134 142 -119 q 215 -193 172 -170 q 282 -211 248 -211 q 304 -209 293 -211 q 392 -130 355 -201 q 429 46 429 -59 l 429 275 q 360 111 395 175 q 199 -14 290 -14 q 113 21 144 -14 q 68 125 82 56 q 52 272 56 185 q 49 602 49 359 l 26 602 q 7 610 15 602 q -1 629 -1 618 q 7 648 -1 640 q 26 656 15 656 l 221 656 q 240 648 232 656 q 248 629 248 640 q 240 610 248 618 q 221 602 232 602 l 199 602 q 201 298 199 372 q 212 172 204 224 q 252 60 224 90 q 402 478 346 133 l 427 629 q 436 648 429 640 q 456 656 444 656 l 591 656 q 611 648 603 656 q 618 629 618 640 q 611 610 618 618 q 591 602 603 602 l 578 602 l 578 46 q 509 -183 578 -101 q 313 -271 435 -271 m 420 -190 q 509 -69 483 -153 q 524 46 524 -21 l 524 602 l 483 602 l 483 46 q 420 -190 483 -96 m 199 41 q 158 163 170 83 q 144 467 144 258 l 144 602 l 103 602 q 106 277 103 361 q 121 136 110 193 q 199 41 139 41 m 294 712 q 273 720 281 712 q 266 738 266 728 q 274 759 266 751 l 368 847 q 388 854 376 854 q 406 846 399 854 q 414 826 414 838 q 406 807 414 815 l 311 720 q 294 712 303 712 z "},"":{"ha":642,"x_min":24,"x_max":621,"o":"m 366 58 q 421 113 399 75 q 471 321 471 198 q 431 527 471 439 q 387 586 412 566 q 332 523 359 568 q 235 204 278 431 l 224 140 q 366 58 298 68 m 454 63 q 516 119 492 80 q 554 212 541 158 q 566 323 566 265 q 553 447 566 390 q 513 552 540 509 q 449 601 486 594 q 479 550 466 579 q 526 320 526 451 q 468 83 526 183 q 454 63 462 73 m 170 931 l 129 931 l 128 -217 l 169 -217 l 170 931 m 75 931 l 52 931 q 33 939 41 931 q 24 958 24 947 q 33 977 24 969 q 52 985 41 985 l 247 985 q 266 977 258 985 q 274 958 274 969 q 266 939 274 947 q 247 931 258 931 l 224 931 l 224 406 q 357 631 282 582 q 439 656 394 656 q 571 560 521 656 q 621 323 621 464 q 538 58 621 151 q 404 0 488 0 q 224 68 309 0 l 224 -217 l 246 -217 q 265 -225 257 -217 q 273 -244 273 -233 q 265 -263 273 -255 q 246 -271 257 -271 l 52 -271 q 32 -263 40 -271 q 24 -244 24 -255 q 32 -225 24 -233 q 52 -217 40 -217 l 74 -217 l 75 931 z "},"":{"ha":661,"x_min":-1,"x_max":618,"o":"m 313 -271 q 191 -242 244 -271 q 104 -160 132 -211 q 100 -146 100 -153 q 114 -123 100 -132 q 127 -119 120 -119 q 151 -134 142 -119 q 215 -193 172 -170 q 282 -211 248 -211 q 304 -209 293 -211 q 392 -130 355 -201 q 429 46 429 -59 l 429 275 q 360 111 395 175 q 199 -14 290 -14 q 113 21 144 -14 q 68 125 82 56 q 52 272 56 185 q 49 602 49 359 l 26 602 q 7 610 15 602 q -1 629 -1 618 q 7 648 -1 640 q 26 656 15 656 l 221 656 q 240 648 232 656 q 248 629 248 640 q 240 610 248 618 q 221 602 232 602 l 199 602 q 201 298 199 372 q 212 172 204 224 q 252 60 224 90 q 402 478 346 133 l 427 629 q 436 648 429 640 q 456 656 444 656 l 591 656 q 611 648 603 656 q 618 629 618 640 q 611 610 618 618 q 591 602 603 602 l 578 602 l 578 46 q 509 -183 578 -101 q 313 -271 435 -271 m 420 -190 q 509 -69 483 -153 q 524 46 524 -21 l 524 602 l 483 602 l 483 46 q 420 -190 483 -96 m 199 41 q 158 163 170 83 q 144 467 144 258 l 144 602 l 103 602 q 106 277 103 361 q 121 136 110 193 q 199 41 139 41 m 221 712 q 183 728 199 712 q 168 766 168 743 q 183 804 168 788 q 221 819 199 819 q 259 804 243 819 q 275 766 275 788 q 259 728 275 743 q 221 712 243 712 m 395 712 q 358 728 374 712 q 342 766 342 743 q 358 804 342 788 q 395 819 374 819 q 434 804 418 819 q 450 766 450 788 q 434 728 450 743 q 395 712 418 712 z "},"":{"ha":319,"x_min":28,"x_max":277,"o":"m 250 0 l 55 0 q 36 8 43 0 q 28 27 28 16 q 36 46 28 38 q 55 54 43 54 l 77 54 l 77 602 l 55 602 q 36 610 43 602 q 28 629 28 618 q 36 648 28 640 q 55 656 43 656 l 250 656 q 269 648 261 656 q 277 629 277 640 q 269 610 277 618 q 250 602 261 602 l 227 602 l 227 54 l 250 54 q 269 46 261 54 q 277 27 277 38 q 269 8 277 16 q 250 0 261 0 m 172 54 l 172 602 l 132 602 l 132 54 l 172 54 z "},"":{"ha":216,"x_min":34,"x_max":182,"o":"m 154 712 q 136 720 144 712 l 42 807 q 34 826 34 815 q 41 846 34 838 q 60 854 49 854 q 79 847 72 854 l 174 759 q 182 738 182 751 q 174 720 182 728 q 154 712 167 712 z "},"":{"ha":216,"x_min":34,"x_max":182,"o":"m 62 712 q 41 720 49 712 q 34 738 34 728 q 42 759 34 751 l 136 847 q 156 854 144 854 q 174 846 167 854 q 182 826 182 838 q 174 807 182 815 l 79 720 q 62 712 71 712 z "},"":{"ha":310,"x_min":34,"x_max":276,"o":"m 255 712 q 231 720 239 712 l 155 789 l 79 719 q 60 712 71 712 q 41 720 49 712 q 34 738 34 728 q 42 759 34 751 l 137 846 q 155 854 144 854 q 172 846 165 854 l 267 759 q 276 745 276 751 q 269 720 276 728 q 255 712 261 712 z "},"":{"ha":310,"x_min":34,"x_max":276,"o":"m 198 712 q 161 724 176 712 q 134 751 146 736 q 112 772 117 772 q 105 767 110 772 q 86 730 96 756 q 60 712 79 712 q 37 725 43 712 q 34 739 34 733 q 35 748 34 744 q 112 827 63 827 q 149 814 134 827 q 176 787 163 802 q 198 766 193 766 q 224 808 209 766 q 248 827 231 827 q 258 825 254 827 q 276 800 276 818 q 275 790 276 794 q 198 712 245 712 z "},"":{"ha":311,"x_min":34,"x_max":277,"o":"m 250 712 l 62 712 q 42 720 50 712 q 34 739 34 728 q 42 758 34 750 q 62 766 50 766 l 250 766 q 269 758 261 766 q 277 739 277 750 q 269 720 277 728 q 250 712 261 712 z "},"":{"ha":176,"x_min":34,"x_max":142,"o":"m 87 712 q 50 728 66 712 q 34 766 34 743 q 50 804 34 788 q 87 819 66 819 q 126 804 110 819 q 142 766 142 788 q 126 728 142 743 q 87 712 110 712 z "},"":{"ha":350,"x_min":34,"x_max":316,"o":"m 87 712 q 50 728 66 712 q 34 766 34 743 q 50 804 34 788 q 87 819 66 819 q 126 804 110 819 q 142 766 142 788 q 126 728 142 743 q 87 712 110 712 m 262 712 q 224 728 240 712 q 208 766 208 743 q 224 804 208 788 q 262 819 240 819 q 300 804 284 819 q 316 766 316 788 q 300 728 316 743 q 262 712 284 712 z "},"":{"ha":258,"x_min":34,"x_max":224,"o":"m 130 663 q 62 691 90 663 q 34 759 34 720 q 62 826 34 798 q 130 854 90 854 q 197 826 169 854 q 224 759 224 798 q 197 691 224 720 q 130 663 169 663 m 130 718 q 158 730 146 718 q 170 759 170 742 q 158 788 170 776 q 130 800 146 800 q 100 788 113 800 q 88 759 88 776 q 100 730 88 742 q 130 718 113 718 z "},"":{"ha":310,"x_min":34,"x_max":276,"o":"m 255 854 q 269 846 261 854 q 276 821 276 838 q 267 807 276 815 l 172 720 q 155 712 165 712 q 137 720 144 712 l 42 807 q 34 828 34 815 q 41 846 34 838 q 60 854 49 854 q 79 847 71 854 l 155 777 l 231 846 q 255 854 239 854 z "},"":{"ha":214,"x_min":34,"x_max":180,"o":"m 57 -220 q 34 -191 34 -220 q 53 -168 34 -173 q 106 -139 88 -157 q 125 -105 125 -120 q 99 -86 125 -86 q 77 -88 90 -86 q 61 -90 64 -90 q 43 -81 50 -90 q 39 -69 39 -75 q 52 18 39 -64 q 77 41 55 41 q 99 31 92 41 q 103 19 103 24 q 98 -31 103 12 q 149 -45 130 -31 q 180 -105 180 -67 q 144 -178 180 -142 q 92 -210 125 -197 q 57 -220 64 -220 z "},"":{"ha":671,"x_min":34,"x_max":637,"o":"m 56 301 q 40 309 47 301 q 34 328 34 317 q 40 347 34 339 q 56 355 47 355 l 616 355 q 631 347 625 355 q 637 328 637 339 q 631 309 637 317 q 616 301 625 301 l 56 301 z "},"":{"ha":964,"x_min":34,"x_max":930,"o":"m 56 301 q 40 309 47 301 q 34 328 34 317 q 40 347 34 339 q 56 355 47 355 l 909 355 q 924 347 918 355 q 930 328 930 339 q 924 309 930 317 q 909 301 918 301 l 56 301 z "},"":{"ha":250,"x_min":34,"x_max":216,"o":"m 161 985 q 186 970 178 985 q 189 958 189 964 q 172 934 189 941 q 103 866 117 909 q 125 869 114 869 q 190 842 163 869 q 216 778 216 816 q 190 714 216 741 q 125 687 163 687 q 61 714 87 687 q 34 778 34 741 q 60 902 34 851 q 150 983 87 956 q 161 985 156 985 m 125 814 q 106 809 115 814 q 89 778 89 798 q 99 752 89 763 q 125 741 110 741 q 151 752 140 741 q 161 778 161 763 q 151 804 161 793 q 125 814 140 814 z "},"":{"ha":250,"x_min":34,"x_max":216,"o":"m 89 687 q 64 703 72 687 q 62 714 62 709 q 78 739 62 731 q 147 806 133 763 q 125 804 136 804 q 61 830 87 804 q 34 895 34 857 q 61 959 34 932 q 125 985 87 985 q 190 959 163 985 q 216 895 216 932 q 191 770 216 821 q 100 689 163 717 q 89 687 94 687 m 125 858 q 144 863 136 858 q 161 895 161 874 q 151 920 161 909 q 125 931 140 931 q 99 920 110 931 q 89 895 89 909 q 99 868 89 879 q 125 858 110 858 z "},"":{"ha":250,"x_min":34,"x_max":216,"o":"m 89 -149 q 64 -134 72 -149 q 62 -122 62 -127 q 78 -98 62 -105 q 147 -30 133 -73 q 125 -33 136 -33 q 61 -6 87 -33 q 34 58 34 20 q 61 122 34 96 q 125 149 87 149 q 190 122 163 149 q 216 58 216 96 q 191 -66 216 -15 q 100 -147 163 -119 q 89 -149 94 -149 m 125 22 q 144 27 136 22 q 161 58 161 38 q 151 84 161 73 q 125 95 140 95 q 99 84 110 95 q 89 58 89 73 q 99 33 89 43 q 125 22 110 22 z "},"":{"ha":506,"x_min":34,"x_max":472,"o":"m 161 985 q 186 970 178 985 q 189 958 189 964 q 172 934 189 941 q 103 866 117 909 q 125 869 114 869 q 190 842 163 869 q 216 778 216 816 q 190 714 216 741 q 125 687 163 687 q 61 714 87 687 q 34 778 34 741 q 60 902 34 851 q 150 983 87 956 q 161 985 156 985 m 125 814 q 106 809 115 814 q 89 778 89 798 q 99 752 89 763 q 125 741 110 741 q 151 752 140 741 q 161 778 161 763 q 151 804 161 793 q 125 814 140 814 m 417 985 q 441 970 434 985 q 444 958 444 964 q 428 934 444 941 q 359 866 373 909 q 380 869 370 869 q 445 842 418 869 q 472 778 472 816 q 445 714 472 741 q 380 687 418 687 q 316 714 343 687 q 290 778 290 741 q 315 902 290 851 q 406 983 343 956 q 417 985 411 985 m 380 814 q 361 809 370 814 q 344 778 344 798 q 355 752 344 763 q 380 741 366 741 q 406 752 395 741 q 417 778 417 763 q 406 804 417 793 q 380 814 395 814 z "},"":{"ha":506,"x_min":34,"x_max":472,"o":"m 89 687 q 64 703 72 687 q 62 714 62 709 q 78 739 62 731 q 147 806 133 763 q 125 804 136 804 q 61 830 87 804 q 34 895 34 857 q 61 959 34 932 q 125 985 87 985 q 190 959 163 985 q 216 895 216 932 q 191 770 216 821 q 100 689 163 717 q 89 687 94 687 m 125 858 q 144 863 136 858 q 161 895 161 874 q 151 920 161 909 q 125 931 140 931 q 99 920 110 931 q 89 895 89 909 q 99 868 89 879 q 125 858 110 858 m 344 687 q 320 703 327 687 q 317 714 317 709 q 334 739 317 731 q 403 806 388 763 q 381 804 392 804 q 316 830 343 804 q 290 895 290 857 q 316 959 290 932 q 381 985 343 985 q 445 959 418 985 q 472 895 472 932 q 446 770 472 821 q 356 689 418 717 q 344 687 350 687 m 380 858 q 400 863 391 858 q 417 895 417 874 q 406 920 417 909 q 380 931 395 931 q 355 920 366 931 q 344 895 344 909 q 355 868 344 879 q 380 858 366 858 z "},"":{"ha":506,"x_min":34,"x_max":472,"o":"m 89 -149 q 64 -134 72 -149 q 62 -122 62 -127 q 78 -98 62 -105 q 147 -30 133 -73 q 125 -33 136 -33 q 61 -6 87 -33 q 34 58 34 20 q 61 122 34 96 q 125 149 87 149 q 190 122 163 149 q 216 58 216 96 q 191 -66 216 -15 q 100 -147 163 -119 q 89 -149 94 -149 m 125 22 q 144 27 136 22 q 161 58 161 38 q 151 84 161 73 q 125 95 140 95 q 99 84 110 95 q 89 58 89 73 q 99 33 89 43 q 125 22 110 22 m 344 -149 q 320 -134 327 -149 q 317 -122 317 -127 q 334 -98 317 -105 q 403 -30 388 -73 q 381 -33 392 -33 q 316 -6 343 -33 q 290 58 290 20 q 316 122 290 96 q 381 149 343 149 q 445 122 418 149 q 472 58 472 96 q 446 -66 472 -15 q 356 -147 418 -119 q 344 -149 350 -149 m 380 22 q 400 27 391 22 q 417 58 417 38 q 406 84 417 73 q 380 95 395 95 q 355 84 366 95 q 344 58 344 73 q 355 33 344 43 q 380 22 366 22 z "},"":{"ha":460,"x_min":34,"x_max":426,"o":"m 230 -98 q 211 -91 218 -98 q 203 -71 203 -83 l 203 755 l 61 755 q 42 764 50 755 q 34 783 34 772 q 42 802 34 794 q 61 810 50 810 l 203 810 l 203 951 q 211 971 203 963 q 230 979 218 979 q 249 971 241 979 q 257 951 257 963 l 257 810 l 399 810 q 418 802 410 810 q 426 783 426 794 q 418 764 426 772 q 399 755 410 755 l 257 755 l 257 -71 q 249 -91 257 -83 q 230 -98 241 -98 z "},"":{"ha":460,"x_min":34,"x_max":426,"o":"m 230 -98 q 211 -91 218 -98 q 203 -71 203 -83 l 203 70 l 61 70 q 42 78 50 70 q 34 97 34 86 q 42 117 34 109 q 61 125 50 125 l 203 125 l 203 755 l 61 755 q 42 764 50 755 q 34 783 34 772 q 42 802 34 794 q 61 810 50 810 l 203 810 l 203 951 q 211 971 203 963 q 230 979 218 979 q 249 971 241 979 q 257 951 257 963 l 257 810 l 399 810 q 418 802 410 810 q 426 783 426 794 q 418 764 426 772 q 399 755 410 755 l 257 755 l 257 125 l 399 125 q 418 117 410 125 q 426 97 426 109 q 418 78 426 86 q 399 70 410 70 l 257 70 l 257 -71 q 249 -91 257 -83 q 230 -98 241 -98 z "},"":{"ha":694,"x_min":135,"x_max":497,"o":"m 316 420 q 367 441 346 420 q 389 492 389 463 q 367 544 389 523 q 316 566 346 566 q 265 544 286 566 q 243 492 243 523 q 265 441 243 463 q 316 420 286 420 m 316 312 q 188 365 241 312 q 135 492 135 418 q 188 621 135 568 q 316 673 241 673 q 444 621 391 673 q 497 492 497 568 q 444 365 497 418 q 316 312 391 312 z "},"":{"ha":1389,"x_min":68,"x_max":1176,"o":"m 159 41 q 184 51 174 41 q 195 77 195 62 q 184 103 195 92 q 159 114 174 114 q 133 103 144 114 q 122 77 122 92 q 133 51 122 62 q 159 41 144 41 m 159 -14 q 95 13 121 -14 q 68 77 68 39 q 95 141 68 115 q 159 168 121 168 q 223 141 197 168 q 250 77 250 115 q 223 13 250 39 q 159 -14 197 -14 m 622 41 q 648 51 637 41 q 659 77 659 62 q 648 103 659 92 q 622 114 637 114 q 596 103 607 114 q 585 77 585 92 q 596 51 585 62 q 622 41 607 41 m 622 -14 q 558 13 585 -14 q 531 77 531 39 q 558 141 531 115 q 622 168 585 168 q 686 141 660 168 q 713 77 713 115 q 686 13 713 39 q 622 -14 660 -14 m 1085 41 q 1111 51 1100 41 q 1122 77 1122 62 q 1111 103 1122 92 q 1085 114 1100 114 q 1059 103 1070 114 q 1048 77 1048 92 q 1059 51 1048 62 q 1085 41 1070 41 m 1085 -14 q 1021 13 1048 -14 q 994 77 994 39 q 1021 141 994 115 q 1085 168 1048 168 q 1149 141 1123 168 q 1176 77 1176 115 q 1149 13 1176 39 q 1085 -14 1123 -14 z "},"":{"ha":235,"x_min":34,"x_max":201,"o":"m 174 140 q 152 152 160 140 l 39 313 q 34 328 34 321 q 39 344 34 336 l 152 504 q 174 516 161 516 q 192 509 182 516 q 201 490 201 503 q 196 473 201 481 l 94 328 l 197 183 q 201 167 201 176 q 190 145 201 153 q 174 140 183 140 z "},"":{"ha":235,"x_min":34,"x_max":201,"o":"m 62 140 q 45 145 53 140 q 34 167 34 153 q 39 183 34 176 l 141 328 l 39 473 q 34 490 34 481 q 43 509 34 503 q 61 516 53 516 q 83 504 75 516 l 196 344 q 201 328 201 336 q 197 313 201 321 l 83 152 q 62 140 75 140 z "},"":{"ha":95,"x_min":-205,"x_max":356,"o":"m -176 0 q -189 3 -182 0 q -205 24 -205 9 q -199 44 -205 33 l 304 974 q 323 986 311 986 q 340 982 331 986 q 356 962 356 975 q 352 947 356 955 l -149 20 q -176 0 -160 0 z "},"":{"ha":640,"x_min":34,"x_max":606,"o":"m 277 286 l 277 54 l 300 54 q 319 46 311 54 q 327 27 327 38 q 319 8 327 16 q 300 0 311 0 l 105 0 q 86 8 94 0 q 78 27 78 16 q 86 46 78 38 q 105 54 94 54 l 127 54 l 127 286 l 61 286 q 42 293 50 286 q 34 313 34 301 q 42 332 34 323 q 61 340 50 340 l 127 340 l 127 931 l 105 931 q 86 939 94 931 q 78 958 78 947 q 86 977 78 969 q 105 985 94 985 l 579 985 q 598 977 590 985 q 606 958 606 969 l 606 878 q 598 858 606 866 q 579 850 590 850 q 560 858 568 850 q 552 878 552 866 l 552 931 l 277 931 l 277 608 l 485 608 q 493 630 485 622 q 512 637 501 637 q 532 630 524 637 q 540 610 540 622 l 540 551 q 532 532 540 540 q 512 524 524 524 q 493 532 501 524 q 485 553 485 540 l 277 553 l 277 340 l 399 340 q 418 332 410 340 q 426 313 426 323 q 418 293 426 301 q 399 286 410 286 l 277 286 m 182 54 l 223 54 l 223 931 l 182 931 l 182 54 z "},"":{"ha":659,"x_min":34,"x_max":625,"o":"m 179 54 q 245 319 245 212 q 227 478 245 380 q 209 590 217 529 q 201 731 201 651 q 269 928 201 857 q 212 889 236 915 q 173 825 187 864 q 159 731 159 786 q 168 595 159 654 q 184 488 176 536 q 204 319 204 383 q 142 54 204 208 l 179 54 m 146 392 l 61 392 q 42 400 50 392 q 34 419 34 408 q 42 438 34 430 q 61 446 50 446 l 137 446 l 130 489 q 122 530 125 509 l 61 530 q 42 538 50 530 q 34 557 34 546 q 42 576 34 568 q 61 584 50 584 l 115 584 q 105 731 105 660 q 172 925 105 856 q 357 999 241 999 q 517 967 454 999 q 621 869 589 930 q 625 856 625 862 q 610 832 625 840 q 597 829 604 829 q 574 844 582 829 q 493 918 549 890 q 422 933 463 933 q 294 873 340 933 q 255 731 255 821 q 263 596 255 654 l 264 584 l 428 584 q 447 576 439 584 q 455 557 455 568 q 447 538 455 546 q 428 530 439 530 l 273 530 q 285 462 278 498 q 288 446 286 454 l 428 446 q 447 438 439 446 q 455 419 455 430 q 447 400 455 408 q 428 392 439 392 l 295 392 q 300 319 300 353 q 237 54 300 209 l 570 54 l 570 108 q 578 127 570 119 q 597 135 586 135 q 616 127 608 135 q 625 108 625 119 l 625 27 q 616 8 625 16 q 597 0 608 0 l 102 0 q 82 8 90 0 q 75 27 75 16 q 77 39 75 33 q 150 319 150 209 q 146 392 150 357 z "},"":{"ha":622,"x_min":-12,"x_max":623,"o":"m 273 60 q 153 495 153 178 q 273 924 153 806 q 111 492 111 852 q 273 60 111 134 m 374 -14 q 60 404 87 -14 l 15 404 q -4 412 4 404 q -12 431 -12 420 q -4 450 -12 442 q 15 458 4 458 l 58 458 q 57 494 57 476 l 57 513 l 15 513 q -4 520 4 513 q -12 540 -12 528 q -4 559 -12 551 q 15 567 4 567 l 59 567 q 374 999 81 999 q 619 857 541 999 q 623 844 623 850 q 609 821 623 828 q 595 817 602 817 q 572 831 580 817 q 399 940 500 940 q 263 819 317 940 q 209 567 217 726 l 353 567 q 372 559 364 567 q 380 540 380 551 q 372 520 380 528 q 353 513 364 513 l 207 513 l 207 495 q 208 458 207 476 l 353 458 q 372 450 364 458 q 380 431 380 442 q 372 412 380 420 q 353 404 364 404 l 210 404 q 264 165 220 254 q 400 45 326 45 q 572 154 504 45 q 596 168 581 168 q 609 165 603 168 q 623 141 623 157 q 619 127 623 134 q 374 -14 541 -14 z "},"":{"ha":953,"x_min":34,"x_max":919,"o":"m 269 475 l 156 475 q 145 479 149 475 q 140 490 140 484 q 145 502 140 497 q 156 506 149 506 l 169 506 l 169 1017 l 65 1017 l 65 986 q 61 975 65 979 q 50 970 56 970 q 38 975 43 970 q 34 986 34 979 l 34 1033 q 38 1044 34 1040 q 50 1048 43 1048 l 376 1048 q 387 1044 382 1048 q 392 1033 392 1040 l 392 986 q 387 975 392 979 q 376 970 382 970 q 365 975 370 970 q 360 986 360 979 l 360 1017 l 256 1017 l 256 506 l 269 506 q 281 502 276 506 q 286 490 286 497 q 281 479 286 484 q 269 475 276 475 m 224 506 l 224 1017 l 201 1017 l 201 506 l 224 506 m 903 475 l 834 475 q 823 479 827 475 q 818 490 818 484 q 823 502 818 497 q 834 506 827 506 l 852 506 l 852 981 l 734 814 q 754 798 754 814 q 750 787 754 791 q 739 782 745 782 l 669 782 q 658 787 663 782 q 653 798 653 791 q 658 809 653 804 q 669 814 663 814 l 674 814 l 562 981 l 562 506 l 575 506 q 586 502 581 506 q 591 490 591 497 q 586 479 591 484 q 575 475 581 475 l 461 475 q 450 479 455 475 q 446 490 446 484 q 450 502 446 497 q 461 506 455 506 l 475 506 l 475 1017 l 461 1017 q 450 1022 455 1017 q 446 1033 446 1026 q 450 1044 446 1040 q 461 1048 455 1048 l 575 1048 q 586 1044 581 1048 q 591 1033 591 1040 q 586 1022 591 1026 q 576 1017 582 1017 l 704 825 l 840 1017 l 834 1017 q 823 1022 827 1017 q 818 1033 818 1026 q 823 1044 818 1040 q 834 1048 827 1048 l 903 1048 q 914 1044 909 1048 q 919 1033 919 1040 q 914 1022 919 1026 q 903 1017 909 1017 l 884 1017 l 884 506 l 903 506 q 914 502 909 506 q 919 490 919 497 q 914 479 919 484 q 903 475 909 475 m 530 506 l 530 1017 l 506 1017 l 506 506 l 530 506 z "},"":{"ha":460,"x_min":34,"x_max":426,"o":"m 399 523 q 418 515 410 523 q 426 495 426 507 q 418 476 426 484 q 399 468 410 468 l 61 468 q 42 476 50 468 q 34 495 34 484 q 42 515 34 507 q 61 523 50 523 l 399 523 z "},"":{"ha":459,"x_min":34,"x_max":425,"o":"m 297 328 q 244 343 263 328 q 210 378 225 359 q 189 400 200 391 q 162 410 178 410 q 83 342 123 410 q 60 328 75 328 q 47 332 54 328 q 34 355 34 340 q 37 369 34 362 q 162 465 92 465 q 216 449 197 465 q 252 413 236 433 q 297 382 275 382 q 375 450 335 382 q 398 464 383 464 q 412 460 405 464 q 425 436 425 452 q 422 424 425 429 q 297 328 366 328 m 297 192 q 244 207 263 192 q 210 241 225 222 q 189 264 200 254 q 162 274 178 274 q 83 205 123 274 q 60 192 75 192 q 47 195 54 192 q 34 219 34 203 q 37 233 34 226 q 162 328 92 328 q 216 313 197 328 q 252 277 236 297 q 297 246 275 246 q 375 314 335 246 q 398 328 383 328 q 412 324 405 328 q 425 300 425 316 q 422 288 425 293 q 297 192 366 192 z "},"":{"ha":460,"x_min":34,"x_max":426,"o":"m 399 83 q 53 194 394 83 q 34 219 34 200 q 53 245 34 238 q 390 355 222 300 q 399 356 394 356 q 425 337 417 356 q 426 329 426 333 q 407 304 426 310 l 149 219 l 407 134 q 426 110 426 128 q 425 102 426 105 q 399 83 418 83 m 399 55 q 418 47 410 55 q 426 27 426 39 q 418 8 426 16 q 399 0 410 0 l 61 0 q 42 8 50 0 q 34 27 34 16 q 42 47 34 39 q 61 55 50 55 l 399 55 z "},"":{"ha":460,"x_min":34,"x_max":426,"o":"m 60 83 q 35 102 42 83 q 34 110 34 105 q 53 134 34 128 l 311 219 l 53 304 q 34 329 34 310 q 35 337 34 333 q 60 356 43 356 q 70 355 66 356 q 407 245 238 300 q 426 219 426 238 q 407 194 426 200 q 60 83 66 83 m 399 55 q 418 47 410 55 q 426 27 426 39 q 418 8 426 16 q 399 0 410 0 l 61 0 q 42 8 50 0 q 34 27 34 16 q 42 47 34 39 q 61 55 50 55 l 399 55 z "},"":{"ha":266,"x_min":34,"x_max":232,"o":"m 205 472 l 80 472 q 61 480 68 472 q 53 499 53 488 q 60 518 53 510 q 78 526 67 526 l 78 872 q 62 867 70 867 q 47 871 54 867 q 34 894 34 879 q 38 908 34 901 l 80 978 q 105 992 89 992 l 180 992 q 199 984 191 992 q 207 965 207 976 l 207 526 q 225 518 218 526 q 232 499 232 510 q 224 480 232 488 q 205 472 216 472 m 153 526 l 153 938 l 132 938 l 132 526 l 153 526 z "},"":{"ha":387,"x_min":34,"x_max":353,"o":"m 140 526 q 256 702 209 610 q 298 851 298 786 q 274 924 298 906 q 255 935 266 931 q 273 851 273 899 q 222 684 273 780 q 118 526 179 603 l 140 526 m 323 472 l 61 472 q 42 480 50 472 q 34 499 34 488 q 41 519 34 511 q 174 710 119 609 q 219 851 219 794 q 168 941 219 926 q 108 901 125 930 q 84 886 100 886 q 72 890 78 886 q 57 914 57 898 q 60 926 57 920 q 116 979 80 961 q 199 999 157 999 q 353 851 353 999 q 304 678 353 777 q 209 526 265 600 l 296 526 l 296 540 q 303 559 296 551 q 323 567 311 567 q 342 559 334 567 q 350 540 350 551 l 350 499 q 342 480 350 488 q 323 472 334 472 z "},"":{"ha":395,"x_min":34,"x_max":361,"o":"m 201 465 q 106 486 149 465 q 39 543 61 507 q 34 557 34 550 q 47 580 34 572 q 61 584 54 584 q 84 571 76 584 q 129 535 98 549 q 150 530 139 530 q 216 565 196 530 q 232 623 232 593 q 216 682 232 652 q 141 737 194 720 q 122 752 123 743 q 121 763 121 762 q 137 787 121 778 q 199 833 181 811 q 215 874 215 851 q 202 920 215 899 q 176 943 193 935 q 90 908 123 935 q 73 902 82 902 q 53 911 60 902 q 45 929 45 920 q 56 949 45 941 q 201 999 121 999 q 306 964 268 999 q 346 871 346 926 q 300 767 346 812 q 361 628 361 705 q 301 497 361 544 q 201 465 260 465 m 262 536 q 300 583 293 557 q 307 626 307 609 q 241 745 307 700 q 229 768 229 753 q 244 792 229 783 q 292 872 292 822 q 258 931 292 908 q 269 874 269 903 q 206 766 269 812 q 285 618 285 713 q 262 536 285 574 z "},"":{"ha":395,"x_min":34,"x_max":361,"o":"m 334 472 l 210 472 q 190 480 198 472 q 182 499 182 488 q 189 518 182 510 q 207 526 196 526 l 207 624 l 61 627 q 34 651 34 628 q 90 939 34 654 q 73 965 73 947 q 81 984 73 976 q 100 992 89 992 l 146 992 q 165 984 157 992 q 174 965 174 976 q 165 946 174 954 q 146 938 157 938 l 94 678 l 207 678 l 207 938 q 189 947 196 939 q 182 965 182 954 q 190 984 182 976 q 210 992 198 992 l 334 992 q 353 984 345 992 q 361 965 361 976 q 354 947 361 954 q 336 938 347 939 l 336 526 q 354 518 347 526 q 361 499 361 510 q 353 480 361 488 q 334 472 345 472 m 281 526 l 281 938 l 261 938 l 261 526 l 281 526 z "},"":{"ha":301,"x_min":-106,"x_max":270,"o":"m 47 -271 q -59 -232 -12 -271 q -106 -138 -106 -193 q -99 -118 -106 -126 q -79 -111 -91 -111 q -60 -118 -68 -111 q -52 -138 -52 -126 q -25 -191 -52 -169 q 3 -208 -13 -201 q 71 -43 71 -176 l 71 602 l 48 602 q 29 610 37 602 q 21 629 21 618 q 29 648 21 640 q 48 656 37 656 l 243 656 q 262 648 254 656 q 270 629 270 640 q 262 610 270 618 q 243 602 254 602 l 220 602 l 220 -43 q 176 -205 220 -146 q 47 -271 127 -271 m 79 -212 q 157 -120 136 -195 q 165 -43 165 -88 l 165 602 l 125 602 l 125 -43 q 79 -212 125 -152 z "},"":{"ha":195,"x_min":34,"x_max":161,"o":"m 123 921 q 140 910 135 921 q 142 902 142 906 q 131 885 142 890 q 82 838 92 868 q 98 840 90 840 q 143 821 124 840 q 161 776 161 802 q 143 731 161 749 q 98 712 124 712 q 53 731 71 712 q 34 776 34 749 q 52 863 34 827 q 115 920 71 900 q 123 921 119 921 m 98 802 q 84 798 90 802 q 72 776 72 790 q 79 758 72 765 q 98 750 87 750 q 116 758 109 750 q 123 776 123 765 q 116 794 123 787 q 98 802 109 802 z "},"":{"ha":195,"x_min":34,"x_max":161,"o":"m 73 712 q 56 723 60 712 q 54 731 54 727 q 65 748 54 743 q 113 795 103 766 q 98 794 106 794 q 53 812 71 794 q 34 857 34 831 q 53 902 34 884 q 98 921 71 921 q 143 902 124 921 q 161 857 161 884 q 144 770 161 806 q 81 713 124 733 q 73 712 76 712 m 98 832 q 111 836 105 832 q 123 857 123 844 q 116 876 123 868 q 98 883 109 883 q 80 876 87 883 q 73 857 73 868 q 80 840 73 847 q 98 832 87 832 z "},"":{"ha":310,"x_min":34,"x_max":276,"o":"m 255 712 q 231 720 239 712 l 155 789 l 79 719 q 60 712 71 712 q 41 720 49 712 q 34 738 34 728 q 42 759 34 751 l 137 846 q 155 854 144 854 q 172 846 165 854 l 267 759 q 276 745 276 751 q 269 720 276 728 q 255 712 261 712 z "},"":{"ha":310,"x_min":34,"x_max":276,"o":"m 55 854 q 79 846 71 854 l 155 777 l 231 847 q 250 854 239 854 q 269 846 261 854 q 276 828 276 838 q 268 807 276 815 l 173 720 q 155 712 165 712 q 137 720 145 712 l 43 807 q 34 821 34 815 q 41 846 34 838 q 55 854 49 854 z "},"":{"ha":311,"x_min":34,"x_max":277,"o":"m 250 712 l 62 712 q 42 720 50 712 q 34 739 34 728 q 42 758 34 750 q 62 766 50 766 l 250 766 q 269 758 261 766 q 277 739 277 750 q 269 720 277 728 q 250 712 261 712 z "},"":{"ha":216,"x_min":34,"x_max":182,"o":"m 62 712 q 41 720 49 712 q 34 738 34 728 q 42 759 34 751 l 136 847 q 156 854 144 854 q 174 846 167 854 q 182 826 182 838 q 174 807 182 815 l 79 720 q 62 712 71 712 z "},"":{"ha":216,"x_min":34,"x_max":182,"o":"m 62 854 q 79 846 71 854 l 174 759 q 182 740 182 751 q 174 720 182 728 q 156 712 167 712 q 136 719 144 712 l 42 807 q 34 828 34 815 q 41 846 34 838 q 62 854 49 854 z "},"":{"ha":337,"x_min":34,"x_max":303,"o":"m 276 -122 l 61 -122 q 42 -114 50 -122 q 34 -95 34 -106 q 42 -76 34 -84 q 61 -68 50 -68 l 276 -68 q 295 -76 288 -68 q 303 -95 303 -84 q 295 -114 303 -106 q 276 -122 288 -122 z "},"":{"ha":311,"x_min":34,"x_max":277,"o":"m 156 712 q 87 730 121 712 q 37 779 57 746 q 34 792 34 785 q 47 816 34 808 q 61 819 54 819 q 84 806 77 819 q 156 766 109 766 q 196 777 178 766 q 227 806 215 787 q 250 819 234 819 q 263 815 256 819 q 277 793 277 807 q 273 779 277 785 q 224 730 254 747 q 156 712 191 712 z "},"":{"ha":311,"x_min":34,"x_max":277,"o":"m 198 -182 q 161 -171 176 -182 q 134 -143 146 -159 q 112 -122 117 -122 q 105 -127 110 -122 q 86 -165 96 -138 q 60 -182 79 -182 q 37 -170 43 -182 q 34 -156 34 -161 q 35 -146 34 -151 q 112 -68 63 -68 q 149 -80 134 -68 q 176 -108 163 -92 q 198 -128 193 -128 q 224 -86 209 -128 q 249 -68 231 -68 q 258 -70 254 -68 q 277 -95 277 -77 q 275 -104 277 -100 q 198 -182 246 -182 z "},"":{"ha":460,"x_min":34,"x_max":426,"o":"m 399 1062 l 61 1062 q 42 1070 50 1062 q 34 1089 34 1078 q 42 1108 34 1100 q 61 1116 50 1116 l 399 1116 q 418 1108 410 1116 q 426 1089 426 1100 q 418 1070 426 1078 q 399 1062 410 1062 z "},"":{"ha":311,"x_min":34,"x_max":277,"o":"m 156 712 q 87 730 121 712 q 37 779 57 746 q 34 792 34 785 q 47 816 34 808 q 61 819 54 819 q 84 806 77 819 q 156 766 109 766 q 196 777 178 766 q 227 806 215 787 q 250 819 234 819 q 263 815 256 819 q 277 793 277 807 q 273 779 277 785 q 224 730 254 747 q 156 712 191 712 z "},"":{"ha":311,"x_min":34,"x_max":277,"o":"m 156 712 q 87 730 121 712 q 37 779 57 746 q 34 792 34 785 q 47 816 34 808 q 61 819 54 819 q 84 806 77 819 q 156 766 109 766 q 196 777 178 766 q 227 806 215 787 q 250 819 234 819 q 263 815 256 819 q 277 793 277 807 q 273 779 277 785 q 224 730 254 747 q 156 712 191 712 m 155 819 q 117 835 133 819 q 102 873 102 851 q 117 911 102 895 q 155 927 133 927 q 193 911 178 927 q 209 873 209 895 q 193 835 209 851 q 155 819 178 819 z "},"":{"ha":195,"x_min":34,"x_max":161,"o":"m 73 712 q 56 723 60 712 q 54 731 54 727 q 65 748 54 743 q 113 795 103 766 q 98 794 106 794 q 53 812 71 794 q 34 857 34 831 q 53 902 34 884 q 98 921 71 921 q 143 902 124 921 q 161 857 161 884 q 144 770 161 806 q 81 713 124 733 q 73 712 76 712 m 98 832 q 111 836 105 832 q 123 857 123 844 q 116 876 123 868 q 98 883 109 883 q 80 876 87 883 q 73 857 73 868 q 80 840 73 847 q 98 832 87 832 z "},"":{"ha":176,"x_min":34,"x_max":142,"o":"m 87 -176 q 50 -160 65 -176 q 34 -121 34 -144 q 50 -83 34 -99 q 87 -68 65 -68 q 126 -83 110 -68 q 142 -121 142 -99 q 126 -160 142 -144 q 87 -176 110 -176 z "},"":{"ha":350,"x_min":34,"x_max":316,"o":"m 87 -176 q 50 -160 65 -176 q 34 -121 34 -144 q 50 -83 34 -99 q 87 -68 65 -68 q 126 -83 110 -68 q 142 -121 142 -99 q 126 -160 142 -144 q 87 -176 110 -176 m 262 -176 q 224 -160 239 -176 q 208 -121 208 -144 q 224 -83 208 -99 q 262 -68 239 -68 q 300 -83 284 -68 q 316 -121 316 -99 q 300 -160 316 -144 q 262 -176 284 -176 z "},"":{"ha":258,"x_min":34,"x_max":224,"o":"m 129 -258 q 62 -231 90 -258 q 34 -163 34 -203 q 62 -96 34 -123 q 129 -68 90 -68 q 197 -96 169 -68 q 224 -163 224 -123 q 197 -231 224 -203 q 129 -258 169 -258 m 129 -204 q 158 -192 146 -204 q 170 -163 170 -180 q 158 -134 170 -146 q 129 -122 146 -122 q 100 -134 113 -122 q 88 -163 88 -146 q 100 -192 88 -180 q 129 -204 113 -204 z "},"":{"ha":195,"x_min":34,"x_max":161,"o":"m 73 -277 q 56 -266 60 -277 q 54 -258 54 -262 q 65 -241 54 -246 q 113 -193 103 -224 q 98 -195 106 -195 q 53 -177 71 -195 q 34 -132 34 -158 q 53 -86 34 -105 q 98 -68 71 -68 q 143 -86 124 -68 q 161 -132 161 -105 q 144 -218 161 -182 q 81 -275 124 -256 q 73 -277 76 -277 m 98 -157 q 111 -153 105 -157 q 123 -132 123 -146 q 116 -113 123 -121 q 98 -106 109 -106 q 80 -113 87 -106 q 73 -132 73 -121 q 80 -150 73 -142 q 98 -157 87 -157 z "},"":{"ha":460,"x_min":34,"x_max":426,"o":"m 399 -122 l 61 -122 q 42 -114 50 -122 q 34 -95 34 -106 q 42 -76 34 -84 q 61 -68 50 -68 l 399 -68 q 418 -76 410 -68 q 426 -95 426 -84 q 418 -114 426 -106 q 399 -122 410 -122 z "},"":{"ha":856,"x_min":44,"x_max":847,"o":"m 189 54 l 189 931 l 149 931 l 149 54 l 189 54 m 684 63 q 732 95 712 75 q 793 241 793 151 q 721 423 793 345 q 572 541 673 476 q 486 602 526 572 q 422 669 447 633 q 398 753 398 705 q 478 926 398 852 q 419 890 444 913 q 359 744 359 834 q 386 653 359 692 q 454 581 412 613 q 543 517 496 548 q 643 444 595 482 q 721 357 690 406 q 752 241 752 309 q 684 63 752 132 m 564 -14 q 412 24 482 -14 q 308 128 346 59 q 304 140 304 134 q 319 165 304 157 q 332 168 325 168 q 355 154 347 168 q 525 59 408 59 q 651 108 608 59 q 697 241 697 161 q 670 334 697 294 q 601 408 643 374 q 512 472 559 441 q 412 545 459 507 q 335 630 365 583 q 304 744 304 678 q 383 930 304 857 l 384 931 l 243 931 l 243 54 l 266 54 q 285 46 277 54 q 293 27 293 38 q 285 8 293 16 q 266 0 277 0 l 71 0 q 52 8 60 0 q 44 27 44 16 q 52 46 44 38 q 71 54 60 54 l 94 54 l 94 931 l 71 931 q 52 939 60 931 q 44 958 44 947 q 52 977 44 969 q 71 985 60 985 l 589 985 q 607 958 607 985 q 588 931 607 931 q 500 875 548 931 q 452 753 452 819 q 473 692 452 720 q 528 638 494 664 q 602 587 562 612 q 689 526 646 558 q 768 454 732 494 q 825 362 804 414 q 847 241 847 310 q 768 55 847 127 q 564 -14 692 -14 z "},"":{"ha":176,"x_min":34,"x_max":142,"o":"m 87 712 q 50 728 66 712 q 34 766 34 743 q 50 804 34 788 q 87 819 66 819 q 126 804 110 819 q 142 766 142 788 q 126 728 142 743 q 87 712 110 712 z "},"":{"ha":258,"x_min":34,"x_max":224,"o":"m 130 663 q 62 691 90 663 q 34 759 34 720 q 62 826 34 798 q 130 854 90 854 q 197 826 169 854 q 224 759 224 798 q 197 691 224 720 q 130 663 169 663 m 130 718 q 158 730 146 718 q 170 759 170 742 q 158 788 170 776 q 130 800 146 800 q 100 788 113 800 q 88 759 88 776 q 100 730 88 742 q 130 718 113 718 z "},"":{"ha":222,"x_min":34,"x_max":188,"o":"m 117 -221 q 56 -194 83 -221 q 34 -131 34 -172 q 59 -41 34 -89 q 123 34 82 2 q 140 41 131 41 q 159 32 152 41 q 166 14 166 22 q 156 -8 166 1 q 107 -67 125 -33 q 89 -131 89 -102 q 117 -167 89 -167 q 139 -156 130 -167 q 161 -145 148 -145 q 177 -151 170 -145 q 188 -172 188 -159 q 182 -189 188 -181 q 117 -221 155 -221 z "},"":{"ha":310,"x_min":34,"x_max":276,"o":"m 198 712 q 161 724 176 712 q 134 751 146 736 q 112 772 117 772 q 105 767 110 772 q 86 730 96 756 q 60 712 79 712 q 37 725 43 712 q 34 739 34 733 q 35 748 34 744 q 112 827 63 827 q 149 814 134 827 q 176 787 163 802 q 198 766 193 766 q 224 808 209 766 q 248 827 231 827 q 258 825 254 827 q 276 800 276 818 q 275 790 276 794 q 198 712 245 712 z "},"":{"ha":363,"x_min":34,"x_max":330,"o":"m 62 712 q 41 720 49 712 q 34 738 34 728 q 42 759 34 751 l 136 847 q 156 854 144 854 q 174 846 167 854 q 182 826 182 838 q 174 807 182 815 l 79 720 q 62 712 71 712 m 210 712 q 189 720 197 712 q 182 738 182 728 q 190 759 182 751 l 284 847 q 304 854 292 854 q 322 846 315 854 q 330 826 330 838 q 321 807 330 815 l 227 720 q 210 712 219 712 z "},"":{"ha":684,"x_min":7,"x_max":681,"o":"m 653 0 l 534 0 q 515 8 524 0 q 507 27 507 16 q 515 46 507 38 q 534 54 524 54 l 567 54 q 526 553 564 347 l 245 553 q 203 54 207 356 l 229 54 q 248 46 240 54 q 256 27 256 38 q 248 8 256 16 q 229 0 240 0 l 34 0 q 15 8 22 0 q 7 27 7 16 q 15 46 7 38 q 34 54 22 54 l 54 54 q 217 916 62 721 q 334 985 272 985 q 547 701 465 985 q 621 54 616 461 l 653 54 q 673 46 665 54 q 681 27 681 38 q 673 8 681 16 q 653 0 665 0 m 149 54 q 201 614 153 401 q 335 931 256 850 q 250 871 292 931 q 109 54 116 678 l 149 54 m 515 608 q 389 907 466 836 q 256 608 313 848 l 515 608 m 434 1042 l 246 1042 q 227 1049 235 1042 q 218 1069 218 1057 q 227 1088 218 1080 q 246 1096 235 1096 l 434 1096 q 454 1088 446 1096 q 462 1069 462 1080 q 454 1049 462 1057 q 434 1042 446 1042 z "},"":{"ha":679,"x_min":16,"x_max":677,"o":"m 556 -14 q 479 27 509 -14 q 436 155 450 69 q 422 277 427 207 q 281 25 360 77 q 198 0 243 0 q 67 96 117 0 q 16 327 16 191 q 99 598 16 504 q 234 656 149 656 q 413 588 328 656 l 413 629 q 421 648 413 640 q 440 656 429 656 l 584 656 q 603 648 595 656 q 611 629 611 640 q 603 610 611 618 q 584 602 595 602 l 563 602 q 576 235 563 366 q 613 80 587 122 q 626 99 620 89 q 639 111 632 109 q 650 113 646 113 q 663 110 656 113 q 677 86 677 102 q 673 73 677 79 q 622 12 650 34 q 556 -14 587 -14 m 556 41 q 572 45 563 41 q 522 229 535 98 q 508 602 508 365 l 467 602 l 467 585 q 489 165 467 300 q 556 41 509 41 m 250 70 q 304 133 278 88 q 408 455 359 225 q 414 515 414 484 q 271 598 339 587 q 216 543 237 581 q 166 332 166 458 q 206 129 166 216 q 250 70 224 90 m 189 55 q 157 105 171 77 q 112 332 112 203 q 170 572 112 473 q 183 593 176 583 q 83 445 110 560 q 71 327 71 388 q 83 209 71 266 q 124 104 98 146 q 189 55 151 62 m 420 712 l 233 712 q 213 720 221 712 q 205 739 205 728 q 213 758 205 750 q 233 766 221 766 l 420 766 q 440 758 432 766 q 448 739 448 750 q 440 720 448 728 q 420 712 432 712 z "},"":{"ha":684,"x_min":7,"x_max":681,"o":"m 653 0 l 534 0 q 515 8 524 0 q 507 27 507 16 q 515 46 507 38 q 534 54 524 54 l 567 54 q 526 553 564 347 l 245 553 q 203 54 207 356 l 229 54 q 248 46 240 54 q 256 27 256 38 q 248 8 256 16 q 229 0 240 0 l 34 0 q 15 8 22 0 q 7 27 7 16 q 15 46 7 38 q 34 54 22 54 l 54 54 q 217 916 62 721 q 334 985 272 985 q 547 701 465 985 q 621 54 616 461 l 653 54 q 673 46 665 54 q 681 27 681 38 q 673 8 681 16 q 653 0 665 0 m 149 54 q 201 614 153 401 q 335 931 256 850 q 250 871 292 931 q 109 54 116 678 l 149 54 m 515 608 q 389 907 466 836 q 256 608 313 848 l 515 608 m 329 1042 q 260 1059 294 1042 q 210 1108 230 1076 q 207 1122 207 1115 q 220 1145 207 1137 q 234 1149 227 1149 q 257 1136 250 1149 q 329 1096 281 1096 q 369 1106 351 1096 q 399 1136 388 1117 q 422 1149 407 1149 q 436 1145 429 1149 q 450 1122 450 1137 q 446 1108 450 1115 q 397 1059 427 1076 q 329 1042 364 1042 z "},"":{"ha":679,"x_min":16,"x_max":677,"o":"m 556 -14 q 479 27 509 -14 q 436 155 450 69 q 422 277 427 207 q 281 25 360 77 q 198 0 243 0 q 67 96 117 0 q 16 327 16 191 q 99 598 16 504 q 234 656 149 656 q 413 588 328 656 l 413 629 q 421 648 413 640 q 440 656 429 656 l 584 656 q 603 648 595 656 q 611 629 611 640 q 603 610 611 618 q 584 602 595 602 l 563 602 q 576 235 563 366 q 613 80 587 122 q 626 99 620 89 q 639 111 632 109 q 650 113 646 113 q 663 110 656 113 q 677 86 677 102 q 673 73 677 79 q 622 12 650 34 q 556 -14 587 -14 m 556 41 q 572 45 563 41 q 522 229 535 98 q 508 602 508 365 l 467 602 l 467 585 q 489 165 467 300 q 556 41 509 41 m 250 70 q 304 133 278 88 q 408 455 359 225 q 414 515 414 484 q 271 598 339 587 q 216 543 237 581 q 166 332 166 458 q 206 129 166 216 q 250 70 224 90 m 189 55 q 157 105 171 77 q 112 332 112 203 q 170 572 112 473 q 183 593 176 583 q 83 445 110 560 q 71 327 71 388 q 83 209 71 266 q 124 104 98 146 q 189 55 151 62 m 333 712 q 264 730 298 712 q 214 779 234 746 q 211 792 211 785 q 224 816 211 808 q 238 819 231 819 q 261 806 254 819 q 333 766 286 766 q 373 777 355 766 q 404 806 392 787 q 427 819 411 819 q 440 815 433 819 q 454 793 454 807 q 450 779 454 785 q 401 730 431 747 q 333 712 368 712 z "},"":{"ha":688,"x_min":7,"x_max":702,"o":"m 149 54 q 201 614 153 401 q 335 931 256 850 q 250 871 292 931 q 109 54 116 678 l 149 54 m 515 608 q 389 907 466 836 q 256 608 313 848 l 515 608 m 601 0 l 534 0 q 515 8 524 0 q 507 27 507 16 q 515 46 507 38 q 534 54 524 54 l 567 54 q 526 553 564 347 l 245 553 q 203 54 207 356 l 229 54 q 248 46 240 54 q 256 27 256 38 q 248 8 256 16 q 229 0 240 0 l 34 0 q 15 8 22 0 q 7 27 7 16 q 15 46 7 38 q 34 54 22 54 l 54 54 q 217 916 62 721 q 334 985 272 985 q 547 701 465 985 q 621 54 616 461 l 653 54 q 673 46 665 54 q 681 22 681 38 q 670 -8 681 1 q 621 -67 639 -33 q 603 -131 603 -102 q 631 -167 603 -167 q 653 -156 644 -167 q 675 -145 662 -145 q 691 -151 684 -145 q 702 -172 702 -159 q 696 -189 702 -181 q 631 -221 669 -221 q 570 -194 597 -221 q 548 -131 548 -172 q 573 -41 548 -89 q 601 0 585 -19 z "},"":{"ha":680,"x_min":16,"x_max":677,"o":"m 556 41 q 572 45 563 41 q 522 229 535 98 q 508 602 508 365 l 467 602 l 467 585 q 489 165 467 300 q 556 41 509 41 m 189 55 q 157 105 171 77 q 112 332 112 203 q 170 572 112 473 q 183 593 176 583 q 83 445 110 560 q 71 327 71 388 q 83 209 71 266 q 124 104 98 146 q 189 55 151 62 m 250 70 q 304 133 278 88 q 408 455 359 225 q 414 515 414 484 q 271 598 339 587 q 216 543 237 581 q 166 332 166 458 q 206 129 166 216 q 250 70 224 90 m 533 -12 q 479 28 501 -3 q 436 155 450 69 q 422 277 427 207 q 281 25 360 77 q 198 0 243 0 q 67 96 117 0 q 16 327 16 191 q 99 598 16 504 q 234 656 149 656 q 413 588 328 656 l 413 629 q 421 648 413 640 q 440 656 429 656 l 584 656 q 603 648 595 656 q 611 629 611 640 q 603 610 611 618 q 584 602 595 602 l 563 602 q 576 235 563 366 q 613 80 587 122 q 626 99 620 89 q 639 111 632 109 q 650 113 646 113 q 663 110 658 113 q 677 86 677 102 q 611 -8 677 47 q 562 -67 580 -33 q 544 -131 544 -102 q 572 -167 544 -167 q 594 -156 585 -167 q 616 -145 603 -145 q 632 -151 625 -145 q 643 -172 643 -159 q 637 -189 643 -181 q 572 -221 610 -221 q 511 -194 538 -221 q 489 -131 489 -172 q 514 -41 489 -89 q 533 -12 522 -25 z "},"":{"ha":589,"x_min":23,"x_max":589,"o":"m 340 -14 q 23 494 23 -14 q 340 999 23 999 q 585 857 507 999 q 589 844 589 850 q 575 821 589 828 q 562 817 568 817 q 538 831 546 817 q 366 940 466 940 q 229 819 283 940 q 173 495 173 705 q 230 165 173 279 q 366 45 292 45 q 538 154 470 45 q 562 168 547 168 q 575 165 569 168 q 589 141 589 157 q 585 127 589 134 q 340 -14 507 -14 m 239 60 q 119 495 119 178 q 239 924 119 806 q 77 492 77 852 q 239 60 77 134 m 340 1042 q 319 1050 327 1042 q 312 1067 312 1058 q 320 1088 312 1080 l 414 1177 q 434 1183 422 1183 q 452 1175 445 1183 q 460 1156 460 1167 q 452 1137 460 1145 l 357 1049 q 340 1042 349 1042 z "},"":{"ha":473,"x_min":16,"x_max":471,"o":"m 270 -14 q 16 311 16 -14 q 77 546 16 464 q 270 632 140 632 q 465 542 401 632 q 471 526 471 534 q 459 504 471 513 q 444 498 451 498 q 422 510 430 498 q 326 562 387 562 q 166 309 166 562 q 310 62 166 81 q 330 61 321 61 q 421 108 388 61 q 444 119 429 119 q 459 113 451 119 q 469 101 468 107 q 471 92 471 94 q 465 76 471 84 q 270 -14 401 -14 m 189 54 q 112 311 112 140 q 181 562 112 476 q 71 311 71 513 q 189 54 71 98 m 264 712 q 244 720 252 712 q 237 738 237 728 q 245 759 237 751 l 339 847 q 359 854 347 854 q 377 846 370 854 q 385 826 385 838 q 376 807 385 815 l 281 720 q 264 712 274 712 z "},"":{"ha":589,"x_min":23,"x_max":589,"o":"m 340 -14 q 23 494 23 -14 q 340 999 23 999 q 585 857 507 999 q 589 844 589 850 q 575 821 589 828 q 562 817 568 817 q 538 831 546 817 q 366 940 466 940 q 229 819 283 940 q 173 495 173 705 q 230 165 173 279 q 366 45 292 45 q 538 154 470 45 q 562 168 547 168 q 575 165 569 168 q 589 141 589 157 q 585 127 589 134 q 340 -14 507 -14 m 239 60 q 119 495 119 178 q 239 924 119 806 q 77 492 77 852 q 239 60 77 134 m 453 1042 q 429 1049 437 1042 l 353 1119 l 277 1048 q 258 1042 269 1042 q 239 1050 247 1042 q 232 1067 232 1058 q 240 1088 232 1080 l 335 1176 q 353 1183 342 1183 q 370 1176 363 1183 l 465 1088 q 474 1074 474 1080 q 467 1050 474 1058 q 453 1042 459 1042 z "},"":{"ha":473,"x_min":16,"x_max":471,"o":"m 270 -14 q 16 311 16 -14 q 77 546 16 464 q 270 632 140 632 q 465 542 401 632 q 471 526 471 534 q 459 504 471 513 q 444 498 451 498 q 422 510 430 498 q 326 562 387 562 q 166 309 166 562 q 310 62 166 81 q 330 61 321 61 q 421 108 388 61 q 444 119 429 119 q 459 113 451 119 q 469 101 468 107 q 471 92 471 94 q 465 76 471 84 q 270 -14 401 -14 m 189 54 q 112 311 112 140 q 181 562 112 476 q 71 311 71 513 q 189 54 71 98 m 387 712 q 363 720 370 712 l 286 789 l 210 719 q 191 712 203 712 q 173 720 180 712 q 165 738 165 728 q 174 759 165 751 l 269 846 q 286 854 276 854 q 304 846 296 854 l 399 759 q 408 745 408 751 q 400 720 408 728 q 387 712 393 712 z "},"":{"ha":589,"x_min":23,"x_max":589,"o":"m 340 -14 q 23 494 23 -14 q 340 999 23 999 q 585 857 507 999 q 589 844 589 850 q 575 821 589 828 q 562 817 568 817 q 538 831 546 817 q 366 940 466 940 q 229 819 283 940 q 173 495 173 705 q 230 165 173 279 q 366 45 292 45 q 538 154 470 45 q 562 168 547 168 q 575 165 569 168 q 589 141 589 157 q 585 127 589 134 q 340 -14 507 -14 m 239 60 q 119 495 119 178 q 239 924 119 806 q 77 492 77 852 q 239 60 77 134 m 349 1042 q 311 1057 327 1042 q 295 1095 295 1073 q 311 1133 295 1118 q 349 1149 327 1149 q 387 1133 371 1149 q 403 1095 403 1118 q 387 1057 403 1073 q 349 1042 371 1042 z "},"":{"ha":473,"x_min":16,"x_max":471,"o":"m 270 -14 q 16 311 16 -14 q 77 546 16 464 q 270 632 140 632 q 465 542 401 632 q 471 526 471 534 q 459 504 471 513 q 444 498 451 498 q 422 510 430 498 q 326 562 387 562 q 166 309 166 562 q 310 62 166 81 q 330 61 321 61 q 421 108 388 61 q 444 119 429 119 q 459 113 451 119 q 469 101 468 107 q 471 92 471 94 q 465 76 471 84 q 270 -14 401 -14 m 189 54 q 112 311 112 140 q 181 562 112 476 q 71 311 71 513 q 189 54 71 98 m 277 712 q 239 728 255 712 q 223 766 223 743 q 239 804 223 788 q 277 819 255 819 q 315 804 299 819 q 331 766 331 788 q 315 728 331 743 q 277 712 299 712 z "},"":{"ha":589,"x_min":23,"x_max":589,"o":"m 340 -14 q 23 494 23 -14 q 340 999 23 999 q 585 857 507 999 q 589 844 589 850 q 575 821 589 828 q 562 817 568 817 q 538 831 546 817 q 366 940 466 940 q 229 819 283 940 q 173 495 173 705 q 230 165 173 279 q 366 45 292 45 q 538 154 470 45 q 562 168 547 168 q 575 165 569 168 q 589 141 589 157 q 585 127 589 134 q 340 -14 507 -14 m 239 60 q 119 495 119 178 q 239 924 119 806 q 77 492 77 852 q 239 60 77 134 m 448 1183 q 462 1175 454 1183 q 469 1151 469 1167 q 460 1137 469 1145 l 366 1049 q 348 1042 358 1042 q 330 1049 338 1042 l 235 1137 q 227 1158 227 1145 q 235 1175 227 1167 q 253 1183 242 1183 q 272 1177 264 1183 l 348 1106 l 425 1176 q 448 1183 432 1183 z "},"":{"ha":475,"x_min":19,"x_max":473,"o":"m 273 -14 q 19 311 19 -14 q 79 546 19 464 q 273 632 142 632 q 468 542 404 632 q 473 526 473 534 q 462 504 473 513 q 446 498 454 498 q 425 510 433 498 q 329 562 390 562 q 169 309 169 562 q 313 62 169 81 q 333 61 323 61 q 424 108 391 61 q 446 119 432 119 q 462 113 454 119 q 472 101 471 107 q 473 92 473 94 q 468 76 473 84 q 273 -14 404 -14 m 191 54 q 115 311 115 140 q 184 562 115 476 q 73 311 73 513 q 191 54 73 98 m 380 854 q 394 846 387 854 q 401 821 401 838 q 393 807 401 815 l 298 720 q 280 712 290 712 q 262 720 270 712 l 168 807 q 159 828 159 815 q 167 846 159 838 q 185 854 174 854 q 204 847 197 854 l 280 777 l 357 846 q 380 854 364 854 z "},"":{"ha":686,"x_min":44,"x_max":653,"o":"m 189 54 l 189 931 l 149 931 l 149 54 l 189 54 m 243 62 q 480 311 422 104 q 503 481 503 393 q 481 663 503 577 q 243 923 423 879 l 243 62 m 268 0 l 71 0 q 52 8 60 0 q 44 27 44 16 q 52 46 44 38 q 71 54 60 54 l 94 54 l 94 931 l 71 931 q 52 939 60 931 q 44 958 44 947 q 52 977 44 969 q 71 985 60 985 l 266 985 q 431 948 360 985 q 627 680 576 871 q 653 481 653 585 q 627 294 653 385 q 547 133 601 203 q 268 0 444 0 m 408 86 q 576 311 530 150 q 599 481 599 393 q 576 663 599 577 q 406 899 530 834 q 532 680 495 819 q 558 481 558 585 q 532 294 558 385 q 408 86 494 164 m 338 1183 q 352 1175 345 1183 q 359 1151 359 1167 q 351 1137 359 1145 l 256 1049 q 238 1042 248 1042 q 220 1049 228 1042 l 125 1137 q 117 1158 117 1145 q 125 1175 117 1167 q 143 1183 132 1183 q 162 1177 155 1183 l 238 1106 l 315 1176 q 338 1183 322 1183 z "},"":{"ha":846,"x_min":22,"x_max":812,"o":"m 562 -14 q 485 28 514 -14 q 428 277 441 91 q 286 25 365 76 q 203 0 248 0 q 72 96 122 0 q 22 330 22 192 q 104 598 22 505 q 239 656 155 656 q 418 588 333 656 l 418 931 l 396 931 q 377 939 385 931 q 369 958 369 947 q 377 977 369 969 q 396 985 385 985 l 591 985 q 610 977 602 985 q 618 958 618 969 q 610 939 618 947 q 591 931 602 931 l 568 931 l 568 629 q 582 235 568 372 q 618 82 593 124 q 634 102 625 91 q 654 113 643 113 q 673 106 663 113 q 683 85 683 100 q 677 70 683 77 q 562 -14 616 -14 m 562 41 q 576 45 568 41 q 528 229 541 99 q 514 629 514 371 l 514 931 l 473 931 l 473 629 q 494 164 473 295 q 562 41 515 41 m 255 70 q 310 133 283 88 q 408 455 365 225 l 419 515 q 277 598 345 587 q 221 543 243 581 q 172 335 172 458 q 212 129 172 217 q 255 70 230 90 m 194 55 q 163 105 176 77 q 117 336 117 205 q 175 572 117 473 q 189 593 181 583 q 89 445 115 560 q 77 333 77 391 q 130 104 77 189 q 194 55 157 62 m 723 777 q 706 787 711 777 q 704 795 704 791 q 715 812 704 807 q 764 860 753 829 q 749 858 756 858 q 703 877 722 858 q 684 922 684 895 q 703 967 684 948 q 749 985 722 985 q 793 967 774 985 q 812 922 812 948 q 794 835 812 871 q 731 778 774 798 q 723 777 726 777 m 748 896 q 762 900 755 896 q 774 922 774 907 q 766 940 774 932 q 748 947 759 947 q 730 940 738 947 q 723 922 723 932 q 730 903 723 911 q 748 896 738 896 z "},"":{"ha":711,"x_min":44,"x_max":678,"o":"m 433 86 q 601 311 555 150 q 624 481 624 393 q 601 663 624 577 q 431 899 555 834 q 557 680 520 819 q 583 481 583 585 q 557 294 583 385 q 433 86 519 164 m 293 0 l 96 0 q 77 8 85 0 q 69 27 69 16 q 77 46 69 38 q 96 54 85 54 l 119 54 l 119 465 l 71 465 q 52 473 60 465 q 44 492 44 481 q 52 512 44 504 q 71 519 60 519 l 119 519 l 119 931 l 96 931 q 77 939 85 931 q 69 958 69 947 q 77 977 69 969 q 96 985 85 985 l 291 985 q 456 948 385 985 q 652 680 601 871 q 678 481 678 585 q 652 294 678 385 q 572 133 626 203 q 293 0 469 0 m 269 62 q 505 311 447 104 q 528 481 528 393 q 506 663 528 577 q 269 923 448 879 l 269 519 l 382 519 q 401 512 393 519 q 409 492 409 504 q 401 473 409 481 q 382 465 393 465 l 269 465 l 269 62 m 214 54 l 214 931 l 174 931 l 174 54 l 214 54 z "},"":{"ha":679,"x_min":16,"x_max":677,"o":"m 555 41 q 570 45 562 41 q 522 229 534 99 q 508 629 508 371 l 508 931 l 467 931 l 467 629 q 488 164 467 295 q 555 41 509 41 m 188 55 q 157 105 170 77 q 111 336 111 205 q 169 572 111 473 q 182 593 175 583 q 83 445 109 560 q 71 333 71 391 q 123 104 71 189 q 188 55 151 62 m 249 70 q 304 133 277 88 q 401 455 359 225 l 413 515 q 271 598 338 587 q 215 543 237 581 q 165 335 165 458 q 206 129 165 217 q 249 70 224 90 m 412 763 l 306 763 q 287 771 295 763 q 279 790 279 779 q 287 809 279 801 q 306 817 295 817 l 412 817 l 412 931 l 390 931 q 371 939 378 931 q 363 958 363 947 q 371 977 363 969 q 390 985 378 985 l 585 985 q 604 977 596 985 q 612 958 612 969 q 604 939 612 947 q 585 931 596 931 l 562 931 l 562 817 l 608 817 q 627 809 619 817 q 635 790 635 801 q 627 771 635 779 q 608 763 619 763 l 562 763 l 562 629 q 576 235 562 372 q 612 82 587 124 q 628 102 619 91 q 648 113 637 113 q 667 106 657 113 q 677 85 677 100 q 671 70 677 77 q 555 -14 610 -14 q 479 28 508 -14 q 422 277 435 91 q 280 25 359 76 q 197 0 242 0 q 66 96 116 0 q 16 330 16 192 q 98 598 16 505 q 233 656 149 656 q 412 588 327 656 l 412 763 z "},"":{"ha":590,"x_min":44,"x_max":572,"o":"m 545 0 l 71 0 q 52 8 60 0 q 44 27 44 16 q 52 46 44 38 q 71 54 60 54 l 94 54 l 94 931 l 71 931 q 52 939 60 931 q 44 958 44 947 q 52 977 44 969 q 71 985 60 985 l 545 985 q 564 977 556 985 q 572 958 572 969 l 572 878 q 564 858 572 866 q 545 850 556 850 q 526 858 534 850 q 517 878 517 866 l 517 931 l 243 931 l 243 608 l 451 608 q 459 630 451 622 q 478 637 467 637 q 497 630 490 637 q 505 610 505 622 l 505 551 q 497 532 505 540 q 478 524 490 524 q 459 532 467 524 q 451 553 451 540 l 243 553 l 243 54 l 517 54 l 517 107 q 526 127 517 119 q 545 135 534 135 q 564 127 556 135 q 572 107 572 119 l 572 27 q 564 8 572 16 q 545 0 556 0 m 189 54 l 189 931 l 148 931 l 148 54 l 189 54 m 401 1042 l 214 1042 q 194 1049 202 1042 q 186 1069 186 1057 q 194 1088 186 1080 q 214 1096 202 1096 l 401 1096 q 421 1088 413 1096 q 429 1069 429 1080 q 421 1049 429 1057 q 401 1042 413 1042 z "},"":{"ha":495,"x_min":20,"x_max":473,"o":"m 178 206 q 341 302 284 242 q 413 452 413 376 q 376 544 413 509 q 315 563 355 563 q 221 514 262 563 q 169 311 169 452 q 178 206 169 251 m 273 -14 q 81 71 144 -14 q 20 311 20 153 q 273 632 20 632 q 412 584 361 632 q 467 452 467 532 q 379 263 467 355 q 191 153 313 194 q 322 57 228 57 q 424 107 389 57 q 446 119 433 119 q 464 113 454 119 q 473 93 473 106 q 468 77 473 84 q 273 -14 404 -14 m 184 56 q 115 311 115 140 q 183 561 115 475 q 74 311 74 512 q 184 56 74 105 m 366 712 l 178 712 q 159 720 167 712 q 151 739 151 728 q 159 758 151 750 q 178 766 167 766 l 366 766 q 386 758 378 766 q 394 739 394 750 q 386 720 394 728 q 366 712 378 712 z "},"":{"ha":590,"x_min":44,"x_max":572,"o":"m 545 0 l 71 0 q 52 8 60 0 q 44 27 44 16 q 52 46 44 38 q 71 54 60 54 l 94 54 l 94 931 l 71 931 q 52 939 60 931 q 44 958 44 947 q 52 977 44 969 q 71 985 60 985 l 545 985 q 564 977 556 985 q 572 958 572 969 l 572 878 q 564 858 572 866 q 545 850 556 850 q 526 858 534 850 q 517 878 517 866 l 517 931 l 243 931 l 243 608 l 451 608 q 459 630 451 622 q 478 637 467 637 q 497 630 490 637 q 505 610 505 622 l 505 551 q 497 532 505 540 q 478 524 490 524 q 459 532 467 524 q 451 553 451 540 l 243 553 l 243 54 l 517 54 l 517 107 q 526 127 517 119 q 545 135 534 135 q 564 127 556 135 q 572 107 572 119 l 572 27 q 564 8 572 16 q 545 0 556 0 m 189 54 l 189 931 l 148 931 l 148 54 l 189 54 m 328 1042 q 259 1059 292 1042 q 209 1108 229 1076 q 205 1122 205 1115 q 219 1145 205 1137 q 233 1149 225 1149 q 256 1136 248 1149 q 328 1096 280 1096 q 368 1106 349 1096 q 398 1136 387 1117 q 421 1149 406 1149 q 435 1145 428 1149 q 448 1122 448 1137 q 444 1108 448 1115 q 395 1059 425 1076 q 328 1042 363 1042 z "},"":{"ha":495,"x_min":20,"x_max":473,"o":"m 178 206 q 341 302 284 242 q 413 452 413 376 q 376 544 413 509 q 315 563 355 563 q 221 514 262 563 q 169 311 169 452 q 178 206 169 251 m 273 -14 q 81 71 144 -14 q 20 311 20 153 q 273 632 20 632 q 412 584 361 632 q 467 452 467 532 q 379 263 467 355 q 191 153 313 194 q 322 57 228 57 q 424 107 389 57 q 446 119 433 119 q 464 113 454 119 q 473 93 473 106 q 468 77 473 84 q 273 -14 404 -14 m 184 56 q 115 311 115 140 q 183 561 115 475 q 74 311 74 512 q 184 56 74 105 m 252 712 q 184 730 217 712 q 134 779 153 746 q 130 792 130 785 q 144 816 130 808 q 157 819 150 819 q 180 806 173 819 q 252 766 205 766 q 293 777 274 766 q 323 806 311 787 q 346 819 330 819 q 359 815 353 819 q 373 793 373 807 q 369 779 373 785 q 320 730 350 747 q 252 712 288 712 z "},"":{"ha":590,"x_min":44,"x_max":572,"o":"m 545 0 l 71 0 q 52 8 60 0 q 44 27 44 16 q 52 46 44 38 q 71 54 60 54 l 94 54 l 94 931 l 71 931 q 52 939 60 931 q 44 958 44 947 q 52 977 44 969 q 71 985 60 985 l 545 985 q 564 977 556 985 q 572 958 572 969 l 572 878 q 564 858 572 866 q 545 850 556 850 q 526 858 534 850 q 517 878 517 866 l 517 931 l 243 931 l 243 608 l 451 608 q 459 630 451 622 q 478 637 467 637 q 497 630 490 637 q 505 610 505 622 l 505 551 q 497 532 505 540 q 478 524 490 524 q 459 532 467 524 q 451 553 451 540 l 243 553 l 243 54 l 517 54 l 517 107 q 526 127 517 119 q 545 135 534 135 q 564 127 556 135 q 572 107 572 119 l 572 27 q 564 8 572 16 q 545 0 556 0 m 189 54 l 189 931 l 148 931 l 148 54 l 189 54 m 316 1042 q 278 1057 294 1042 q 262 1095 262 1073 q 278 1133 262 1118 q 316 1149 294 1149 q 354 1133 338 1149 q 370 1095 370 1118 q 354 1057 370 1073 q 316 1042 338 1042 z "},"":{"ha":492,"x_min":16,"x_max":470,"o":"m 174 206 q 338 302 281 242 q 410 452 410 376 q 372 544 410 509 q 311 563 352 563 q 218 514 259 563 q 165 311 165 452 q 174 206 165 251 m 269 -14 q 77 71 140 -14 q 16 311 16 153 q 269 632 16 632 q 408 584 357 632 q 464 452 464 532 q 376 263 464 355 q 188 153 310 194 q 319 57 224 57 q 420 107 385 57 q 443 119 429 119 q 460 113 451 119 q 470 93 470 106 q 465 77 470 84 q 269 -14 401 -14 m 181 56 q 111 311 111 140 q 180 561 111 475 q 71 311 71 512 q 181 56 71 105 m 269 712 q 231 728 247 712 q 215 766 215 743 q 231 804 215 788 q 269 819 247 819 q 307 804 291 819 q 323 766 323 788 q 307 728 323 743 q 269 712 291 712 z "},"":{"ha":595,"x_min":44,"x_max":578,"o":"m 189 54 l 189 931 l 148 931 l 148 54 l 189 54 m 477 0 l 71 0 q 52 8 60 0 q 44 27 44 16 q 52 46 44 38 q 71 54 60 54 l 94 54 l 94 931 l 71 931 q 52 939 60 931 q 44 958 44 947 q 52 977 44 969 q 71 985 60 985 l 545 985 q 564 977 556 985 q 572 958 572 969 l 572 878 q 564 858 572 866 q 545 850 556 850 q 526 858 534 850 q 517 878 517 866 l 517 931 l 243 931 l 243 608 l 451 608 q 459 630 451 622 q 478 637 467 637 q 497 630 490 637 q 505 610 505 622 l 505 551 q 497 532 505 540 q 478 524 490 524 q 459 532 467 524 q 451 553 451 540 l 243 553 l 243 54 l 517 54 l 517 107 q 526 127 517 119 q 545 135 534 135 q 564 127 556 135 q 572 107 572 119 l 572 27 q 547 -8 572 13 q 497 -67 515 -33 q 479 -131 479 -102 q 508 -167 479 -167 q 530 -156 521 -167 q 551 -145 538 -145 q 568 -151 560 -145 q 578 -172 578 -159 q 573 -189 578 -181 q 508 -221 546 -221 q 447 -194 474 -221 q 425 -131 425 -172 q 450 -41 425 -89 q 477 0 461 -19 z "},"":{"ha":490,"x_min":16,"x_max":470,"o":"m 174 206 q 338 302 281 242 q 410 452 410 376 q 372 544 410 509 q 311 563 352 563 q 218 514 259 563 q 165 311 165 452 q 174 206 165 251 m 181 56 q 111 311 111 140 q 180 561 111 475 q 71 311 71 512 q 181 56 71 105 m 286 -14 q 269 -14 277 -14 q 77 71 140 -14 q 16 311 16 153 q 269 632 16 632 q 408 584 357 632 q 464 452 464 532 q 376 263 464 355 q 188 153 310 194 q 319 57 224 57 q 420 107 385 57 q 443 119 429 119 q 460 113 451 119 q 470 93 470 106 q 366 -8 470 75 q 316 -67 334 -33 q 298 -131 298 -102 q 327 -167 298 -167 q 348 -156 340 -167 q 370 -145 357 -145 q 387 -151 379 -145 q 397 -172 397 -159 q 392 -189 397 -181 q 327 -221 365 -221 q 266 -194 293 -221 q 243 -131 243 -172 q 269 -41 243 -89 q 286 -14 276 -26 z "},"":{"ha":590,"x_min":44,"x_max":572,"o":"m 545 0 l 71 0 q 52 8 60 0 q 44 27 44 16 q 52 46 44 38 q 71 54 60 54 l 94 54 l 94 931 l 71 931 q 52 939 60 931 q 44 958 44 947 q 52 977 44 969 q 71 985 60 985 l 545 985 q 564 977 556 985 q 572 958 572 969 l 572 878 q 564 858 572 866 q 545 850 556 850 q 526 858 534 850 q 517 878 517 866 l 517 931 l 243 931 l 243 608 l 451 608 q 459 630 451 622 q 478 637 467 637 q 497 630 490 637 q 505 610 505 622 l 505 551 q 497 532 505 540 q 478 524 490 524 q 459 532 467 524 q 451 553 451 540 l 243 553 l 243 54 l 517 54 l 517 107 q 526 127 517 119 q 545 135 534 135 q 564 127 556 135 q 572 107 572 119 l 572 27 q 564 8 572 16 q 545 0 556 0 m 189 54 l 189 931 l 148 931 l 148 54 l 189 54 m 408 1183 q 422 1175 414 1183 q 429 1151 429 1167 q 420 1137 429 1145 l 326 1049 q 308 1042 318 1042 q 290 1049 298 1042 l 195 1137 q 187 1158 187 1145 q 195 1175 187 1167 q 213 1183 202 1183 q 232 1177 224 1183 l 308 1106 l 385 1176 q 408 1183 392 1183 z "},"":{"ha":494,"x_min":19,"x_max":473,"o":"m 177 206 q 340 302 283 242 q 412 452 412 376 q 375 544 412 509 q 314 563 355 563 q 220 514 262 563 q 168 311 168 452 q 177 206 168 251 m 272 -14 q 80 71 143 -14 q 19 311 19 153 q 272 632 19 632 q 411 584 360 632 q 467 452 467 532 q 378 263 467 355 q 191 153 313 194 q 321 57 227 57 q 423 107 388 57 q 446 119 432 119 q 463 113 454 119 q 473 93 473 106 q 467 77 473 84 q 272 -14 404 -14 m 184 56 q 114 311 114 140 q 182 561 114 475 q 73 311 73 512 q 184 56 73 105 m 368 854 q 381 846 374 854 q 389 821 389 838 q 380 807 389 815 l 285 720 q 267 712 277 712 q 250 720 257 712 l 155 807 q 146 828 146 815 q 154 846 146 838 q 172 854 161 854 q 191 847 184 854 l 267 777 l 344 846 q 368 854 351 854 z "},"":{"ha":649,"x_min":23,"x_max":625,"o":"m 340 -14 q 23 490 23 -14 l 23 498 q 340 999 23 999 q 585 858 506 999 q 589 845 589 852 q 574 821 589 829 q 562 817 568 817 q 538 831 545 817 q 375 941 479 941 q 265 873 323 941 q 172 496 172 766 q 260 121 172 231 q 381 45 322 45 q 496 118 448 45 q 570 463 566 219 l 363 463 q 355 441 363 449 q 336 433 347 433 q 317 441 325 433 q 309 460 309 449 l 309 519 q 317 538 309 530 q 336 547 325 547 q 355 538 347 547 q 363 517 363 530 l 598 517 q 617 509 610 517 q 625 490 625 501 q 533 73 625 188 q 405 -7 479 7 q 340 -14 371 -14 m 239 61 q 118 496 118 180 q 239 925 118 807 q 77 498 77 852 q 239 61 77 132 m 425 1042 q 401 1049 408 1042 l 324 1119 l 248 1048 q 229 1042 241 1042 q 211 1050 218 1042 q 203 1067 203 1058 q 212 1088 203 1080 l 307 1176 q 324 1183 314 1183 q 342 1176 334 1183 l 437 1088 q 446 1074 446 1080 q 438 1050 446 1058 q 425 1042 431 1042 z "},"":{"ha":644,"x_min":16,"x_max":604,"o":"m 250 70 q 304 133 278 88 q 401 452 358 224 l 413 515 q 271 598 338 587 q 215 543 237 581 q 165 335 165 458 q 206 129 165 217 q 250 70 224 90 m 298 -271 q 175 -242 229 -271 q 88 -160 117 -211 q 85 -147 85 -154 q 99 -123 85 -132 q 111 -119 105 -119 q 136 -134 128 -119 q 199 -193 157 -170 q 267 -211 232 -211 q 289 -209 277 -211 q 376 -130 340 -201 q 413 46 413 -59 l 413 250 q 281 25 355 74 q 197 0 243 0 q 66 96 116 0 q 16 333 16 192 q 98 598 16 505 q 233 656 149 656 q 413 588 328 656 l 413 629 q 421 648 413 640 q 440 656 429 656 l 576 656 q 595 648 587 656 q 604 629 604 640 q 595 610 604 618 q 576 602 587 602 l 563 602 l 563 46 q 494 -182 563 -100 q 298 -271 419 -271 m 188 55 q 157 105 170 77 q 111 336 111 205 q 169 572 111 473 q 182 593 175 583 q 83 445 110 560 q 71 333 71 391 q 123 104 71 189 q 188 55 151 62 m 404 -190 q 494 -69 467 -153 q 509 46 509 -21 l 509 602 l 467 602 l 467 46 q 404 -190 467 -96 m 410 712 q 387 720 394 712 l 310 789 l 234 719 q 215 712 227 712 q 197 720 204 712 q 189 738 189 728 q 197 759 189 751 l 292 846 q 310 854 300 854 q 328 846 320 854 l 422 759 q 431 745 431 751 q 424 720 431 728 q 410 712 416 712 z "},"":{"ha":649,"x_min":23,"x_max":625,"o":"m 340 -14 q 23 490 23 -14 l 23 498 q 340 999 23 999 q 585 858 506 999 q 589 845 589 852 q 574 821 589 829 q 562 817 568 817 q 538 831 545 817 q 375 941 479 941 q 265 873 323 941 q 172 496 172 766 q 260 121 172 231 q 381 45 322 45 q 496 118 448 45 q 570 463 566 219 l 363 463 q 355 441 363 449 q 336 433 347 433 q 317 441 325 433 q 309 460 309 449 l 309 519 q 317 538 309 530 q 336 547 325 547 q 355 538 347 547 q 363 517 363 530 l 598 517 q 617 509 610 517 q 625 490 625 501 q 533 73 625 188 q 405 -7 479 7 q 340 -14 371 -14 m 239 61 q 118 496 118 180 q 239 925 118 807 q 77 498 77 852 q 239 61 77 132 m 325 1042 q 256 1059 290 1042 q 206 1108 226 1076 q 203 1122 203 1115 q 216 1145 203 1137 q 230 1149 222 1149 q 253 1136 245 1149 q 325 1096 277 1096 q 365 1106 347 1096 q 395 1136 384 1117 q 418 1149 403 1149 q 432 1145 425 1149 q 446 1122 446 1137 q 441 1108 446 1115 q 393 1059 422 1076 q 325 1042 360 1042 z "},"":{"ha":644,"x_min":16,"x_max":604,"o":"m 250 70 q 304 133 278 88 q 401 452 358 224 l 413 515 q 271 598 338 587 q 215 543 237 581 q 165 335 165 458 q 206 129 165 217 q 250 70 224 90 m 298 -271 q 175 -242 229 -271 q 88 -160 117 -211 q 85 -147 85 -154 q 99 -123 85 -132 q 111 -119 105 -119 q 136 -134 128 -119 q 199 -193 157 -170 q 267 -211 232 -211 q 289 -209 277 -211 q 376 -130 340 -201 q 413 46 413 -59 l 413 250 q 281 25 355 74 q 197 0 243 0 q 66 96 116 0 q 16 333 16 192 q 98 598 16 505 q 233 656 149 656 q 413 588 328 656 l 413 629 q 421 648 413 640 q 440 656 429 656 l 576 656 q 595 648 587 656 q 604 629 604 640 q 595 610 604 618 q 576 602 587 602 l 563 602 l 563 46 q 494 -182 563 -100 q 298 -271 419 -271 m 188 55 q 157 105 170 77 q 111 336 111 205 q 169 572 111 473 q 182 593 175 583 q 83 445 110 560 q 71 333 71 391 q 123 104 71 189 q 188 55 151 62 m 404 -190 q 494 -69 467 -153 q 509 46 509 -21 l 509 602 l 467 602 l 467 46 q 404 -190 467 -96 m 311 712 q 242 730 275 712 q 192 779 212 746 q 189 792 189 785 q 202 816 189 808 q 216 819 208 819 q 239 806 231 819 q 311 766 263 766 q 351 777 332 766 q 381 806 370 787 q 404 819 389 819 q 418 815 411 819 q 431 793 431 807 q 427 779 431 785 q 378 730 408 747 q 311 712 346 712 z "},"":{"ha":649,"x_min":23,"x_max":625,"o":"m 340 -14 q 23 490 23 -14 l 23 498 q 340 999 23 999 q 585 858 506 999 q 589 845 589 852 q 574 821 589 829 q 562 817 568 817 q 538 831 545 817 q 375 941 479 941 q 265 873 323 941 q 172 496 172 766 q 260 121 172 231 q 381 45 322 45 q 496 118 448 45 q 570 463 566 219 l 363 463 q 355 441 363 449 q 336 433 347 433 q 317 441 325 433 q 309 460 309 449 l 309 519 q 317 538 309 530 q 336 547 325 547 q 355 538 347 547 q 363 517 363 530 l 598 517 q 617 509 610 517 q 625 490 625 501 q 533 73 625 188 q 405 -7 479 7 q 340 -14 371 -14 m 239 61 q 118 496 118 180 q 239 925 118 807 q 77 498 77 852 q 239 61 77 132 m 324 1042 q 287 1057 302 1042 q 271 1095 271 1073 q 287 1133 271 1118 q 324 1149 302 1149 q 362 1133 347 1149 q 378 1095 378 1118 q 362 1057 378 1073 q 324 1042 347 1042 z "},"":{"ha":644,"x_min":16,"x_max":604,"o":"m 250 70 q 304 133 278 88 q 401 452 358 224 l 413 515 q 271 598 338 587 q 215 543 237 581 q 165 335 165 458 q 206 129 165 217 q 250 70 224 90 m 298 -271 q 175 -242 229 -271 q 88 -160 117 -211 q 85 -147 85 -154 q 99 -123 85 -132 q 111 -119 105 -119 q 136 -134 128 -119 q 199 -193 157 -170 q 267 -211 232 -211 q 289 -209 277 -211 q 376 -130 340 -201 q 413 46 413 -59 l 413 250 q 281 25 355 74 q 197 0 243 0 q 66 96 116 0 q 16 333 16 192 q 98 598 16 505 q 233 656 149 656 q 413 588 328 656 l 413 629 q 421 648 413 640 q 440 656 429 656 l 576 656 q 595 648 587 656 q 604 629 604 640 q 595 610 604 618 q 576 602 587 602 l 563 602 l 563 46 q 494 -182 563 -100 q 298 -271 419 -271 m 188 55 q 157 105 170 77 q 111 336 111 205 q 169 572 111 473 q 182 593 175 583 q 83 445 110 560 q 71 333 71 391 q 123 104 71 189 q 188 55 151 62 m 404 -190 q 494 -69 467 -153 q 509 46 509 -21 l 509 602 l 467 602 l 467 46 q 404 -190 467 -96 m 310 712 q 272 728 288 712 q 256 766 256 743 q 272 804 256 788 q 310 819 288 819 q 348 804 332 819 q 364 766 364 788 q 348 728 364 743 q 310 712 332 712 z "},"":{"ha":649,"x_min":23,"x_max":625,"o":"m 340 -14 q 23 490 23 -14 l 23 498 q 340 999 23 999 q 585 858 506 999 q 589 845 589 852 q 574 821 589 829 q 562 817 568 817 q 538 831 545 817 q 375 941 479 941 q 265 873 323 941 q 172 496 172 766 q 260 121 172 231 q 381 45 322 45 q 496 118 448 45 q 570 463 566 219 l 363 463 q 355 441 363 449 q 336 433 347 433 q 317 441 325 433 q 309 460 309 449 l 309 519 q 317 538 309 530 q 336 547 325 547 q 355 538 347 547 q 363 517 363 530 l 598 517 q 617 509 610 517 q 625 490 625 501 q 533 73 625 188 q 405 -7 479 7 q 340 -14 371 -14 m 239 61 q 118 496 118 180 q 239 925 118 807 q 77 498 77 852 q 239 61 77 132 m 299 -277 q 282 -266 287 -277 q 280 -258 280 -262 q 292 -241 280 -246 q 340 -193 330 -224 q 325 -195 332 -195 q 279 -177 298 -195 q 260 -132 260 -158 q 279 -86 260 -105 q 325 -68 298 -68 q 369 -86 351 -68 q 388 -132 388 -105 q 370 -218 388 -182 q 307 -275 351 -256 q 299 -277 302 -277 m 324 -157 q 338 -153 332 -157 q 350 -132 350 -146 q 342 -113 350 -121 q 324 -106 335 -106 q 307 -113 314 -106 q 299 -132 299 -121 q 307 -150 299 -142 q 324 -157 314 -157 z "},"":{"ha":652,"x_min":23,"x_max":610,"o":"m 256 70 q 311 133 285 88 q 408 452 365 224 l 420 515 q 277 598 345 587 q 222 543 244 581 q 172 335 172 458 q 213 129 172 217 q 256 70 231 90 m 304 -271 q 182 -242 236 -271 q 95 -160 124 -211 q 92 -147 92 -154 q 106 -123 92 -132 q 118 -119 112 -119 q 143 -134 135 -119 q 206 -193 163 -170 q 273 -211 239 -211 q 296 -209 284 -211 q 383 -130 347 -201 q 420 46 420 -59 l 420 250 q 288 25 361 74 q 204 0 250 0 q 73 96 123 0 q 23 333 23 192 q 105 598 23 505 q 240 656 156 656 q 420 588 334 656 l 420 629 q 428 648 420 640 q 447 656 436 656 l 583 656 q 602 648 594 656 q 610 629 610 640 q 602 610 610 618 q 583 602 594 602 l 570 602 l 570 46 q 500 -182 570 -100 q 304 -271 426 -271 m 195 55 q 164 105 177 77 q 118 336 118 205 q 176 572 118 473 q 189 593 182 583 q 90 445 117 560 q 77 333 77 391 q 130 104 77 189 q 195 55 157 62 m 411 -190 q 500 -69 474 -153 q 515 46 515 -21 l 515 602 l 474 602 l 474 46 q 411 -190 474 -96 m 342 921 q 359 910 354 921 q 361 902 361 906 q 350 885 361 890 q 301 838 311 868 q 317 840 309 840 q 362 821 343 840 q 380 776 380 802 q 362 731 380 749 q 317 712 343 712 q 272 731 290 712 q 253 776 253 749 q 271 863 253 827 q 334 920 290 900 q 342 921 338 921 m 317 802 q 303 798 309 802 q 291 776 291 790 q 298 758 291 765 q 317 750 306 750 q 335 758 328 750 q 342 776 342 765 q 335 794 342 787 q 317 802 328 802 z "}}}
